font.ufo
<glyph name="exclam" format="1">
  <advance width="419"/>
  <unicode hex="0021"/>
  <outline>
    <contour>
      <point x="314" y="516" type="line"/>
      <point x="458" y="889" type="line"/>
      <point x="414" y="941"/>
      <point x="302" y="961"/>
      <point x="222" y="929" type="curve"/>
      <point x="171" y="542" type="line"/>
      <point x="125" y="282" type="line"/>
      <point x="183" y="236"/>
      <point x="223" y="243"/>
      <point x="247" y="280" type="curve"/>
    </contour>
    <contour>
      <point x="258" y="79" type="curve"/>
      <point x="252" y="134"/>
      <point x="204" y="196"/>
      <point x="164" y="196" type="curve"/>
      <point x="107" y="188"/>
      <point x="56" y="128"/>
      <point x="42" y="67" type="curve"/>
      <point x="46" y="25"/>
      <point x="76" y="-7"/>
      <point x="114" y="-7" type="curve"/>
      <point x="163" y="-7"/>
      <point x="218" y="28"/>
    </contour>
  </outline>
</glyph>
<glyph name="question" format="1">
  <advance width="667"/>
  <unicode hex="003F"/>
  <outline>
    <contour>
      <point x="316" y="378" type="line"/>
      <point x="513" y="430"/>
      <point x="645" y="521"/>
      <point x="648" y="656" type="curve" smooth="yes"/>
      <point x="651" y="782"/>
      <point x="528" y="915"/>
      <point x="403" y="915" type="curve" smooth="yes"/>
      <point x="301" y="915"/>
      <point x="175" y="871"/>
      <point x="54" y="795" type="curve"/>
      <point x="56" y="693"/>
      <point x="115" y="582"/>
      <point x="166" y="582" type="curve" smooth="yes"/>
      <point x="178" y="582"/>
      <point x="193" y="587"/>
      <point x="210" y="595" type="curve"/>
      <point x="195" y="665" type="line"/>
      <point x="272" y="715"/>
      <point x="388" y="760"/>
      <point x="494" y="765" type="curve"/>
      <point x="511" y="750"/>
      <point x="521" y="727"/>
      <point x="520" y="700" type="curve" smooth="yes"/>
      <point x="518" y="626"/>
      <point x="376" y="538"/>
      <point x="231" y="516" type="curve"/>
      <point x="200" y="496"/>
      <point x="175" y="455"/>
      <point x="165" y="414" type="curve"/>
      <point x="246" y="250" type="line" smooth="yes"/>
      <point x="257" y="228"/>
      <point x="296" y="227"/>
      <point x="328" y="240" type="curve"/>
    </contour>
    <contour>
      <point x="267" y="-7" type="curve" smooth="yes"/>
      <point x="317" y="-7"/>
      <point x="371" y="28"/>
      <point x="411" y="79" type="curve"/>
      <point x="405" y="134"/>
      <point x="357" y="196"/>
      <point x="317" y="196" type="curve"/>
      <point x="260" y="188"/>
      <point x="209" y="128"/>
      <point x="195" y="67" type="curve"/>
      <point x="199" y="25"/>
      <point x="229" y="-7"/>
    </contour>
  </outline>
</glyph>
<glyph name="U" format="1">
  <advance width="686"/>
  <unicode hex="0055"/>
  <outline>
    <contour>
      <point x="420" y="766" type="move" name="top"/>
    </contour>
    <contour>
      <point x="342" y="0" type="move" name="ogonek"/>
    </contour>
    <contour>
      <point x="567" y="230" type="curve" smooth="yes"/>
      <point x="640" y="320"/>
      <point x="672" y="471"/>
      <point x="697" y="636" type="curve" smooth="yes"/>
      <point x="689" y="686"/>
      <point x="671" y="721"/>
      <point x="653" y="753" type="curve"/>
      <point x="613" y="755"/>
      <point x="566" y="747"/>
      <point x="521" y="727" type="curve" smooth="yes"/>
      <point x="515" y="727"/>
      <point x="539" y="558"/>
      <point x="531" y="553" type="curve"/>
      <point x="517" y="446"/>
      <point x="497" y="315"/>
      <point x="457" y="240" type="curve"/>
      <point x="322" y="186"/>
      <point x="322" y="210"/>
      <point x="308" y="278" type="curve"/>
      <point x="284" y="330"/>
      <point x="279" y="443"/>
      <point x="313" y="575" type="curve" smooth="yes"/>
      <point x="295" y="635"/>
      <point x="289" y="700"/>
      <point x="280" y="753" type="curve"/>
      <point x="240" y="755"/>
      <point x="194" y="747"/>
      <point x="148" y="727" type="curve" smooth="yes"/>
      <point x="130" y="598"/>
      <point x="111" y="502"/>
      <point x="79" y="373" type="curve"/>
      <point x="87" y="224"/>
      <point x="157" y="113"/>
      <point x="267" y="50" type="curve"/>
      <point x="407" y="32"/>
      <point x="503" y="92"/>
    </contour>
  </outline>
</glyph>
<glyph name="e" format="1">
  <advance width="596"/>
  <unicode hex="0065"/>
  <outline>
    <contour>
      <point x="368" y="572" type="move" name="top"/>
    </contour>
    <contour>
      <point x="346" y="0" type="move" name="ogonek"/>
    </contour>
    <contour>
      <point x="199" y="216" type="curve"/>
      <point x="271" y="227"/>
      <point x="387" y="253"/>
      <point x="445" y="282" type="curve"/>
      <point x="519" y="381"/>
      <point x="519" y="472"/>
      <point x="444" y="497" type="curve"/>
      <point x="354" y="516"/>
      <point x="271" y="504"/>
      <point x="173" y="473" type="curve"/>
      <point x="97" y="417"/>
      <point x="54" y="343"/>
      <point x="39" y="267" type="curve"/>
      <point x="33" y="182"/>
      <point x="81" y="102"/>
      <point x="203" y="74" type="curve" smooth="yes"/>
      <point x="274" y="44"/>
      <point x="398" y="43"/>
      <point x="485" y="79" type="curve"/>
      <point x="512" y="131"/>
      <point x="522" y="162"/>
      <point x="497" y="172" type="curve"/>
      <point x="453" y="152"/>
      <point x="402" y="137"/>
      <point x="336" y="130" type="curve"/>
      <point x="302" y="146"/>
      <point x="271" y="165"/>
      <point x="257" y="206" type="curve"/>
      <point x="227" y="259"/>
      <point x="237" y="324"/>
      <point x="275" y="394" type="curve" smooth="yes"/>
      <point x="276" y="416"/>
      <point x="312" y="455"/>
      <point x="339" y="468" type="curve"/>
      <point x="355" y="455"/>
      <point x="379" y="430"/>
      <point x="365" y="382" type="curve"/>
      <point x="357" y="357"/>
      <point x="316" y="325"/>
      <point x="272" y="289" type="curve"/>
      <point x="245" y="277"/>
      <point x="231" y="223"/>
    </contour>
  </outline>
</glyph>
<glyph name="dieresis" format="1">
  <advance width="437"/>
  <unicode hex="00A8"/>
  <outline>
    <contour>
      <point x="280" y="572" type="move" name="_top"/>
    </contour>
    <contour>
      <point x="175" y="628" type="curve" smooth="yes"/>
      <point x="221" y="628"/>
      <point x="257" y="665"/>
      <point x="257" y="710" type="curve" smooth="yes"/>
      <point x="257" y="754"/>
      <point x="221" y="791"/>
      <point x="175" y="791" type="curve" smooth="yes"/>
      <point x="129" y="791"/>
      <point x="91" y="754"/>
      <point x="91" y="710" type="curve" smooth="yes"/>
      <point x="91" y="665"/>
      <point x="129" y="628"/>
    </contour>
    <contour>
      <point x="422" y="628" type="curve" smooth="yes"/>
      <point x="467" y="628"/>
      <point x="503" y="665"/>
      <point x="503" y="710" type="curve" smooth="yes"/>
      <point x="503" y="754"/>
      <point x="467" y="791"/>
      <point x="422" y="791" type="curve" smooth="yes"/>
      <point x="375" y="791"/>
      <point x="337" y="754"/>
      <point x="337" y="710" type="curve" smooth="yes"/>
      <point x="337" y="665"/>
      <point x="375" y="628"/>
    </contour>
  </outline>
</glyph>
<glyph name="uni0122" format="1">
  <advance width="723"/>
  <unicode hex="0122"/>
  <outline>
    <contour>
      <point x="359" y="-305" type="curve"/>
      <point x="441" y="-241"/>
      <point x="486" y="-165"/>
      <point x="491" y="-91" type="curve"/>
      <point x="477" y="-49"/>
      <point x="412" y="-6"/>
      <point x="343" y="-60" type="curve"/>
      <point x="359" y="-195" type="line"/>
      <point x="306" y="-275" type="line"/>
      <point x="313" y="-295"/>
      <point x="330" y="-304"/>
    </contour>
    <component base="G"/>
  </outline>
</glyph>
<glyph name="uni0123" format="1">
  <advance width="674"/>
  <unicode hex="0123"/>
  <outline>
    <contour>
      <point x="457" y="608" type="curve"/>
      <point x="539" y="672"/>
      <point x="584" y="748"/>
      <point x="590" y="822" type="curve"/>
      <point x="575" y="864"/>
      <point x="511" y="907"/>
      <point x="441" y="853" type="curve"/>
      <point x="458" y="718" type="line"/>
      <point x="404" y="638" type="line"/>
      <point x="411" y="618"/>
      <point x="429" y="609"/>
    </contour>
    <component base="g"/>
  </outline>
</glyph>
<glyph name="uni0136" format="1">
  <advance width="703"/>
  <unicode hex="0136"/>
  <outline>
    <contour>
      <point x="283" y="-305" type="curve"/>
      <point x="365" y="-241"/>
      <point x="410" y="-165"/>
      <point x="415" y="-91" type="curve"/>
      <point x="401" y="-49"/>
      <point x="336" y="-6"/>
      <point x="267" y="-60" type="curve"/>
      <point x="283" y="-195" type="line"/>
      <point x="230" y="-275" type="line"/>
      <point x="237" y="-295"/>
      <point x="254" y="-304"/>
    </contour>
    <component base="K"/>
  </outline>
</glyph>
<glyph name="uni0137" format="1">
  <advance width="628"/>
  <unicode hex="0137"/>
  <outline>
    <contour>
      <point x="249" y="-305" type="curve"/>
      <point x="331" y="-241"/>
      <point x="376" y="-165"/>
      <point x="382" y="-91" type="curve"/>
      <point x="367" y="-49"/>
      <point x="302" y="-6"/>
      <point x="233" y="-60" type="curve"/>
      <point x="249" y="-195" type="line"/>
      <point x="196" y="-275" type="line"/>
      <point x="203" y="-295"/>
      <point x="220" y="-304"/>
    </contour>
    <component base="k"/>
  </outline>
</glyph>
<glyph name="uni013B" format="1">
  <advance width="576"/>
  <unicode hex="013B"/>
  <outline>
    <contour>
      <point x="226" y="-305" type="curve"/>
      <point x="308" y="-241"/>
      <point x="353" y="-165"/>
      <point x="358" y="-91" type="curve"/>
      <point x="344" y="-49"/>
      <point x="279" y="-6"/>
      <point x="210" y="-60" type="curve"/>
      <point x="226" y="-195" type="line"/>
      <point x="173" y="-275" type="line"/>
      <point x="180" y="-295"/>
      <point x="197" y="-304"/>
    </contour>
    <component base="L"/>
  </outline>
</glyph>
<glyph name="uni013C" format="1">
  <advance width="336"/>
  <unicode hex="013C"/>
  <outline>
    <contour>
      <point x="67" y="-305" type="curve"/>
      <point x="149" y="-241"/>
      <point x="195" y="-165"/>
      <point x="200" y="-91" type="curve"/>
      <point x="185" y="-49"/>
      <point x="121" y="-6"/>
      <point x="51" y="-60" type="curve"/>
      <point x="68" y="-195" type="line"/>
      <point x="14" y="-275" type="line"/>
      <point x="22" y="-295"/>
      <point x="39" y="-304"/>
    </contour>
    <component base="l"/>
  </outline>
</glyph>
<glyph name="Lcaron" format="1">
  <advance width="576"/>
  <unicode hex="013D"/>
  <outline>
    <contour>
      <point x="480" y="602" type="curve"/>
      <point x="573" y="674"/>
      <point x="623" y="760"/>
      <point x="630" y="843" type="curve"/>
      <point x="613" y="890"/>
      <point x="540" y="938"/>
      <point x="462" y="878" type="curve"/>
      <point x="481" y="726" type="line"/>
      <point x="420" y="636" type="line"/>
      <point x="429" y="614"/>
      <point x="448" y="603"/>
    </contour>
    <component base="L"/>
  </outline>
</glyph>
<glyph name="Lslash" format="1">
  <advance width="648"/>
  <unicode hex="0141"/>
  <outline>
    <contour>
      <point x="505" y="483" type="curve"/>
      <point x="200" y="429" type="line"/>
      <point x="69" y="443" type="line"/>
      <point x="45" y="423"/>
      <point x="43" y="379"/>
      <point x="81" y="340" type="curve"/>
      <point x="326" y="375" type="line"/>
      <point x="516" y="379" type="line"/>
      <point x="560" y="423"/>
      <point x="544" y="466"/>
    </contour>
    <component base="L" xOffset="73"/>
  </outline>
</glyph>
<glyph name="uni0145" format="1">
  <advance width="762"/>
  <unicode hex="0145"/>
  <outline>
    <contour>
      <point x="320" y="-305" type="curve"/>
      <point x="402" y="-241"/>
      <point x="447" y="-165"/>
      <point x="453" y="-91" type="curve"/>
      <point x="438" y="-49"/>
      <point x="374" y="-6"/>
      <point x="304" y="-60" type="curve"/>
      <point x="321" y="-195" type="line"/>
      <point x="267" y="-275" type="line"/>
      <point x="274" y="-295"/>
      <point x="292" y="-304"/>
    </contour>
    <component base="N"/>
  </outline>
</glyph>
<glyph name="uni0146" format="1">
  <advance width="678"/>
  <unicode hex="0146"/>
  <outline>
    <contour>
      <point x="278" y="-305" type="curve"/>
      <point x="361" y="-241"/>
      <point x="406" y="-165"/>
      <point x="411" y="-91" type="curve"/>
      <point x="397" y="-49"/>
      <point x="332" y="-6"/>
      <point x="263" y="-60" type="curve"/>
      <point x="279" y="-195" type="line"/>
      <point x="226" y="-275" type="line"/>
      <point x="233" y="-295"/>
      <point x="250" y="-304"/>
    </contour>
    <component base="n"/>
  </outline>
</glyph>
<glyph name="uni0156" format="1">
  <advance width="702"/>
  <unicode hex="0156"/>
  <outline>
    <contour>
      <point x="296" y="-305" type="curve"/>
      <point x="378" y="-241"/>
      <point x="424" y="-165"/>
      <point x="429" y="-91" type="curve"/>
      <point x="414" y="-49"/>
      <point x="350" y="-6"/>
      <point x="280" y="-60" type="curve"/>
      <point x="297" y="-195" type="line"/>
      <point x="243" y="-275" type="line"/>
      <point x="251" y="-295"/>
      <point x="268" y="-304"/>
    </contour>
    <component base="R"/>
  </outline>
</glyph>
<glyph name="uni0218" format="1">
  <advance width="676"/>
  <unicode hex="0218"/>
  <outline>
    <contour>
      <point x="266" y="-305" type="curve"/>
      <point x="349" y="-241"/>
      <point x="394" y="-165"/>
      <point x="399" y="-91" type="curve"/>
      <point x="384" y="-49"/>
      <point x="320" y="-6"/>
      <point x="250" y="-60" type="curve"/>
      <point x="267" y="-195" type="line"/>
      <point x="213" y="-275" type="line"/>
      <point x="221" y="-295"/>
      <point x="238" y="-304"/>
    </contour>
    <component base="S"/>
  </outline>
</glyph>
<glyph name="uni0219" format="1">
  <advance width="558"/>
  <unicode hex="0219"/>
  <outline>
    <contour>
      <point x="185" y="-305" type="curve"/>
      <point x="268" y="-241"/>
      <point x="313" y="-165"/>
      <point x="318" y="-91" type="curve"/>
      <point x="304" y="-49"/>
      <point x="239" y="-6"/>
      <point x="170" y="-60" type="curve"/>
      <point x="186" y="-195" type="line"/>
      <point x="133" y="-275" type="line"/>
      <point x="140" y="-295"/>
      <point x="157" y="-304"/>
    </contour>
    <component base="s"/>
  </outline>
</glyph>
<glyph name="uni021A" format="1">
  <advance width="670"/>
  <unicode hex="021A"/>
  <outline>
    <contour>
      <point x="238" y="-305" type="curve"/>
      <point x="320" y="-241"/>
      <point x="366" y="-165"/>
      <point x="371" y="-91" type="curve"/>
      <point x="356" y="-49"/>
      <point x="292" y="-6"/>
      <point x="222" y="-60" type="curve"/>
      <point x="239" y="-195" type="line"/>
      <point x="185" y="-275" type="line"/>
      <point x="193" y="-295"/>
      <point x="210" y="-304"/>
    </contour>
    <component base="T"/>
  </outline>
</glyph>
<glyph name="uni021B" format="1">
  <advance width="538"/>
  <unicode hex="021B"/>
  <outline>
    <contour>
      <point x="217" y="-305" type="curve"/>
      <point x="299" y="-241"/>
      <point x="344" y="-165"/>
      <point x="350" y="-91" type="curve"/>
      <point x="335" y="-49"/>
      <point x="271" y="-6"/>
      <point x="201" y="-60" type="curve"/>
      <point x="218" y="-195" type="line"/>
      <point x="164" y="-275" type="line"/>
      <point x="171" y="-295"/>
      <point x="189" y="-304"/>
    </contour>
    <component base="t"/>
  </outline>
</glyph>
<glyph name="dvCandrabindu" format="1">
  <advance width="0"/>
  <unicode hex="0901"/>
  <outline>
    <contour>
      <point x="-172" y="634" type="move" name="_abvm_Ekaar"/>
    </contour>
    <contour>
      <point x="-19" y="811" type="curve" smooth="yes"/>
      <point x="15" y="811"/>
      <point x="43" y="840"/>
      <point x="43" y="873" type="curve" smooth="yes"/>
      <point x="43" y="906"/>
      <point x="15" y="934"/>
      <point x="-19" y="934" type="curve" smooth="yes"/>
      <point x="-54" y="934"/>
      <point x="-82" y="906"/>
      <point x="-82" y="873" type="curve" smooth="yes"/>
      <point x="-82" y="840"/>
      <point x="-54" y="811"/>
    </contour>
    <contour>
      <point x="80" y="849" type="curve"/>
      <point x="49" y="796"/>
      <point x="8" y="767"/>
      <point x="-58" y="753" type="curve"/>
      <point x="-113" y="798"/>
      <point x="-133" y="864"/>
      <point x="-133" y="944" type="curve"/>
      <point x="-190" y="969"/>
      <point x="-246" y="946"/>
      <point x="-284" y="884" type="curve"/>
      <point x="-258" y="769"/>
      <point x="-142" y="683"/>
      <point x="-62" y="683" type="curve" smooth="yes"/>
      <point x="18" y="683"/>
      <point x="127" y="718"/>
      <point x="183" y="787" type="curve"/>
      <point x="163" y="840"/>
      <point x="123" y="863"/>
    </contour>
  </outline>
</glyph>
<glyph name="dvAI" format="1">
  <advance width="626"/>
  <unicode hex="0910"/>
  <outline>
    <contour>
      <point x="754" y="567" type="line"/>
      <point x="770" y="578"/>
      <point x="778" y="595"/>
      <point x="782" y="611" type="curve"/>
      <point x="770" y="625" type="line"/>
      <point x="12" y="625" type="line"/>
      <point x="-4" y="614"/>
      <point x="-15" y="597"/>
      <point x="-22" y="584" type="curve"/>
      <point x="-4" y="567" type="line"/>
    </contour>
    <contour>
      <point x="203" y="198" type="line"/>
      <point x="260" y="312"/>
      <point x="299" y="456"/>
      <point x="310" y="605" type="curve"/>
      <point x="131" y="585" type="line"/>
      <point x="145" y="442" type="line"/>
      <point x="124" y="357"/>
      <point x="81" y="268"/>
      <point x="43" y="195" type="curve"/>
      <point x="41" y="129"/>
      <point x="107" y="82"/>
      <point x="203" y="70" type="curve"/>
      <point x="344" y="159" type="line"/>
      <point x="359" y="151" type="line"/>
      <point x="358" y="82" type="line"/>
      <point x="335" y="11"/>
      <point x="302" y="-48"/>
      <point x="240" y="-115" type="curve"/>
      <point x="242" y="-171"/>
      <point x="292" y="-204"/>
      <point x="377" y="-205" type="curve"/>
      <point x="454" y="-89"/>
      <point x="501" y="51"/>
      <point x="502" y="191" type="curve"/>
      <point x="471" y="242"/>
      <point x="406" y="276"/>
      <point x="338" y="264" type="curve"/>
      <point x="216" y="190" type="line"/>
    </contour>
    <contour>
      <point x="546" y="285" type="curve"/>
      <point x="618" y="387"/>
      <point x="641" y="506"/>
      <point x="626" y="612" type="curve"/>
      <point x="462" y="593" type="line"/>
      <point x="480" y="487" type="line"/>
      <point x="476" y="435"/>
      <point x="459" y="396"/>
      <point x="428" y="350" type="curve"/>
      <point x="440" y="318"/>
      <point x="482" y="291"/>
    </contour>
    <contour>
      <point x="412" y="835" type="line"/>
      <point x="472" y="787"/>
      <point x="506" y="737"/>
      <point x="535" y="681" type="curve"/>
      <point x="560" y="681"/>
      <point x="580" y="689"/>
      <point x="591" y="704" type="curve"/>
      <point x="549" y="821"/>
      <point x="443" y="988"/>
      <point x="366" y="988" type="curve" smooth="yes"/>
      <point x="311" y="988"/>
      <point x="250" y="954"/>
      <point x="208" y="919" type="curve"/>
      <point x="194" y="866"/>
      <point x="236" y="814"/>
      <point x="327" y="777" type="curve"/>
    </contour>
  </outline>
</glyph>
<glyph name="dvNNA" format="1">
  <advance width="818"/>
  <unicode hex="0923"/>
  <outline>
    <contour>
      <point x="972" y="611" type="curve"/>
      <point x="960" y="625" type="line"/>
      <point x="235" y="625" type="line"/>
      <point x="117" y="555"/>
      <point x="41" y="425"/>
      <point x="41" y="350" type="curve" smooth="yes"/>
      <point x="41" y="266"/>
      <point x="137" y="135"/>
      <point x="228" y="135" type="curve" smooth="yes"/>
      <point x="328" y="135"/>
      <point x="488" y="242"/>
      <point x="499" y="378" type="curve"/>
      <point x="502" y="436"/>
      <point x="482" y="498"/>
      <point x="451" y="567" type="curve"/>
      <point x="944" y="567" type="line"/>
      <point x="960" y="578"/>
      <point x="968" y="595"/>
    </contour>
    <contour>
      <point x="313" y="567" type="line"/>
      <point x="339" y="498"/>
      <point x="352" y="444"/>
      <point x="356" y="381" type="curve"/>
      <point x="338" y="301"/>
      <point x="295" y="261"/>
      <point x="244" y="241" type="curve"/>
      <point x="211" y="263"/>
      <point x="195" y="302"/>
      <point x="189" y="355" type="curve"/>
      <point x="204" y="428"/>
      <point x="247" y="502"/>
      <point x="299" y="567" type="curve"/>
    </contour>
    <contour>
      <point x="831" y="604" type="line"/>
      <point x="805" y="648"/>
      <point x="757" y="666"/>
      <point x="640" y="655" type="curve"/>
      <point x="505" y="52" type="line"/>
      <point x="573" y="-2"/>
      <point x="674" y="-13"/>
      <point x="714" y="18" type="curve"/>
      <point x="738" y="426" type="line"/>
    </contour>
  </outline>
</glyph>
<glyph name="dvLA" format="1">
  <advance width="788"/>
  <unicode hex="0932"/>
  <outline>
    <contour>
      <point x="802" y="604" type="line"/>
      <point x="776" y="648"/>
      <point x="728" y="666"/>
      <point x="611" y="655" type="curve"/>
      <point x="545" y="357" type="line"/>
      <point x="563" y="336" type="line"/>
      <point x="527" y="277" type="line"/>
      <point x="477" y="52" type="line"/>
      <point x="544" y="-2"/>
      <point x="645" y="-13"/>
      <point x="685" y="18" type="curve"/>
      <point x="709" y="426" type="line"/>
    </contour>
    <contour>
      <point x="916" y="567" type="line"/>
      <point x="931" y="578"/>
      <point x="939" y="595"/>
      <point x="943" y="611" type="curve"/>
      <point x="931" y="625" type="line"/>
      <point x="12" y="625" type="line"/>
      <point x="-4" y="614"/>
      <point x="-14" y="597"/>
      <point x="-21" y="584" type="curve"/>
      <point x="-4" y="567" type="line"/>
    </contour>
    <contour>
      <point x="369" y="298" type="line"/>
      <point x="387" y="317"/>
      <point x="405" y="338"/>
      <point x="422" y="358" type="curve"/>
      <point x="417" y="418"/>
      <point x="388" y="462"/>
      <point x="325" y="483" type="curve"/>
      <point x="297" y="490"/>
      <point x="252" y="492"/>
      <point x="208" y="488" type="curve"/>
      <point x="105" y="445"/>
      <point x="-6" y="341"/>
      <point x="-6" y="256" type="curve" smooth="yes"/>
      <point x="-6" y="180"/>
      <point x="85" y="58"/>
      <point x="192" y="0" type="curve"/>
      <point x="289" y="18"/>
      <point x="323" y="84"/>
      <point x="297" y="127" type="curve"/>
      <point x="211" y="164"/>
      <point x="175" y="210"/>
      <point x="153" y="271" type="curve"/>
      <point x="159" y="320"/>
      <point x="211" y="388"/>
      <point x="245" y="393" type="curve"/>
      <point x="276" y="389"/>
      <point x="296" y="363"/>
      <point x="302" y="336" type="curve"/>
      <point x="287" y="322"/>
      <point x="270" y="308"/>
      <point x="251" y="294" type="curve"/>
      <point x="243" y="250"/>
      <point x="288" y="202"/>
      <point x="380" y="189" type="curve"/>
      <point x="462" y="255"/>
      <point x="549" y="335"/>
      <point x="607" y="396" type="curve"/>
      <point x="568" y="457" type="line"/>
      <point x="508" y="393"/>
      <point x="437" y="331"/>
      <point x="377" y="292" type="curve"/>
    </contour>
  </outline>
</glyph>
<glyph name="dvNukta" format="1">
  <advance width="0"/>
  <unicode hex="093C"/>
  <outline>
    <contour>
      <point x="79" y="-6" type="curve" smooth="yes"/>
      <point x="118" y="-6"/>
      <point x="150" y="26"/>
      <point x="150" y="65" type="curve" smooth="yes"/>
      <point x="150" y="104"/>
      <point x="118" y="136"/>
      <point x="79" y="136" type="curve" smooth="yes"/>
      <point x="39" y="136"/>
      <point x="7" y="104"/>
      <point x="7" y="65" type="curve" smooth="yes"/>
      <point x="7" y="26"/>
      <point x="39" y="-6"/>
    </contour>
  </outline>
</glyph>
<glyph name="dvmI" format="1">
  <advance width="328"/>
  <unicode hex="093F"/>
  <outline>
    <contour>
      <point x="631" y="714" type="move" name="abvm_Reph_alt"/>
    </contour>
    <contour>
      <point x="152" y="856" type="curve"/>
      <point x="141" y="592" type="line"/>
      <point x="14" y="52" type="line"/>
      <point x="81" y="-2"/>
      <point x="182" y="-13"/>
      <point x="223" y="18" type="curve"/>
      <point x="229" y="372"/>
      <point x="285" y="660"/>
      <point x="324" y="865" type="curve"/>
      <point x="337" y="873" type="line"/>
      <point x="434" y="826"/>
      <point x="496" y="763"/>
      <point x="574" y="670" type="curve"/>
      <point x="644" y="677"/>
      <point x="695" y="713"/>
      <point x="703" y="765" type="curve"/>
      <point x="634" y="867"/>
      <point x="459" y="988"/>
      <point x="358" y="988" type="curve" smooth="yes"/>
      <point x="291" y="988"/>
      <point x="186" y="923"/>
    </contour>
    <contour>
      <point x="452" y="567" type="line"/>
      <point x="467" y="578"/>
      <point x="475" y="595"/>
      <point x="479" y="611" type="curve"/>
      <point x="467" y="625" type="line"/>
      <point x="12" y="625" type="line"/>
      <point x="-4" y="614"/>
      <point x="-15" y="597"/>
      <point x="-22" y="584" type="curve"/>
      <point x="-4" y="567" type="line"/>
    </contour>
  </outline>
</glyph>
<glyph name="dvmvRR" format="1">
  <advance width="0"/>
  <unicode hex="0944"/>
  <outline>
    <contour>
      <point x="-392" y="-109" type="curve"/>
      <point x="-391" y="-148"/>
      <point x="-357" y="-180"/>
      <point x="-294" y="-172" type="curve"/>
      <point x="-291" y="-178" type="line"/>
      <point x="-340" y="-189"/>
      <point x="-382" y="-212"/>
      <point x="-406" y="-253" type="curve"/>
      <point x="-400" y="-300"/>
      <point x="-360" y="-328"/>
      <point x="-300" y="-339" type="curve"/>
      <point x="-219" y="-337"/>
      <point x="-150" y="-314"/>
      <point x="-107" y="-276" type="curve"/>
      <point x="-101" y="-226"/>
      <point x="-121" y="-202"/>
      <point x="-153" y="-200" type="curve"/>
      <point x="-193" y="-230"/>
      <point x="-246" y="-255"/>
      <point x="-289" y="-267" type="curve"/>
      <point x="-296" y="-259" type="line"/>
      <point x="-260" y="-227"/>
      <point x="-217" y="-208"/>
      <point x="-181" y="-196" type="curve"/>
      <point x="-164" y="-158"/>
      <point x="-186" y="-126"/>
      <point x="-218" y="-121" type="curve"/>
      <point x="-234" y="-129"/>
      <point x="-260" y="-137"/>
      <point x="-284" y="-144" type="curve"/>
      <point x="-288" y="-137" type="line"/>
      <point x="-249" y="-108"/>
      <point x="-201" y="-90"/>
      <point x="-154" y="-79" type="curve"/>
      <point x="-146" y="-40"/>
      <point x="-155" y="-15"/>
      <point x="-205" y="-6" type="curve"/>
      <point x="-271" y="-19"/>
      <point x="-358" y="-58"/>
    </contour>
  </outline>
</glyph>
<glyph name="dvmOcandra" format="1">
  <advance width="324"/>
  <unicode hex="0949"/>
  <outline>
    <contour>
      <point x="339" y="616" type="line"/>
      <point x="313" y="660"/>
      <point x="265" y="666"/>
      <point x="147" y="655" type="curve"/>
      <point x="13" y="52" type="line"/>
      <point x="80" y="-2"/>
      <point x="181" y="-13"/>
      <point x="221" y="18" type="curve"/>
      <point x="245" y="426" type="line"/>
    </contour>
    <contour>
      <point x="452" y="567" type="line"/>
      <point x="468" y="578"/>
      <point x="476" y="595"/>
      <point x="480" y="611" type="curve"/>
      <point x="468" y="625" type="line"/>
      <point x="12" y="625" type="line"/>
      <point x="-4" y="614"/>
      <point x="-15" y="597"/>
      <point x="-22" y="584" type="curve"/>
      <point x="-4" y="567" type="line"/>
    </contour>
    <contour>
      <point x="501" y="803" type="curve"/>
      <point x="479" y="855"/>
      <point x="427" y="880"/>
      <point x="382" y="859" type="curve"/>
      <point x="364" y="804"/>
      <point x="326" y="753"/>
      <point x="260" y="740" type="curve"/>
      <point x="205" y="785"/>
      <point x="188" y="850"/>
      <point x="187" y="930" type="curve"/>
      <point x="130" y="956"/>
      <point x="73" y="932"/>
      <point x="36" y="870" type="curve"/>
      <point x="62" y="757"/>
      <point x="176" y="669"/>
      <point x="249" y="669" type="curve" smooth="yes"/>
      <point x="354" y="669"/>
      <point x="453" y="730"/>
    </contour>
  </outline>
</glyph>
<glyph name="dvmAU" format="1">
  <advance width="324"/>
  <unicode hex="094C"/>
  <outline>
    <contour>
      <point x="339" y="616" type="line"/>
      <point x="313" y="660"/>
      <point x="265" y="666"/>
      <point x="147" y="655" type="curve"/>
      <point x="13" y="52" type="line"/>
      <point x="80" y="-2"/>
      <point x="181" y="-13"/>
      <point x="221" y="18" type="curve"/>
      <point x="245" y="426" type="line"/>
    </contour>
    <contour>
      <point x="452" y="567" type="line"/>
      <point x="468" y="578"/>
      <point x="476" y="595"/>
      <point x="480" y="611" type="curve"/>
      <point x="468" y="625" type="line"/>
      <point x="12" y="625" type="line"/>
      <point x="-4" y="614"/>
      <point x="-15" y="597"/>
      <point x="-22" y="584" type="curve"/>
      <point x="-4" y="567" type="line"/>
    </contour>
    <contour>
      <point x="218" y="735" type="curve"/>
      <point x="212" y="729" type="line"/>
      <point x="168" y="768"/>
      <point x="122" y="797"/>
      <point x="80" y="808" type="curve" smooth="yes"/>
      <point x="32" y="798"/>
      <point x="0" y="772"/>
      <point x="-20" y="738" type="curve"/>
      <point x="-10" y="699"/>
      <point x="41" y="677"/>
      <point x="90" y="677" type="curve"/>
      <point x="121" y="713" type="line"/>
      <point x="157" y="704"/>
      <point x="184" y="690"/>
      <point x="215" y="669" type="curve"/>
      <point x="253" y="671"/>
      <point x="276" y="691"/>
      <point x="280" y="708" type="curve"/>
      <point x="219" y="858"/>
      <point x="97" y="977"/>
      <point x="25" y="977" type="curve" smooth="yes"/>
      <point x="-24" y="977"/>
      <point x="-78" y="946"/>
      <point x="-100" y="918" type="curve"/>
      <point x="-113" y="859"/>
      <point x="-70" y="824"/>
      <point x="4" y="798" type="curve"/>
      <point x="79" y="867" type="line"/>
      <point x="137" y="833"/>
      <point x="188" y="784"/>
    </contour>
  </outline>
</glyph>
<glyph name="dvOm" format="1">
  <advance width="1029"/>
  <unicode hex="0950"/>
  <outline>
    <contour>
      <point x="481" y="310" type="line"/>
      <point x="508" y="265" type="line"/>
      <point x="625" y="280" type="line"/>
      <point x="704" y="340"/>
      <point x="768" y="426"/>
      <point x="820" y="488" type="curve"/>
      <point x="863" y="452"/>
      <point x="885" y="394"/>
      <point x="899" y="322" type="curve"/>
      <point x="856" y="228"/>
      <point x="794" y="164"/>
      <point x="653" y="115" type="curve"/>
      <point x="621" y="69"/>
      <point x="649" y="15"/>
      <point x="726" y="0" type="curve"/>
      <point x="877" y="74"/>
      <point x="975" y="189"/>
      <point x="1000" y="326" type="curve"/>
      <point x="991" y="437"/>
      <point x="945" y="584"/>
      <point x="825" y="607" type="curve"/>
      <point x="729" y="573"/>
      <point x="656" y="407"/>
      <point x="559" y="338" type="curve"/>
    </contour>
    <contour>
      <point x="396" y="318" type="line"/>
      <point x="431" y="294"/>
      <point x="467" y="254"/>
      <point x="477" y="215" type="curve"/>
      <point x="443" y="147"/>
      <point x="391" y="108"/>
      <point x="312" y="86" type="curve"/>
      <point x="235" y="137"/>
      <point x="183" y="210"/>
      <point x="147" y="312" type="curve"/>
      <point x="95" y="327"/>
      <point x="48" y="299"/>
      <point x="20" y="227" type="curve"/>
      <point x="86" y="116"/>
      <point x="177" y="37"/>
      <point x="309" y="0" type="curve"/>
      <point x="469" y="15"/>
      <point x="607" y="125"/>
      <point x="607" y="217" type="curve" smooth="yes"/>
      <point x="607" y="276"/>
      <point x="534" y="329"/>
      <point x="458" y="356" type="curve"/>
    </contour>
    <contour>
      <point x="342" y="284" type="curve"/>
      <point x="473" y="313"/>
      <point x="623" y="411"/>
      <point x="638" y="530" type="curve"/>
      <point x="608" y="596"/>
      <point x="564" y="640"/>
      <point x="493" y="659" type="curve"/>
      <point x="390" y="663"/>
      <point x="320" y="641"/>
      <point x="239" y="597" type="curve"/>
      <point x="211" y="551"/>
      <point x="248" y="495"/>
      <point x="317" y="474" type="curve"/>
      <point x="365" y="516"/>
      <point x="409" y="542"/>
      <point x="468" y="549" type="curve"/>
      <point x="480" y="542"/>
      <point x="491" y="530"/>
      <point x="498" y="514" type="curve"/>
      <point x="488" y="445"/>
      <point x="436" y="386"/>
      <point x="313" y="360" type="curve"/>
      <point x="292" y="336"/>
      <point x="302" y="302"/>
    </contour>
    <contour>
      <point x="737" y="749" type="curve" smooth="yes"/>
      <point x="768" y="749"/>
      <point x="793" y="776"/>
      <point x="793" y="806" type="curve" smooth="yes"/>
      <point x="793" y="838"/>
      <point x="769" y="863"/>
      <point x="738" y="863" type="curve" smooth="yes"/>
      <point x="706" y="863"/>
      <point x="680" y="838"/>
      <point x="680" y="806" type="curve" smooth="yes"/>
      <point x="680" y="776"/>
      <point x="706" y="749"/>
    </contour>
    <contour>
      <point x="831" y="786" type="curve"/>
      <point x="803" y="736"/>
      <point x="764" y="708"/>
      <point x="704" y="695" type="curve"/>
      <point x="654" y="737"/>
      <point x="635" y="798"/>
      <point x="635" y="872" type="curve"/>
      <point x="583" y="896"/>
      <point x="533" y="874"/>
      <point x="499" y="817" type="curve"/>
      <point x="522" y="720"/>
      <point x="628" y="630"/>
      <point x="701" y="630" type="curve" smooth="yes"/>
      <point x="773" y="630"/>
      <point x="872" y="664"/>
      <point x="923" y="728" type="curve"/>
      <point x="906" y="776"/>
      <point x="870" y="798"/>
    </contour>
  </outline>
</glyph>
<glyph name="dvZero" format="1">
  <advance width="523"/>
  <unicode hex="0966"/>
  <outline>
    <contour>
      <point x="35" y="288" type="curve"/>
      <point x="35" y="206"/>
      <point x="123" y="65"/>
      <point x="216" y="65" type="curve" smooth="yes"/>
      <point x="332" y="65"/>
      <point x="495" y="191"/>
      <point x="505" y="307" type="curve"/>
      <point x="504" y="430"/>
      <point x="470" y="520"/>
      <point x="395" y="604" type="curve"/>
      <point x="333" y="617"/>
      <point x="262" y="591"/>
      <point x="215" y="568" type="curve"/>
      <point x="141" y="524"/>
      <point x="35" y="378"/>
    </contour>
    <contour>
      <point x="330" y="512" type="curve"/>
      <point x="368" y="450"/>
      <point x="383" y="380"/>
      <point x="374" y="320" type="curve"/>
      <point x="354" y="243"/>
      <point x="303" y="191"/>
      <point x="232" y="162" type="curve"/>
      <point x="194" y="199"/>
      <point x="175" y="247"/>
      <point x="173" y="305" type="curve"/>
      <point x="200" y="391"/>
      <point x="239" y="454"/>
      <point x="293" y="501" type="curve"/>
      <point x="306" y="508"/>
      <point x="318" y="511"/>
    </contour>
  </outline>
</glyph>
<glyph name="dvOne" format="1">
  <advance width="515"/>
  <unicode hex="0967"/>
  <outline>
    <contour>
      <point x="425" y="170" type="curve"/>
      <point x="391" y="143"/>
      <point x="324" y="104"/>
      <point x="297" y="104" type="curve" smooth="yes"/>
      <point x="288" y="104"/>
      <point x="283" y="111"/>
      <point x="283" y="121" type="curve" smooth="yes"/>
      <point x="282" y="164"/>
      <point x="476" y="428"/>
      <point x="474" y="511" type="curve" smooth="yes"/>
      <point x="473" y="572"/>
      <point x="403" y="664"/>
      <point x="323" y="663" type="curve" smooth="yes"/>
      <point x="207" y="664"/>
      <point x="96" y="559"/>
      <point x="65" y="481" type="curve"/>
      <point x="70" y="428"/>
      <point x="114" y="380"/>
      <point x="201" y="347" type="curve"/>
      <point x="267" y="368"/>
      <point x="340" y="408"/>
      <point x="378" y="430" type="curve"/>
      <point x="349" y="466" type="line"/>
      <point x="307" y="447"/>
      <point x="286" y="437"/>
      <point x="243" y="426" type="curve"/>
      <point x="223" y="436"/>
      <point x="212" y="453"/>
      <point x="210" y="477" type="curve"/>
      <point x="229" y="519"/>
      <point x="284" y="563"/>
      <point x="309" y="563" type="curve" smooth="yes"/>
      <point x="323" y="563"/>
      <point x="331" y="536"/>
      <point x="332" y="511" type="curve" smooth="yes"/>
      <point x="332" y="475"/>
      <point x="307" y="436"/>
      <point x="283" y="401" type="curve"/>
      <point x="302" y="371" type="line"/>
      <point x="248" y="328" type="line"/>
      <point x="204" y="244"/>
      <point x="122" y="148"/>
      <point x="121" y="111" type="curve" smooth="yes"/>
      <point x="121" y="59"/>
      <point x="162" y="17"/>
      <point x="271" y="0" type="curve"/>
      <point x="348" y="28"/>
      <point x="419" y="80"/>
      <point x="466" y="129" type="curve"/>
      <point x="464" y="151"/>
      <point x="456" y="170"/>
    </contour>
  </outline>
</glyph>
<glyph name="dvTwo" format="1">
  <advance width="544"/>
  <unicode hex="0968"/>
  <outline>
    <contour>
      <point x="272" y="-73" type="curve"/>
      <point x="345" y="-78"/>
      <point x="402" y="-37"/>
      <point x="400" y="18" type="curve"/>
      <point x="315" y="73"/>
      <point x="237" y="191"/>
      <point x="198" y="342" type="curve"/>
      <point x="147" y="375"/>
      <point x="52" y="342"/>
      <point x="26" y="305" type="curve"/>
      <point x="16" y="265"/>
      <point x="35" y="222"/>
      <point x="89" y="175" type="curve"/>
      <point x="271" y="185"/>
      <point x="545" y="332"/>
      <point x="546" y="463" type="curve" smooth="yes"/>
      <point x="547" y="533"/>
      <point x="445" y="663"/>
      <point x="332" y="663" type="curve" smooth="yes"/>
      <point x="262" y="663"/>
      <point x="183" y="637"/>
      <point x="112" y="582" type="curve"/>
      <point x="97" y="539"/>
      <point x="117" y="497"/>
      <point x="199" y="471" type="curve"/>
      <point x="239" y="514"/>
      <point x="279" y="543"/>
      <point x="327" y="555" type="curve"/>
      <point x="377" y="532"/>
      <point x="408" y="493"/>
      <point x="415" y="446" type="curve"/>
      <point x="360" y="341"/>
      <point x="244" y="294"/>
      <point x="138" y="262" type="curve"/>
      <point x="152" y="165"/>
      <point x="179" y="55"/>
    </contour>
  </outline>
</glyph>
<glyph name="dvThree" format="1">
  <advance width="559"/>
  <unicode hex="0969"/>
  <outline>
    <contour>
      <point x="238" y="22" type="line"/>
      <point x="361" y="41"/>
      <point x="509" y="136"/>
      <point x="509" y="235" type="curve" smooth="yes"/>
      <point x="509" y="285"/>
      <point x="477" y="332"/>
      <point x="379" y="350" type="curve"/>
      <point x="375" y="359" type="line"/>
      <point x="472" y="399"/>
      <point x="536" y="452"/>
      <point x="554" y="538" type="curve"/>
      <point x="525" y="599"/>
      <point x="489" y="640"/>
      <point x="421" y="663" type="curve"/>
      <point x="326" y="668"/>
      <point x="254" y="651"/>
      <point x="171" y="610" type="curve"/>
      <point x="144" y="562"/>
      <point x="176" y="513"/>
      <point x="242" y="491" type="curve"/>
      <point x="294" y="529"/>
      <point x="337" y="548"/>
      <point x="394" y="554" type="curve"/>
      <point x="407" y="547"/>
      <point x="412" y="540"/>
      <point x="418" y="532" type="curve"/>
      <point x="404" y="472"/>
      <point x="378" y="436"/>
      <point x="299" y="401" type="curve"/>
      <point x="261" y="401"/>
      <point x="243" y="405"/>
      <point x="210" y="406" type="curve"/>
      <point x="174" y="376"/>
      <point x="185" y="296"/>
      <point x="249" y="253" type="curve"/>
      <point x="279" y="267"/>
      <point x="299" y="274"/>
      <point x="326" y="285" type="curve"/>
      <point x="361" y="271"/>
      <point x="378" y="251"/>
      <point x="380" y="225" type="curve" smooth="yes"/>
      <point x="372" y="185"/>
      <point x="321" y="144"/>
      <point x="247" y="113" type="curve"/>
      <point x="214" y="149"/>
      <point x="186" y="191"/>
      <point x="162" y="232" type="curve"/>
      <point x="118" y="251"/>
      <point x="65" y="221"/>
      <point x="17" y="170" type="curve"/>
      <point x="60" y="55"/>
      <point x="99" y="-73"/>
      <point x="121" y="-190" type="curve"/>
      <point x="206" y="-200"/>
      <point x="247" y="-177"/>
      <point x="255" y="-141" type="curve"/>
      <point x="233" y="-57"/>
      <point x="198" y="2"/>
      <point x="158" y="91" type="curve"/>
      <point x="168" y="101" type="line"/>
    </contour>
  </outline>
</glyph>
<glyph name="dvFour" format="1">
  <advance width="556"/>
  <unicode hex="096A"/>
  <outline>
    <contour>
      <point x="66" y="558" type="curve"/>
      <point x="213" y="469"/>
      <point x="314" y="358"/>
      <point x="320" y="130" type="curve"/>
      <point x="306" y="112"/>
      <point x="292" y="103"/>
      <point x="271" y="95" type="curve"/>
      <point x="235" y="115"/>
      <point x="210" y="146"/>
      <point x="202" y="182" type="curve"/>
      <point x="290" y="381"/>
      <point x="425" y="482"/>
      <point x="610" y="619" type="curve"/>
      <point x="609" y="641"/>
      <point x="603" y="662"/>
      <point x="573" y="661" type="curve"/>
      <point x="426" y="571"/>
      <point x="200" y="398"/>
      <point x="77" y="192" type="curve"/>
      <point x="72" y="102"/>
      <point x="141" y="25"/>
      <point x="244" y="0" type="curve"/>
      <point x="357" y="28"/>
      <point x="406" y="75"/>
      <point x="431" y="136" type="curve"/>
      <point x="436" y="359"/>
      <point x="332" y="571"/>
      <point x="174" y="660" type="curve"/>
      <point x="116" y="659"/>
      <point x="91" y="628"/>
    </contour>
  </outline>
</glyph>
<glyph name="dvFive" format="1">
  <advance width="526"/>
  <unicode hex="096B"/>
  <outline>
    <contour>
      <point x="398" y="303" type="curve"/>
      <point x="409" y="299" type="line"/>
      <point x="381" y="199"/>
      <point x="310" y="25"/>
      <point x="247" y="-102" type="curve"/>
      <point x="248" y="-136"/>
      <point x="277" y="-158"/>
      <point x="335" y="-158" type="curve"/>
      <point x="399" y="-25"/>
      <point x="491" y="202"/>
      <point x="531" y="330" type="curve"/>
      <point x="525" y="393"/>
      <point x="463" y="417"/>
      <point x="367" y="406" type="curve"/>
      <point x="333" y="352"/>
      <point x="286" y="282"/>
      <point x="220" y="198" type="curve"/>
      <point x="189" y="219"/>
      <point x="173" y="247"/>
      <point x="173" y="286" type="curve" smooth="yes"/>
      <point x="173" y="382"/>
      <point x="315" y="515"/>
      <point x="461" y="606" type="curve"/>
      <point x="456" y="637"/>
      <point x="437" y="653"/>
      <point x="399" y="658" type="curve"/>
      <point x="193" y="566"/>
      <point x="23" y="411"/>
      <point x="20" y="284" type="curve" smooth="yes"/>
      <point x="18" y="168"/>
      <point x="103" y="95"/>
      <point x="248" y="77" type="curve"/>
      <point x="311" y="178"/>
      <point x="364" y="254"/>
    </contour>
  </outline>
</glyph>
<glyph name="dvSix" format="1">
  <advance width="564"/>
  <unicode hex="096C"/>
  <outline>
    <contour>
      <point x="258" y="15" type="curve"/>
      <point x="344" y="101" type="line"/>
      <point x="353" y="91" type="line"/>
      <point x="324" y="23"/>
      <point x="283" y="-68"/>
      <point x="244" y="-141" type="curve"/>
      <point x="240" y="-175"/>
      <point x="273" y="-198"/>
      <point x="358" y="-194" type="curve"/>
      <point x="403" y="-82"/>
      <point x="441" y="46"/>
      <point x="495" y="165" type="curve"/>
      <point x="467" y="212"/>
      <point x="422" y="241"/>
      <point x="369" y="227" type="curve"/>
      <point x="340" y="179"/>
      <point x="304" y="144"/>
      <point x="260" y="106" type="curve"/>
      <point x="217" y="136"/>
      <point x="187" y="174"/>
      <point x="190" y="215" type="curve" smooth="yes"/>
      <point x="197" y="246"/>
      <point x="209" y="269"/>
      <point x="255" y="296" type="curve"/>
      <point x="284" y="287"/>
      <point x="300" y="281"/>
      <point x="327" y="267" type="curve"/>
      <point x="391" y="314"/>
      <point x="422" y="396"/>
      <point x="382" y="415" type="curve"/>
      <point x="354" y="411"/>
      <point x="335" y="406"/>
      <point x="303" y="400" type="curve"/>
      <point x="240" y="442"/>
      <point x="227" y="476"/>
      <point x="236" y="532" type="curve"/>
      <point x="243" y="540"/>
      <point x="251" y="547"/>
      <point x="266" y="554" type="curve"/>
      <point x="320" y="548"/>
      <point x="357" y="529"/>
      <point x="395" y="491" type="curve"/>
      <point x="470" y="513"/>
      <point x="520" y="562"/>
      <point x="509" y="610" type="curve"/>
      <point x="441" y="651"/>
      <point x="374" y="668"/>
      <point x="269" y="661" type="curve"/>
      <point x="201" y="640"/>
      <point x="152" y="599"/>
      <point x="112" y="549" type="curve"/>
      <point x="95" y="450"/>
      <point x="150" y="405"/>
      <point x="224" y="366" type="curve"/>
      <point x="217" y="357" type="line"/>
      <point x="115" y="337"/>
      <point x="75" y="275"/>
      <point x="60" y="220" type="curve" smooth="yes"/>
      <point x="34" y="130"/>
      <point x="132" y="35"/>
    </contour>
  </outline>
</glyph>
<glyph name="dvSeven" format="1">
  <advance width="674"/>
  <unicode hex="096D"/>
  <outline>
    <contour>
      <point x="597" y="361" type="line"/>
      <point x="541" y="343"/>
      <point x="494" y="329"/>
      <point x="457" y="319" type="curve"/>
      <point x="408" y="349"/>
      <point x="411" y="432"/>
      <point x="442" y="459" type="curve"/>
      <point x="460" y="464" type="line"/>
      <point x="511" y="440"/>
      <point x="535" y="405"/>
      <point x="546" y="340" type="curve"/>
      <point x="524" y="300" type="line"/>
      <point x="542" y="273" type="line"/>
      <point x="494" y="244" type="line"/>
      <point x="429" y="156"/>
      <point x="361" y="104"/>
      <point x="264" y="68" type="curve"/>
      <point x="129" y="227"/>
      <point x="208" y="469"/>
      <point x="271" y="566" type="curve"/>
      <point x="258" y="631"/>
      <point x="176" y="634"/>
      <point x="113" y="602" type="curve"/>
      <point x="9" y="421"/>
      <point x="19" y="59"/>
      <point x="246" y="-13" type="curve"/>
      <point x="440" y="-11"/>
      <point x="634" y="196"/>
      <point x="670" y="357" type="curve"/>
      <point x="667" y="445"/>
      <point x="615" y="520"/>
      <point x="513" y="555" type="curve"/>
      <point x="425" y="551"/>
      <point x="352" y="516"/>
      <point x="312" y="466" type="curve"/>
      <point x="274" y="397"/>
      <point x="276" y="300"/>
      <point x="424" y="236" type="curve"/>
      <point x="497" y="265"/>
      <point x="574" y="307"/>
      <point x="609" y="327" type="curve"/>
    </contour>
  </outline>
</glyph>
<glyph name="dvEight" format="1">
  <advance width="550"/>
  <unicode hex="096E"/>
  <outline>
    <contour>
      <point x="493" y="279" type="curve"/>
      <point x="442" y="212"/>
      <point x="376" y="140"/>
      <point x="293" y="100" type="curve"/>
      <point x="220" y="122"/>
      <point x="180" y="173"/>
      <point x="171" y="237" type="curve"/>
      <point x="245" y="366"/>
      <point x="362" y="493"/>
      <point x="491" y="599" type="curve"/>
      <point x="485" y="635"/>
      <point x="472" y="654"/>
      <point x="429" y="648" type="curve"/>
      <point x="317" y="569"/>
      <point x="107" y="389"/>
      <point x="20" y="249" type="curve"/>
      <point x="27" y="135"/>
      <point x="148" y="4"/>
      <point x="274" y="4" type="curve"/>
      <point x="365" y="4"/>
      <point x="510" y="168"/>
      <point x="554" y="237" type="curve"/>
      <point x="549" y="265"/>
      <point x="538" y="277"/>
    </contour>
  </outline>
</glyph>
<glyph name="dvNine" format="1">
  <advance width="481"/>
  <unicode hex="096F"/>
  <outline>
    <contour>
      <point x="352" y="193" type="curve"/>
      <point x="324" y="258"/>
      <point x="235" y="373"/>
      <point x="205" y="447" type="curve"/>
      <point x="222" y="502"/>
      <point x="267" y="537"/>
      <point x="310" y="542" type="curve"/>
      <point x="339" y="525"/>
      <point x="342" y="466"/>
      <point x="324" y="423" type="curve"/>
      <point x="209" y="348" type="line"/>
      <point x="248" y="303" type="line"/>
      <point x="415" y="396" type="line"/>
      <point x="479" y="527"/>
      <point x="439" y="654"/>
      <point x="310" y="654" type="curve" smooth="yes"/>
      <point x="212" y="654"/>
      <point x="73" y="540"/>
      <point x="73" y="460" type="curve" smooth="yes"/>
      <point x="72" y="391"/>
      <point x="202" y="265"/>
      <point x="246" y="155" type="curve"/>
      <point x="242" y="137" type="line"/>
      <point x="196" y="76"/>
      <point x="110" y="25"/>
      <point x="19" y="-16" type="curve"/>
      <point x="6" y="-41"/>
      <point x="17" y="-76"/>
      <point x="59" y="-83" type="curve"/>
      <point x="100" y="-70"/>
      <point x="239" y="7"/>
      <point x="323" y="76" type="curve"/>
      <point x="359" y="115"/>
      <point x="369" y="161"/>
    </contour>
  </outline>
</glyph>
<glyph name="indianrupee" format="1">
  <advance width="644"/>
  <unicode hex="20B9"/>
  <outline>
    <contour>
      <point x="83" y="305" type="curve"/>
      <point x="113" y="196"/>
      <point x="200" y="86"/>
      <point x="300" y="0" type="curve"/>
      <point x="410" y="1"/>
      <point x="457" y="70"/>
      <point x="439" y="146" type="curve"/>
      <point x="252" y="222" type="line"/>
      <point x="229" y="297" type="line"/>
      <point x="393" y="306"/>
      <point x="517" y="406"/>
      <point x="517" y="545" type="curve" smooth="yes"/>
      <point x="517" y="631"/>
      <point x="472" y="749"/>
      <point x="362" y="749" type="curve" smooth="yes"/>
      <point x="304" y="749"/>
      <point x="266" y="719"/>
      <point x="236" y="680" type="curve"/>
      <point x="314" y="664"/>
      <point x="348" y="606"/>
      <point x="348" y="533" type="curve" smooth="yes"/>
      <point x="348" y="476"/>
      <point x="325" y="420"/>
      <point x="270" y="382" type="curve"/>
      <point x="218" y="372"/>
      <point x="184" y="376"/>
      <point x="162" y="384" type="curve"/>
      <point x="116" y="371"/>
      <point x="105" y="354"/>
    </contour>
    <contour>
      <point x="679" y="726" type="curve"/>
      <point x="395" y="708" type="line"/>
      <point x="118" y="713" type="line"/>
      <point x="100" y="680"/>
      <point x="96" y="657"/>
      <point x="108" y="640" type="curve"/>
      <point x="666" y="650" type="line"/>
      <point x="690" y="686"/>
      <point x="694" y="715"/>
    </contour>
    <contour>
      <point x="650" y="562" type="curve"/>
      <point x="367" y="543" type="line"/>
      <point x="89" y="549" type="line"/>
      <point x="72" y="516"/>
      <point x="67" y="493"/>
      <point x="80" y="475" type="curve"/>
      <point x="638" y="485" type="line"/>
      <point x="661" y="522"/>
      <point x="666" y="551"/>
    </contour>
  </outline>
</glyph>
<glyph name="fl" format="1">
  <advance width="773"/>
  <unicode hex="FB02"/>
  <outline>
    <contour>
      <point x="207" y="462" type="line"/>
      <point x="47" y="464" type="line"/>
      <point x="19" y="422"/>
      <point x="19" y="393"/>
      <point x="48" y="361" type="curve"/>
      <point x="294" y="407" type="line"/>
      <point x="486" y="415" type="line"/>
      <point x="511" y="462"/>
      <point x="511" y="494"/>
      <point x="486" y="515" type="curve"/>
    </contour>
    <contour>
      <point x="761" y="724" type="line"/>
      <point x="706" y="826"/>
      <point x="637" y="862"/>
      <point x="472" y="891" type="curve"/>
      <point x="340" y="861"/>
      <point x="244" y="807"/>
      <point x="169" y="707" type="curve"/>
      <point x="193" y="462" type="line"/>
      <point x="164" y="324"/>
      <point x="115" y="175"/>
      <point x="63" y="47" type="curve"/>
      <point x="89" y="3"/>
      <point x="213" y="-17"/>
      <point x="274" y="22" type="curve"/>
      <point x="305" y="217"/>
      <point x="333" y="575"/>
      <point x="328" y="704" type="curve"/>
      <point x="388" y="766"/>
      <point x="474" y="808"/>
      <point x="572" y="761" type="curve"/>
      <point x="588" y="539" type="line"/>
      <point x="564" y="378"/>
      <point x="525" y="216"/>
      <point x="464" y="49" type="curve"/>
      <point x="487" y="3"/>
      <point x="627" y="-17"/>
      <point x="682" y="24" type="curve"/>
      <point x="699" y="208"/>
      <point x="711" y="407"/>
      <point x="725" y="589" type="curve"/>
    </contour>
  </outline>
</glyph>
<glyph name="dvCH_NA" format="1">
  <advance width="1497"/>
  <outline>
    <contour>
      <point x="882" y="567" type="line"/>
      <point x="898" y="578"/>
      <point x="906" y="595"/>
      <point x="910" y="611" type="curve"/>
      <point x="898" y="625" type="line"/>
      <point x="15" y="625" type="line"/>
      <point x="-1" y="614"/>
      <point x="-13" y="597"/>
      <point x="-20" y="584" type="curve"/>
      <point x="-1" y="567" type="line"/>
    </contour>
    <contour>
      <point x="673" y="83" type="curve"/>
      <point x="687" y="187"/>
      <point x="545" y="308"/>
      <point x="553" y="400" type="curve" smooth="yes"/>
      <point x="557" y="411"/>
      <point x="564" y="418"/>
      <point x="572" y="420" type="curve"/>
      <point x="589" y="415"/>
      <point x="620" y="396"/>
      <point x="630" y="374" type="curve" smooth="yes"/>
      <point x="596" y="288"/>
      <point x="409" y="164"/>
      <point x="256" y="137" type="curve"/>
      <point x="247" y="146" type="line"/>
      <point x="287" y="197"/>
      <point x="339" y="253"/>
      <point x="389" y="288" type="curve"/>
      <point x="408" y="347"/>
      <point x="372" y="398"/>
      <point x="299" y="431" type="curve"/>
      <point x="268" y="422"/>
      <point x="223" y="406"/>
      <point x="191" y="401" type="curve"/>
      <point x="183" y="412" type="line"/>
      <point x="234" y="459"/>
      <point x="329" y="530"/>
      <point x="424" y="567" type="curve"/>
      <point x="376" y="617" type="line"/>
      <point x="240" y="586"/>
      <point x="114" y="522"/>
      <point x="35" y="453" type="curve"/>
      <point x="12" y="396"/>
      <point x="63" y="330"/>
      <point x="129" y="300" type="curve"/>
      <point x="174" y="311"/>
      <point x="222" y="326"/>
      <point x="255" y="339" type="curve"/>
      <point x="262" y="329" type="line"/>
      <point x="190" y="286"/>
      <point x="103" y="220"/>
      <point x="86" y="159" type="curve"/>
      <point x="86" y="91"/>
      <point x="155" y="41"/>
      <point x="232" y="20" type="curve"/>
      <point x="418" y="45"/>
      <point x="740" y="271"/>
      <point x="742" y="378" type="curve" smooth="yes"/>
      <point x="743" y="440"/>
      <point x="644" y="510"/>
      <point x="577" y="529" type="curve"/>
      <point x="525" y="524"/>
      <point x="468" y="483"/>
      <point x="439" y="441" type="curve"/>
      <point x="408" y="309"/>
      <point x="549" y="183"/>
      <point x="554" y="107" type="curve"/>
      <point x="520" y="52"/>
      <point x="428" y="11"/>
      <point x="355" y="-21" type="curve"/>
      <point x="330" y="-66"/>
      <point x="351" y="-115"/>
      <point x="436" y="-155" type="curve"/>
      <point x="543" y="-95"/>
      <point x="661" y="-9"/>
    </contour>
    <contour>
      <point x="1625" y="567" type="line"/>
      <point x="1641" y="578"/>
      <point x="1649" y="595"/>
      <point x="1653" y="611" type="curve"/>
      <point x="1641" y="625" type="line"/>
      <point x="795" y="625" type="line"/>
      <point x="779" y="614"/>
      <point x="768" y="597"/>
      <point x="761" y="584" type="curve"/>
      <point x="779" y="567" type="line"/>
    </contour>
    <contour>
      <point x="1477" y="469" type="line"/>
      <point x="1450" y="514"/>
      <point x="1401" y="533"/>
      <point x="1287" y="523" type="curve"/>
      <point x="1259" y="440" type="line"/>
      <point x="1270" y="434" type="line"/>
      <point x="1182" y="52" type="line"/>
      <point x="1250" y="-2"/>
      <point x="1351" y="-13"/>
      <point x="1391" y="18" type="curve"/>
      <point x="1402" y="356" type="line"/>
    </contour>
    <contour>
      <point x="960" y="331" type="line"/>
      <point x="983" y="289"/>
      <point x="992" y="240"/>
      <point x="979" y="196" type="curve"/>
      <point x="968" y="190" type="line"/>
      <point x="927" y="210"/>
      <point x="910" y="232"/>
      <point x="890" y="274" type="curve"/>
      <point x="877" y="247" type="line"/>
      <point x="1001" y="314"/>
      <point x="1166" y="387"/>
      <point x="1313" y="468" type="curve"/>
      <point x="1287" y="523" type="line"/>
      <point x="1162" y="451"/>
      <point x="964" y="363"/>
      <point x="840" y="316" type="curve"/>
      <point x="809" y="295"/>
      <point x="794" y="252"/>
      <point x="801" y="199" type="curve"/>
      <point x="838" y="147"/>
      <point x="901" y="115"/>
      <point x="975" y="100" type="curve"/>
      <point x="1028" y="100"/>
      <point x="1098" y="125"/>
      <point x="1115" y="162" type="curve"/>
      <point x="1132" y="228"/>
      <point x="1134" y="313"/>
      <point x="1107" y="383" type="curve"/>
    </contour>
  </outline>
</glyph>
<glyph name="dvCH_R_YA" format="1">
  <advance width="1444"/>
  <outline>
    <contour>
      <point x="377" y="-225" type="curve"/>
      <point x="327" y="-173"/>
      <point x="313" y="-130"/>
      <point x="300" y="-45" type="curve"/>
      <point x="261" y="-10"/>
      <point x="238" y="-1"/>
      <point x="179" y="-5" type="curve"/>
      <point x="113" y="-46"/>
      <point x="36" y="-128"/>
      <point x="-19" y="-220" type="curve"/>
      <point x="-18" y="-257"/>
      <point x="14" y="-294"/>
      <point x="93" y="-286" type="curve"/>
      <point x="125" y="-196"/>
      <point x="157" y="-141"/>
      <point x="212" y="-89" type="curve"/>
      <point x="219" y="-93" type="line"/>
      <point x="221" y="-164"/>
      <point x="253" y="-234"/>
      <point x="307" y="-288" type="curve"/>
      <point x="354" y="-282"/>
      <point x="377" y="-262"/>
    </contour>
    <contour>
      <point x="1459" y="604" type="line"/>
      <point x="1433" y="648"/>
      <point x="1385" y="666"/>
      <point x="1268" y="655" type="curve"/>
      <point x="1185" y="282" type="line"/>
      <point x="1210" y="256" type="line"/>
      <point x="1166" y="192" type="line"/>
      <point x="1133" y="52" type="line"/>
      <point x="1201" y="-2"/>
      <point x="1302" y="-13"/>
      <point x="1342" y="18" type="curve"/>
      <point x="1366" y="426" type="line"/>
    </contour>
    <contour>
      <point x="1572" y="567" type="line"/>
      <point x="1588" y="578"/>
      <point x="1596" y="595"/>
      <point x="1600" y="611" type="curve"/>
      <point x="1588" y="625" type="line"/>
      <point x="716" y="625" type="line"/>
      <point x="700" y="614"/>
      <point x="688" y="597"/>
      <point x="682" y="584" type="curve"/>
      <point x="700" y="567" type="line"/>
    </contour>
    <contour>
      <point x="794" y="570" type="curve"/>
      <point x="771" y="527"/>
      <point x="809" y="481"/>
      <point x="881" y="463" type="curve"/>
      <point x="906" y="479"/>
      <point x="932" y="492"/>
      <point x="959" y="496" type="curve" smooth="yes"/>
      <point x="980" y="499"/>
      <point x="1003" y="497"/>
      <point x="1018" y="487" type="curve" smooth="yes"/>
      <point x="1004" y="373"/>
      <point x="735" y="329"/>
      <point x="735" y="257" type="curve" smooth="yes"/>
      <point x="735" y="187"/>
      <point x="859" y="102"/>
      <point x="931" y="102" type="curve" smooth="yes"/>
      <point x="1002" y="102"/>
      <point x="1193" y="237"/>
      <point x="1255" y="338" type="curve"/>
      <point x="1207" y="379" type="line"/>
      <point x="1149" y="303"/>
      <point x="1070" y="247"/>
      <point x="998" y="218" type="curve" smooth="yes"/>
      <point x="970" y="219"/>
      <point x="928" y="248"/>
      <point x="934" y="280" type="curve" smooth="yes"/>
      <point x="1001" y="335"/>
      <point x="1158" y="427"/>
      <point x="1158" y="512" type="curve" smooth="yes"/>
      <point x="1158" y="561"/>
      <point x="1078" y="625"/>
      <point x="980" y="625" type="curve" smooth="yes"/>
      <point x="926" y="625"/>
      <point x="842" y="606"/>
    </contour>
    <contour>
      <point x="882" y="567" type="line"/>
      <point x="898" y="578"/>
      <point x="906" y="595"/>
      <point x="910" y="611" type="curve"/>
      <point x="898" y="625" type="line"/>
      <point x="15" y="625" type="line"/>
      <point x="-1" y="614"/>
      <point x="-13" y="597"/>
      <point x="-20" y="584" type="curve"/>
      <point x="-1" y="567" type="line"/>
    </contour>
    <contour>
      <point x="673" y="83" type="curve"/>
      <point x="687" y="187"/>
      <point x="545" y="308"/>
      <point x="553" y="400" type="curve" smooth="yes"/>
      <point x="557" y="411"/>
      <point x="564" y="418"/>
      <point x="572" y="420" type="curve"/>
      <point x="589" y="415"/>
      <point x="620" y="396"/>
      <point x="630" y="374" type="curve" smooth="yes"/>
      <point x="596" y="288"/>
      <point x="409" y="164"/>
      <point x="256" y="137" type="curve"/>
      <point x="247" y="146" type="line"/>
      <point x="287" y="197"/>
      <point x="339" y="253"/>
      <point x="389" y="288" type="curve"/>
      <point x="408" y="347"/>
      <point x="372" y="398"/>
      <point x="299" y="431" type="curve"/>
      <point x="268" y="422"/>
      <point x="223" y="406"/>
      <point x="191" y="401" type="curve"/>
      <point x="183" y="412" type="line"/>
      <point x="234" y="459"/>
      <point x="329" y="530"/>
      <point x="424" y="567" type="curve"/>
      <point x="376" y="617" type="line"/>
      <point x="240" y="586"/>
      <point x="114" y="522"/>
      <point x="35" y="453" type="curve"/>
      <point x="12" y="396"/>
      <point x="63" y="330"/>
      <point x="129" y="300" type="curve"/>
      <point x="174" y="311"/>
      <point x="222" y="326"/>
      <point x="255" y="339" type="curve"/>
      <point x="262" y="329" type="line"/>
      <point x="190" y="286"/>
      <point x="103" y="220"/>
      <point x="86" y="159" type="curve"/>
      <point x="86" y="91"/>
      <point x="155" y="41"/>
      <point x="232" y="20" type="curve"/>
      <point x="418" y="45"/>
      <point x="740" y="271"/>
      <point x="742" y="378" type="curve" smooth="yes"/>
      <point x="743" y="440"/>
      <point x="644" y="510"/>
      <point x="577" y="529" type="curve"/>
      <point x="525" y="524"/>
      <point x="468" y="483"/>
      <point x="439" y="441" type="curve"/>
      <point x="408" y="309"/>
      <point x="549" y="183"/>
      <point x="554" y="107" type="curve"/>
      <point x="520" y="52"/>
      <point x="428" y="11"/>
      <point x="355" y="-21" type="curve"/>
      <point x="330" y="-66"/>
      <point x="351" y="-115"/>
      <point x="436" y="-155" type="curve"/>
      <point x="543" y="-95"/>
      <point x="661" y="-9"/>
    </contour>
  </outline>
</glyph>
<glyph name="dvCH_VA" format="1">
  <advance width="789"/>
  <outline>
    <contour>
      <point x="387" y="-260" type="move" name="blwm"/>
    </contour>
    <contour>
      <point x="547" y="634" type="move" name="abvm_Ekaar"/>
    </contour>
    <contour>
      <point x="882" y="567" type="line"/>
      <point x="898" y="578"/>
      <point x="906" y="595"/>
      <point x="910" y="611" type="curve"/>
      <point x="898" y="625" type="line"/>
      <point x="15" y="625" type="line"/>
      <point x="-1" y="614"/>
      <point x="-13" y="597"/>
      <point x="-20" y="584" type="curve"/>
      <point x="-1" y="567" type="line"/>
    </contour>
    <contour>
      <point x="631" y="112" type="curve"/>
      <point x="611" y="258"/>
      <point x="527" y="375"/>
      <point x="545" y="456" type="curve"/>
      <point x="549" y="466"/>
      <point x="556" y="473"/>
      <point x="564" y="475" type="curve"/>
      <point x="580" y="471"/>
      <point x="610" y="452"/>
      <point x="619" y="431" type="curve"/>
      <point x="581" y="346"/>
      <point x="421" y="209"/>
      <point x="254" y="169" type="curve"/>
      <point x="247" y="177" type="line"/>
      <point x="282" y="225"/>
      <point x="327" y="268"/>
      <point x="377" y="302" type="curve"/>
      <point x="391" y="383"/>
      <point x="346" y="413"/>
      <point x="296" y="435" type="curve"/>
      <point x="267" y="426"/>
      <point x="231" y="419"/>
      <point x="200" y="414" type="curve"/>
      <point x="195" y="423" type="line"/>
      <point x="247" y="470"/>
      <point x="326" y="531"/>
      <point x="422" y="567" type="curve"/>
      <point x="376" y="618" type="line"/>
      <point x="239" y="587"/>
      <point x="129" y="523"/>
      <point x="45" y="455" type="curve"/>
      <point x="21" y="399"/>
      <point x="66" y="342"/>
      <point x="130" y="312" type="curve"/>
      <point x="173" y="323"/>
      <point x="218" y="338"/>
      <point x="251" y="349" type="curve"/>
      <point x="256" y="340" type="line"/>
      <point x="187" y="300"/>
      <point x="102" y="239"/>
      <point x="84" y="184" type="curve"/>
      <point x="81" y="119"/>
      <point x="145" y="73"/>
      <point x="219" y="53" type="curve"/>
      <point x="426" y="99"/>
      <point x="725" y="329"/>
      <point x="731" y="435" type="curve"/>
      <point x="734" y="496"/>
      <point x="639" y="566"/>
      <point x="572" y="585" type="curve"/>
      <point x="520" y="580"/>
      <point x="463" y="539"/>
      <point x="432" y="497" type="curve"/>
      <point x="407" y="357"/>
      <point x="503" y="278"/>
      <point x="531" y="114" type="curve"/>
      <point x="503" y="8"/>
      <point x="451" y="-149"/>
      <point x="394" y="-252" type="curve"/>
      <point x="396" y="-290"/>
      <point x="437" y="-307"/>
      <point x="492" y="-303" type="curve"/>
      <point x="555" y="-164"/>
      <point x="605" y="-4"/>
    </contour>
    <contour>
      <point x="406" y="82" type="curve"/>
      <point x="287" y="82"/>
      <point x="162" y="-29"/>
      <point x="153" y="-135" type="curve"/>
      <point x="147" y="-214"/>
      <point x="216" y="-265"/>
      <point x="320" y="-266" type="curve"/>
      <point x="384" y="-208"/>
      <point x="444" y="-164"/>
      <point x="501" y="-111" type="curve"/>
      <point x="469" y="-78" type="line"/>
      <point x="426" y="-115"/>
      <point x="366" y="-154"/>
      <point x="326" y="-186" type="curve"/>
      <point x="307" y="-175"/>
      <point x="301" y="-156"/>
      <point x="303" y="-126" type="curve"/>
      <point x="308" y="-75"/>
      <point x="354" y="-16"/>
      <point x="411" y="2" type="curve"/>
      <point x="438" y="-14"/>
      <point x="458" y="-34"/>
      <point x="476" y="-63" type="curve"/>
      <point x="522" y="-32" type="line"/>
      <point x="497" y="10"/>
      <point x="435" y="82"/>
    </contour>
  </outline>
</glyph>
<glyph name="dvDD_NA" format="1">
  <advance width="548"/>
  <outline>
    <contour>
      <point x="280" y="-269" type="move" name="blwm"/>
    </contour>
    <contour>
      <point x="234" y="634" type="move" name="abvm_Ekaar"/>
    </contour>
    <contour>
      <point x="681" y="567" type="line"/>
      <point x="697" y="578"/>
      <point x="705" y="595"/>
      <point x="709" y="611" type="curve"/>
      <point x="697" y="625" type="line"/>
      <point x="12" y="625" type="line"/>
      <point x="-4" y="614"/>
      <point x="-14" y="597"/>
      <point x="-21" y="584" type="curve"/>
      <point x="-4" y="567" type="line"/>
    </contour>
    <contour>
      <point x="327" y="607" type="curve"/>
      <point x="281" y="570" type="line"/>
      <point x="326" y="557"/>
      <point x="372" y="541"/>
      <point x="397" y="519" type="curve"/>
      <point x="394" y="513" type="line"/>
      <point x="326" y="490"/>
      <point x="260" y="483"/>
      <point x="180" y="476" type="curve"/>
      <point x="110" y="438"/>
      <point x="84" y="367"/>
      <point x="116" y="321" type="curve"/>
      <point x="200" y="293"/>
      <point x="294" y="285"/>
      <point x="374" y="261" type="curve"/>
      <point x="375" y="254" type="line"/>
      <point x="300" y="220"/>
      <point x="168" y="213"/>
      <point x="70" y="217" type="curve"/>
      <point x="33" y="189"/>
      <point x="43" y="129"/>
      <point x="102" y="87" type="curve"/>
      <point x="241" y="90"/>
      <point x="406" y="124"/>
      <point x="474" y="163" type="curve"/>
      <point x="516" y="229"/>
      <point x="519" y="285"/>
      <point x="476" y="312" type="curve"/>
      <point x="404" y="331"/>
      <point x="304" y="343"/>
      <point x="239" y="362" type="curve"/>
      <point x="241" y="370" type="line"/>
      <point x="312" y="380"/>
      <point x="393" y="392"/>
      <point x="452" y="414" type="curve"/>
      <point x="492" y="446"/>
      <point x="512" y="506"/>
      <point x="495" y="540" type="curve"/>
      <point x="449" y="578"/>
      <point x="395" y="593"/>
    </contour>
    <contour>
      <point x="337" y="183" type="line"/>
      <point x="301" y="19" type="line"/>
      <point x="321" y="-20" type="line"/>
      <point x="284" y="-50" type="line"/>
      <point x="229" y="-261" type="line"/>
      <point x="283" y="-304"/>
      <point x="363" y="-315"/>
      <point x="398" y="-288" type="curve"/>
      <point x="404" y="1" type="line"/>
      <point x="474" y="178" type="line"/>
    </contour>
    <contour>
      <point x="97" y="-59" type="line"/>
      <point x="114" y="-88"/>
      <point x="124" y="-128"/>
      <point x="116" y="-162" type="curve"/>
      <point x="108" y="-166" type="line"/>
      <point x="77" y="-156"/>
      <point x="55" y="-134"/>
      <point x="37" y="-97" type="curve"/>
      <point x="27" y="-117" type="line"/>
      <point x="144" y="-69"/>
      <point x="256" y="-34"/>
      <point x="369" y="16" type="curve"/>
      <point x="350" y="74" type="line"/>
      <point x="253" y="30"/>
      <point x="141" y="-16"/>
      <point x="1" y="-46" type="curve"/>
      <point x="-22" y="-65"/>
      <point x="-40" y="-96"/>
      <point x="-43" y="-129" type="curve"/>
      <point x="-17" y="-190"/>
      <point x="24" y="-216"/>
      <point x="88" y="-229" type="curve"/>
      <point x="158" y="-220"/>
      <point x="180" y="-205"/>
      <point x="200" y="-173" type="curve"/>
      <point x="215" y="-117"/>
      <point x="212" y="-63"/>
      <point x="186" y="-19" type="curve"/>
    </contour>
  </outline>
</glyph>
<glyph name="dvD_YA" format="1">
  <advance width="757"/>
  <outline>
    <contour>
      <point x="753" y="604" type="line"/>
      <point x="727" y="648"/>
      <point x="679" y="666"/>
      <point x="562" y="655" type="curve"/>
      <point x="475" y="264" type="line"/>
      <point x="501" y="236" type="line"/>
      <point x="457" y="181" type="line"/>
      <point x="428" y="52" type="line"/>
      <point x="495" y="-2"/>
      <point x="596" y="-13"/>
      <point x="636" y="18" type="curve"/>
      <point x="660" y="426" type="line"/>
    </contour>
    <contour>
      <point x="867" y="567" type="line"/>
      <point x="882" y="578"/>
      <point x="890" y="595"/>
      <point x="894" y="611" type="curve"/>
      <point x="882" y="625" type="line"/>
      <point x="14" y="625" type="line"/>
      <point x="-3" y="614"/>
      <point x="-14" y="597"/>
      <point x="-21" y="584" type="curve"/>
      <point x="-3" y="567" type="line"/>
    </contour>
    <contour>
      <point x="205" y="380" type="line"/>
      <point x="259" y="402"/>
      <point x="310" y="429"/>
      <point x="350" y="455" type="curve"/>
      <point x="373" y="482"/>
      <point x="386" y="509"/>
      <point x="375" y="536" type="curve"/>
      <point x="343" y="565"/>
      <point x="303" y="586"/>
      <point x="254" y="603" type="curve"/>
      <point x="204" y="568" type="line"/>
      <point x="230" y="554"/>
      <point x="253" y="538"/>
      <point x="264" y="524" type="curve"/>
      <point x="261" y="516" type="line"/>
      <point x="167" y="448"/>
      <point x="43" y="446"/>
      <point x="43" y="394" type="curve" smooth="yes"/>
      <point x="43" y="346"/>
      <point x="86" y="301"/>
      <point x="137" y="282" type="curve"/>
      <point x="191" y="292"/>
      <point x="234" y="307"/>
      <point x="277" y="323" type="curve"/>
      <point x="283" y="316" type="line"/>
      <point x="184" y="249"/>
      <point x="70" y="227"/>
      <point x="70" y="181" type="curve" smooth="yes"/>
      <point x="70" y="134"/>
      <point x="130" y="84"/>
      <point x="226" y="74" type="curve"/>
      <point x="344" y="119"/>
      <point x="489" y="233"/>
      <point x="547" y="319" type="curve"/>
      <point x="498" y="362" type="line"/>
      <point x="444" y="291"/>
      <point x="356" y="220"/>
      <point x="262" y="184" type="curve"/>
      <point x="254" y="193" type="line"/>
      <point x="301" y="227"/>
      <point x="342" y="257"/>
      <point x="384" y="290" type="curve"/>
      <point x="395" y="350"/>
      <point x="359" y="385"/>
      <point x="314" y="402" type="curve"/>
      <point x="280" y="388"/>
      <point x="253" y="381"/>
      <point x="213" y="370" type="curve"/>
    </contour>
  </outline>
</glyph>
<glyph name="dvD_Y_BHA" format="1">
  <advance width="1137"/>
  <outline>
    <contour>
      <point x="541" y="567" type="line"/>
      <point x="556" y="578"/>
      <point x="564" y="595"/>
      <point x="568" y="611" type="curve"/>
      <point x="556" y="625" type="line"/>
      <point x="14" y="625" type="line"/>
      <point x="-3" y="614"/>
      <point x="-14" y="597"/>
      <point x="-21" y="584" type="curve"/>
      <point x="-3" y="567" type="line"/>
    </contour>
    <contour>
      <point x="434" y="292" type="line"/>
      <point x="386" y="248"/>
      <point x="326" y="208"/>
      <point x="262" y="184" type="curve"/>
      <point x="254" y="193" type="line"/>
      <point x="301" y="227"/>
      <point x="342" y="257"/>
      <point x="384" y="290" type="curve"/>
      <point x="395" y="350"/>
      <point x="359" y="385"/>
      <point x="314" y="402" type="curve"/>
      <point x="280" y="388"/>
      <point x="253" y="381"/>
      <point x="213" y="370" type="curve"/>
      <point x="205" y="380" type="line"/>
      <point x="259" y="402"/>
      <point x="310" y="429"/>
      <point x="350" y="455" type="curve"/>
      <point x="373" y="482"/>
      <point x="386" y="509"/>
      <point x="375" y="536" type="curve"/>
      <point x="343" y="565"/>
      <point x="303" y="586"/>
      <point x="254" y="603" type="curve"/>
      <point x="204" y="568" type="line"/>
      <point x="230" y="554"/>
      <point x="253" y="538"/>
      <point x="264" y="524" type="curve"/>
      <point x="261" y="516" type="line"/>
      <point x="167" y="448"/>
      <point x="43" y="446"/>
      <point x="43" y="394" type="curve" smooth="yes"/>
      <point x="43" y="346"/>
      <point x="86" y="301"/>
      <point x="137" y="282" type="curve"/>
      <point x="191" y="292"/>
      <point x="234" y="307"/>
      <point x="277" y="323" type="curve"/>
      <point x="283" y="316" type="line"/>
      <point x="184" y="249"/>
      <point x="70" y="227"/>
      <point x="70" y="181" type="curve" smooth="yes"/>
      <point x="70" y="134"/>
      <point x="130" y="84"/>
      <point x="226" y="74" type="curve"/>
      <point x="313" y="107"/>
      <point x="412" y="176"/>
      <point x="482" y="244" type="curve"/>
    </contour>
    <contour>
      <point x="1131" y="469" type="line"/>
      <point x="1104" y="514"/>
      <point x="1055" y="533"/>
      <point x="941" y="523" type="curve"/>
      <point x="913" y="440" type="line"/>
      <point x="924" y="434" type="line"/>
      <point x="836" y="52" type="line"/>
      <point x="903" y="-2"/>
      <point x="1004" y="-13"/>
      <point x="1044" y="18" type="curve"/>
      <point x="1056" y="356" type="line"/>
    </contour>
    <contour>
      <point x="1265" y="567" type="line"/>
      <point x="1281" y="578"/>
      <point x="1289" y="595"/>
      <point x="1293" y="611" type="curve"/>
      <point x="1281" y="625" type="line"/>
      <point x="920" y="625" type="line"/>
      <point x="905" y="614"/>
      <point x="894" y="597"/>
      <point x="887" y="584" type="curve"/>
      <point x="905" y="567" type="line"/>
    </contour>
    <contour>
      <point x="687" y="608" type="line"/>
      <point x="685" y="571"/>
      <point x="679" y="523"/>
      <point x="671" y="478" type="curve"/>
      <point x="687" y="452" type="line"/>
      <point x="661" y="420" type="line"/>
      <point x="646" y="343"/>
      <point x="626" y="278"/>
      <point x="599" y="201" type="curve"/>
      <point x="588" y="195" type="line"/>
      <point x="554" y="211"/>
      <point x="529" y="230"/>
      <point x="509" y="270" type="curve"/>
      <point x="489" y="235" type="line"/>
      <point x="657" y="308"/>
      <point x="809" y="382"/>
      <point x="964" y="467" type="curve"/>
      <point x="941" y="523" type="line"/>
      <point x="808" y="447"/>
      <point x="602" y="353"/>
      <point x="451" y="302" type="curve"/>
      <point x="417" y="289"/>
      <point x="404" y="244"/>
      <point x="403" y="214" type="curve"/>
      <point x="432" y="162"/>
      <point x="494" y="114"/>
      <point x="556" y="99" type="curve"/>
      <point x="606" y="93"/>
      <point x="684" y="111"/>
      <point x="724" y="150" type="curve"/>
      <point x="783" y="299"/>
      <point x="829" y="536"/>
      <point x="832" y="677" type="curve"/>
      <point x="808" y="718"/>
      <point x="763" y="740"/>
      <point x="697" y="739" type="curve"/>
      <point x="646" y="689"/>
      <point x="533" y="624"/>
      <point x="466" y="596" type="curve"/>
      <point x="444" y="581"/>
      <point x="433" y="547"/>
      <point x="430" y="518" type="curve" smooth="yes"/>
      <point x="449" y="475"/>
      <point x="497" y="432"/>
      <point x="566" y="411" type="curve"/>
      <point x="711" y="471" type="line"/>
      <point x="690" y="511" type="line"/>
      <point x="583" y="485" type="line"/>
      <point x="569" y="489"/>
      <point x="551" y="514"/>
      <point x="545" y="527" type="curve"/>
      <point x="590" y="554"/>
      <point x="640" y="588"/>
      <point x="677" y="613" type="curve"/>
    </contour>
  </outline>
</glyph>
<glyph name="dvD_Y_RA" format="1">
  <advance width="739"/>
  <outline>
    <contour>
      <point x="867" y="567" type="line"/>
      <point x="882" y="578"/>
      <point x="890" y="595"/>
      <point x="894" y="611" type="curve"/>
      <point x="882" y="625" type="line"/>
      <point x="14" y="625" type="line"/>
      <point x="-3" y="614"/>
      <point x="-14" y="597"/>
      <point x="-21" y="584" type="curve"/>
      <point x="-3" y="567" type="line"/>
    </contour>
    <contour>
      <point x="205" y="387" type="line"/>
      <point x="259" y="409"/>
      <point x="310" y="433"/>
      <point x="350" y="458" type="curve"/>
      <point x="373" y="485"/>
      <point x="386" y="509"/>
      <point x="375" y="536" type="curve"/>
      <point x="343" y="565"/>
      <point x="303" y="586"/>
      <point x="254" y="603" type="curve"/>
      <point x="204" y="568" type="line"/>
      <point x="230" y="554"/>
      <point x="253" y="538"/>
      <point x="264" y="524" type="curve"/>
      <point x="261" y="516" type="line"/>
      <point x="149" y="439"/>
      <point x="43" y="446"/>
      <point x="43" y="390" type="curve" smooth="yes"/>
      <point x="43" y="346"/>
      <point x="86" y="305"/>
      <point x="137" y="285" type="curve"/>
      <point x="191" y="295"/>
      <point x="234" y="311"/>
      <point x="277" y="327" type="curve"/>
      <point x="283" y="319" type="line"/>
      <point x="193" y="258"/>
      <point x="84" y="235"/>
      <point x="84" y="186" type="curve" smooth="yes"/>
      <point x="84" y="144"/>
      <point x="150" y="104"/>
      <point x="226" y="92" type="curve"/>
      <point x="373" y="146"/>
      <point x="516" y="269"/>
      <point x="572" y="354" type="curve"/>
      <point x="523" y="397" type="line"/>
      <point x="473" y="314"/>
      <point x="358" y="218"/>
      <point x="262" y="187" type="curve"/>
      <point x="254" y="197" type="line"/>
      <point x="301" y="231"/>
      <point x="342" y="261"/>
      <point x="384" y="294" type="curve"/>
      <point x="395" y="354"/>
      <point x="359" y="392"/>
      <point x="314" y="409" type="curve"/>
      <point x="280" y="395"/>
      <point x="253" y="388"/>
      <point x="213" y="377" type="curve"/>
    </contour>
    <contour>
      <point x="146" y="30" type="curve"/>
      <point x="128" y="-15"/>
      <point x="152" y="-54"/>
      <point x="216" y="-76" type="curve"/>
      <point x="312" y="-19"/>
      <point x="435" y="72"/>
      <point x="491" y="135" type="curve"/>
      <point x="502" y="128" type="line"/>
      <point x="462" y="41" type="line"/>
      <point x="523" y="-2"/>
      <point x="613" y="-12"/>
      <point x="654" y="18" type="curve"/>
      <point x="678" y="426" type="line"/>
      <point x="771" y="604" type="line"/>
      <point x="746" y="648"/>
      <point x="698" y="666"/>
      <point x="580" y="655" type="curve"/>
      <point x="500" y="297" type="line"/>
      <point x="529" y="270" type="line"/>
      <point x="458" y="171"/>
      <point x="306" y="83"/>
    </contour>
  </outline>
</glyph>
<glyph name="dvEyelash_HA" format="1">
  <advance width="717"/>
  <outline>
    <contour>
      <point x="431" y="567" type="line"/>
      <point x="447" y="578"/>
      <point x="455" y="595"/>
      <point x="459" y="611" type="curve"/>
      <point x="447" y="625" type="line"/>
      <point x="4" y="625" type="line"/>
      <point x="-13" y="614"/>
      <point x="-24" y="597"/>
      <point x="-31" y="584" type="curve"/>
      <point x="-13" y="567" type="line"/>
    </contour>
    <contour>
      <point x="144" y="146" type="curve"/>
      <point x="235" y="160"/>
      <point x="310" y="178"/>
      <point x="389" y="214" type="curve"/>
      <point x="354" y="264" type="line"/>
      <point x="302" y="247"/>
      <point x="244" y="232"/>
      <point x="195" y="224" type="curve"/>
      <point x="179" y="254"/>
      <point x="163" y="285"/>
      <point x="151" y="319" type="curve"/>
      <point x="71" y="325"/>
      <point x="38" y="279"/>
      <point x="30" y="223" type="curve"/>
      <point x="60" y="183"/>
      <point x="105" y="160"/>
    </contour>
    <component base="dvHA" xOffset="211"/>
  </outline>
</glyph>
<glyph name="dvG_NNA" format="1">
  <advance width="1239"/>
  <outline>
    <contour>
      <point x="556" y="567" type="line"/>
      <point x="572" y="578"/>
      <point x="580" y="595"/>
      <point x="584" y="611" type="curve"/>
      <point x="572" y="625" type="line"/>
      <point x="12" y="625" type="line"/>
      <point x="-4" y="614"/>
      <point x="-15" y="597"/>
      <point x="-21" y="584" type="curve"/>
      <point x="-4" y="567" type="line"/>
    </contour>
    <contour>
      <point x="302" y="409" type="line"/>
      <point x="211" y="371"/>
      <point x="119" y="336"/>
      <point x="49" y="315" type="curve"/>
      <point x="12" y="296"/>
      <point x="3" y="258"/>
      <point x="4" y="210" type="curve"/>
      <point x="33" y="159"/>
      <point x="95" y="114"/>
      <point x="157" y="99" type="curve"/>
      <point x="214" y="93"/>
      <point x="290" y="111"/>
      <point x="323" y="150" type="curve"/>
      <point x="371" y="263"/>
      <point x="405" y="470"/>
      <point x="406" y="611" type="curve"/>
      <point x="221" y="587" type="line"/>
      <point x="251" y="484" type="line"/>
      <point x="258" y="390"/>
      <point x="232" y="276"/>
      <point x="199" y="201" type="curve"/>
      <point x="188" y="195" type="line"/>
      <point x="152" y="209"/>
      <point x="124" y="233"/>
      <point x="106" y="273" type="curve"/>
      <point x="80" y="244" type="line"/>
      <point x="159" y="275"/>
      <point x="243" y="310"/>
      <point x="326" y="347" type="curve"/>
    </contour>
    <contour>
      <point x="1394" y="611" type="curve"/>
      <point x="1382" y="625" type="line"/>
      <point x="656" y="625" type="line"/>
      <point x="538" y="555"/>
      <point x="462" y="425"/>
      <point x="462" y="350" type="curve" smooth="yes"/>
      <point x="462" y="266"/>
      <point x="559" y="135"/>
      <point x="650" y="135" type="curve" smooth="yes"/>
      <point x="749" y="135"/>
      <point x="909" y="242"/>
      <point x="921" y="378" type="curve"/>
      <point x="924" y="436"/>
      <point x="904" y="498"/>
      <point x="873" y="567" type="curve"/>
      <point x="1366" y="567" type="line"/>
      <point x="1382" y="578"/>
      <point x="1390" y="595"/>
    </contour>
    <contour>
      <point x="735" y="567" type="line"/>
      <point x="760" y="498"/>
      <point x="774" y="444"/>
      <point x="778" y="381" type="curve"/>
      <point x="760" y="301"/>
      <point x="717" y="261"/>
      <point x="665" y="241" type="curve"/>
      <point x="633" y="263"/>
      <point x="616" y="302"/>
      <point x="611" y="355" type="curve"/>
      <point x="625" y="428"/>
      <point x="668" y="502"/>
      <point x="720" y="567" type="curve"/>
    </contour>
    <contour>
      <point x="1253" y="604" type="line"/>
      <point x="1227" y="648"/>
      <point x="1179" y="666"/>
      <point x="1061" y="655" type="curve"/>
      <point x="927" y="52" type="line"/>
      <point x="994" y="-2"/>
      <point x="1095" y="-13"/>
      <point x="1135" y="18" type="curve"/>
      <point x="1160" y="426" type="line"/>
    </contour>
  </outline>
</glyph>
<glyph name="dvK_NNA" format="1">
  <advance width="1499"/>
  <outline>
    <contour>
      <point x="405" y="427" type="line"/>
      <point x="400" y="423" type="line"/>
      <point x="367" y="463"/>
      <point x="322" y="519"/>
      <point x="294" y="519" type="curve"/>
      <point x="155" y="519"/>
      <point x="15" y="377"/>
      <point x="15" y="250" type="curve" smooth="yes"/>
      <point x="15" y="146"/>
      <point x="111" y="93"/>
      <point x="229" y="92" type="curve"/>
      <point x="280" y="148"/>
      <point x="320" y="188"/>
      <point x="364" y="232" type="curve"/>
      <point x="374" y="220" type="line"/>
      <point x="333" y="153" type="line"/>
      <point x="308" y="52" type="line"/>
      <point x="375" y="-2"/>
      <point x="476" y="-13"/>
      <point x="517" y="18" type="curve"/>
      <point x="534" y="319" type="line"/>
      <point x="544" y="358" type="line"/>
      <point x="507" y="387" type="line"/>
      <point x="551" y="460"/>
      <point x="594" y="529"/>
      <point x="634" y="604" type="curve"/>
      <point x="608" y="648"/>
      <point x="560" y="666"/>
      <point x="443" y="655" type="curve"/>
    </contour>
    <contour>
      <point x="839" y="567" type="line"/>
      <point x="854" y="578"/>
      <point x="862" y="595"/>
      <point x="866" y="611" type="curve"/>
      <point x="854" y="625" type="line"/>
      <point x="-2" y="625" type="line"/>
      <point x="-18" y="614"/>
      <point x="-29" y="597"/>
      <point x="-36" y="584" type="curve"/>
      <point x="-18" y="567" type="line"/>
    </contour>
    <contour>
      <point x="226" y="186" type="curve"/>
      <point x="204" y="197"/>
      <point x="191" y="218"/>
      <point x="191" y="256" type="curve" smooth="yes"/>
      <point x="191" y="323"/>
      <point x="247" y="403"/>
      <point x="307" y="424" type="curve" smooth="yes"/>
      <point x="333" y="410"/>
      <point x="358" y="379"/>
      <point x="383" y="345" type="curve"/>
      <point x="377" y="319" type="line"/>
      <point x="330" y="275"/>
      <point x="271" y="223"/>
    </contour>
    <contour>
      <point x="840" y="375" type="line"/>
      <point x="822" y="443"/>
      <point x="763" y="512"/>
      <point x="650" y="505" type="curve"/>
      <point x="588" y="445"/>
      <point x="521" y="379"/>
      <point x="460" y="325" type="curve"/>
      <point x="499" y="283" type="line"/>
      <point x="548" y="325"/>
      <point x="612" y="376"/>
      <point x="649" y="404" type="curve"/>
      <point x="688" y="404"/>
      <point x="725" y="364"/>
      <point x="728" y="313" type="curve"/>
    </contour>
    <contour>
      <point x="1653" y="611" type="curve"/>
      <point x="1641" y="625" type="line"/>
      <point x="915" y="625" type="line"/>
      <point x="797" y="555"/>
      <point x="721" y="425"/>
      <point x="721" y="350" type="curve" smooth="yes"/>
      <point x="721" y="266"/>
      <point x="818" y="135"/>
      <point x="909" y="135" type="curve" smooth="yes"/>
      <point x="1008" y="135"/>
      <point x="1168" y="242"/>
      <point x="1180" y="378" type="curve"/>
      <point x="1183" y="436"/>
      <point x="1163" y="498"/>
      <point x="1132" y="567" type="curve"/>
      <point x="1625" y="567" type="line"/>
      <point x="1641" y="578"/>
      <point x="1649" y="595"/>
    </contour>
    <contour>
      <point x="994" y="567" type="line"/>
      <point x="1019" y="498"/>
      <point x="1033" y="444"/>
      <point x="1037" y="381" type="curve"/>
      <point x="1019" y="301"/>
      <point x="976" y="261"/>
      <point x="924" y="241" type="curve"/>
      <point x="892" y="263"/>
      <point x="875" y="302"/>
      <point x="870" y="355" type="curve"/>
      <point x="884" y="428"/>
      <point x="927" y="502"/>
      <point x="979" y="567" type="curve"/>
    </contour>
    <contour>
      <point x="1512" y="604" type="line"/>
      <point x="1486" y="648"/>
      <point x="1438" y="666"/>
      <point x="1320" y="655" type="curve"/>
      <point x="1186" y="52" type="line"/>
      <point x="1253" y="-2"/>
      <point x="1354" y="-13"/>
      <point x="1394" y="18" type="curve"/>
      <point x="1419" y="426" type="line"/>
    </contour>
  </outline>
</glyph>
<glyph name="dvK_SS_M_YA" format="1">
  <advance width="2225"/>
  <outline>
    <contour>
      <point x="166" y="234" type="curve"/>
      <point x="302" y="293"/>
      <point x="529" y="441"/>
      <point x="529" y="558" type="curve" smooth="yes"/>
      <point x="529" y="634"/>
      <point x="429" y="739"/>
      <point x="353" y="739" type="curve" smooth="yes"/>
      <point x="279" y="739"/>
      <point x="140" y="633"/>
      <point x="145" y="547" type="curve" smooth="yes"/>
      <point x="152" y="432"/>
      <point x="309" y="299"/>
      <point x="397" y="254" type="curve"/>
      <point x="459" y="246"/>
      <point x="553" y="255"/>
      <point x="622" y="283" type="curve"/>
      <point x="581" y="348" type="line"/>
      <point x="542" y="329"/>
      <point x="484" y="323"/>
      <point x="430" y="321" type="curve"/>
      <point x="349" y="372"/>
      <point x="296" y="427"/>
      <point x="264" y="534" type="curve"/>
      <point x="275" y="583"/>
      <point x="310" y="630"/>
      <point x="350" y="639" type="curve"/>
      <point x="382" y="623"/>
      <point x="399" y="580"/>
      <point x="404" y="547" type="curve"/>
      <point x="362" y="431"/>
      <point x="189" y="350"/>
      <point x="62" y="310" type="curve"/>
      <point x="11" y="266"/>
      <point x="3" y="183"/>
      <point x="63" y="90" type="curve"/>
      <point x="110" y="57"/>
      <point x="173" y="29"/>
      <point x="254" y="18" type="curve"/>
      <point x="321" y="96" type="line"/>
      <point x="329" y="89" type="line"/>
      <point x="295" y="28"/>
      <point x="264" y="-58"/>
      <point x="238" y="-127" type="curve"/>
      <point x="252" y="-166"/>
      <point x="322" y="-202"/>
      <point x="394" y="-182" type="curve"/>
      <point x="415" y="-76"/>
      <point x="446" y="59"/>
      <point x="478" y="152" type="curve"/>
      <point x="445" y="204"/>
      <point x="392" y="230"/>
      <point x="336" y="220" type="curve"/>
      <point x="314" y="185"/>
      <point x="292" y="154"/>
      <point x="262" y="127" type="curve"/>
      <point x="218" y="141"/>
      <point x="186" y="158"/>
      <point x="159" y="185" type="curve"/>
      <point x="155" y="205"/>
      <point x="155" y="221"/>
    </contour>
    <contour>
      <point x="788" y="310" type="line"/>
      <point x="839" y="274"/>
      <point x="891" y="246"/>
      <point x="958" y="221" type="curve"/>
      <point x="1013" y="222"/>
      <point x="1108" y="235"/>
      <point x="1145" y="248" type="curve"/>
      <point x="1127" y="310" type="line"/>
      <point x="1076" y="295"/>
      <point x="1021" y="290"/>
      <point x="973" y="286" type="curve"/>
      <point x="929" y="302"/>
      <point x="871" y="336"/>
      <point x="844" y="359" type="curve"/>
    </contour>
    <contour>
      <point x="1282" y="567" type="line"/>
      <point x="1298" y="578"/>
      <point x="1306" y="595"/>
      <point x="1310" y="611" type="curve"/>
      <point x="1298" y="625" type="line"/>
      <point x="520" y="625" type="line"/>
      <point x="504" y="614"/>
      <point x="493" y="597"/>
      <point x="486" y="584" type="curve"/>
      <point x="504" y="567" type="line"/>
    </contour>
    <contour>
      <point x="1030" y="500" type="curve"/>
      <point x="1030" y="548"/>
      <point x="921" y="625"/>
      <point x="832" y="625" type="curve" smooth="yes"/>
      <point x="769" y="625"/>
      <point x="687" y="604"/>
      <point x="630" y="563" type="curve"/>
      <point x="610" y="524"/>
      <point x="647" y="477"/>
      <point x="714" y="456" type="curve"/>
      <point x="757" y="487"/>
      <point x="809" y="510"/>
      <point x="852" y="510" type="curve" smooth="yes"/>
      <point x="871" y="510"/>
      <point x="888" y="496"/>
      <point x="895" y="483" type="curve" smooth="yes"/>
      <point x="888" y="418"/>
      <point x="786" y="346"/>
      <point x="677" y="325" type="curve" smooth="yes"/>
      <point x="661" y="336"/>
      <point x="647" y="348"/>
      <point x="633" y="362" type="curve"/>
      <point x="571" y="361"/>
      <point x="526" y="311"/>
      <point x="520" y="243" type="curve"/>
      <point x="585" y="152"/>
      <point x="734" y="35"/>
      <point x="860" y="-2" type="curve"/>
      <point x="929" y="26"/>
      <point x="967" y="108"/>
      <point x="929" y="151" type="curve"/>
      <point x="840" y="175"/>
      <point x="766" y="217"/>
      <point x="692" y="261" type="curve"/>
      <point x="696" y="269" type="line"/>
      <point x="840" y="268"/>
      <point x="1030" y="383"/>
    </contour>
    <contour>
      <point x="1676" y="567" type="line"/>
      <point x="1692" y="578"/>
      <point x="1700" y="595"/>
      <point x="1704" y="611" type="curve"/>
      <point x="1692" y="625" type="line"/>
      <point x="1033" y="625" type="line"/>
      <point x="1018" y="614"/>
      <point x="1007" y="597"/>
      <point x="1000" y="584" type="curve"/>
      <point x="1018" y="567" type="line"/>
    </contour>
    <contour>
      <point x="1219" y="171" type="line"/>
      <point x="1185" y="186"/>
      <point x="1156" y="209"/>
      <point x="1137" y="249" type="curve"/>
      <point x="1116" y="224" type="line"/>
      <point x="1280" y="308"/>
      <point x="1398" y="293"/>
      <point x="1566" y="270" type="curve"/>
      <point x="1595" y="317" type="line"/>
      <point x="1442" y="368"/>
      <point x="1188" y="350"/>
      <point x="1079" y="291" type="curve"/>
      <point x="1044" y="272"/>
      <point x="1035" y="236"/>
      <point x="1034" y="190" type="curve"/>
      <point x="1065" y="135"/>
      <point x="1126" y="90"/>
      <point x="1187" y="75" type="curve"/>
      <point x="1245" y="70"/>
      <point x="1324" y="88"/>
      <point x="1359" y="130" type="curve"/>
      <point x="1406" y="236"/>
      <point x="1431" y="468"/>
      <point x="1432" y="611" type="curve"/>
      <point x="1242" y="587" type="line"/>
      <point x="1275" y="474" type="line"/>
      <point x="1277" y="376"/>
      <point x="1262" y="251"/>
      <point x="1230" y="177" type="curve"/>
    </contour>
    <contour>
      <point x="2240" y="604" type="line"/>
      <point x="2214" y="648"/>
      <point x="2166" y="666"/>
      <point x="2048" y="655" type="curve"/>
      <point x="1966" y="282" type="line"/>
      <point x="1991" y="256" type="line"/>
      <point x="1946" y="192" type="line"/>
      <point x="1914" y="52" type="line"/>
      <point x="1981" y="-2"/>
      <point x="2082" y="-13"/>
      <point x="2122" y="18" type="curve"/>
      <point x="2147" y="426" type="line"/>
    </contour>
    <contour>
      <point x="2353" y="567" type="line"/>
      <point x="2369" y="578"/>
      <point x="2377" y="595"/>
      <point x="2381" y="611" type="curve"/>
      <point x="2369" y="625" type="line"/>
      <point x="1497" y="625" type="line"/>
      <point x="1480" y="614"/>
      <point x="1469" y="597"/>
      <point x="1462" y="584" type="curve"/>
      <point x="1480" y="567" type="line"/>
    </contour>
    <contour>
      <point x="1575" y="570" type="curve"/>
      <point x="1552" y="527"/>
      <point x="1589" y="481"/>
      <point x="1662" y="463" type="curve"/>
      <point x="1687" y="479"/>
      <point x="1713" y="492"/>
      <point x="1740" y="496" type="curve" smooth="yes"/>
      <point x="1760" y="499"/>
      <point x="1784" y="497"/>
      <point x="1798" y="487" type="curve" smooth="yes"/>
      <point x="1784" y="373"/>
      <point x="1515" y="329"/>
      <point x="1515" y="257" type="curve" smooth="yes"/>
      <point x="1515" y="187"/>
      <point x="1640" y="102"/>
      <point x="1712" y="102" type="curve" smooth="yes"/>
      <point x="1782" y="102"/>
      <point x="1974" y="237"/>
      <point x="2036" y="338" type="curve"/>
      <point x="1988" y="379" type="line"/>
      <point x="1929" y="303"/>
      <point x="1851" y="247"/>
      <point x="1779" y="218" type="curve" smooth="yes"/>
      <point x="1751" y="219"/>
      <point x="1709" y="248"/>
      <point x="1715" y="280" type="curve" smooth="yes"/>
      <point x="1782" y="335"/>
      <point x="1938" y="427"/>
      <point x="1938" y="512" type="curve" smooth="yes"/>
      <point x="1938" y="561"/>
      <point x="1859" y="625"/>
      <point x="1761" y="625" type="curve" smooth="yes"/>
      <point x="1707" y="625"/>
      <point x="1623" y="606"/>
    </contour>
  </outline>
</glyph>
<glyph name="dvLL_YA" format="1">
  <advance width="1617"/>
  <outline>
    <contour>
      <point x="1004" y="567" type="line"/>
      <point x="1019" y="578"/>
      <point x="1027" y="595"/>
      <point x="1031" y="611" type="curve"/>
      <point x="1019" y="625" type="line"/>
      <point x="12" y="625" type="line"/>
      <point x="-4" y="614"/>
      <point x="-15" y="597"/>
      <point x="-21" y="584" type="curve"/>
      <point x="-4" y="567" type="line"/>
    </contour>
    <contour>
      <point x="404" y="168" type="line"/>
      <point x="443" y="104"/>
      <point x="496" y="37"/>
      <point x="568" y="0" type="curve"/>
      <point x="672" y="9"/>
      <point x="826" y="151"/>
      <point x="829" y="253" type="curve" smooth="yes"/>
      <point x="834" y="359"/>
      <point x="716" y="454"/>
      <point x="681" y="454" type="curve" smooth="yes"/>
      <point x="533" y="454"/>
      <point x="424" y="191"/>
      <point x="207" y="98" type="curve"/>
      <point x="172" y="120"/>
      <point x="159" y="153"/>
      <point x="160" y="188" type="curve"/>
      <point x="169" y="232"/>
      <point x="211" y="282"/>
      <point x="272" y="311" type="curve"/>
      <point x="308" y="274"/>
      <point x="343" y="232"/>
      <point x="393" y="171" type="curve"/>
      <point x="434" y="208" type="line"/>
      <point x="389" y="282"/>
      <point x="336" y="354"/>
      <point x="292" y="413" type="curve"/>
      <point x="156" y="412"/>
      <point x="26" y="281"/>
      <point x="23" y="196" type="curve" smooth="yes"/>
      <point x="19" y="99"/>
      <point x="118" y="6"/>
      <point x="224" y="0" type="curve"/>
      <point x="403" y="26"/>
      <point x="559" y="253"/>
      <point x="666" y="330" type="curve"/>
      <point x="690" y="308"/>
      <point x="699" y="278"/>
      <point x="693" y="246" type="curve" smooth="yes"/>
      <point x="686" y="188"/>
      <point x="640" y="126"/>
      <point x="578" y="97" type="curve"/>
      <point x="538" y="106"/>
      <point x="486" y="162"/>
      <point x="450" y="211" type="curve"/>
    </contour>
    <contour>
      <point x="1632" y="604" type="line"/>
      <point x="1606" y="648"/>
      <point x="1558" y="666"/>
      <point x="1441" y="655" type="curve"/>
      <point x="1358" y="282" type="line"/>
      <point x="1383" y="256" type="line"/>
      <point x="1339" y="192" type="line"/>
      <point x="1306" y="52" type="line"/>
      <point x="1374" y="-2"/>
      <point x="1475" y="-13"/>
      <point x="1515" y="18" type="curve"/>
      <point x="1539" y="426" type="line"/>
    </contour>
    <contour>
      <point x="1745" y="567" type="line"/>
      <point x="1761" y="578"/>
      <point x="1769" y="595"/>
      <point x="1773" y="611" type="curve"/>
      <point x="1761" y="625" type="line"/>
      <point x="889" y="625" type="line"/>
      <point x="873" y="614"/>
      <point x="861" y="597"/>
      <point x="855" y="584" type="curve"/>
      <point x="873" y="567" type="line"/>
    </contour>
    <contour>
      <point x="967" y="570" type="curve"/>
      <point x="944" y="527"/>
      <point x="982" y="481"/>
      <point x="1054" y="463" type="curve"/>
      <point x="1079" y="479"/>
      <point x="1105" y="492"/>
      <point x="1132" y="496" type="curve" smooth="yes"/>
      <point x="1153" y="499"/>
      <point x="1176" y="497"/>
      <point x="1191" y="487" type="curve" smooth="yes"/>
      <point x="1177" y="373"/>
      <point x="908" y="329"/>
      <point x="908" y="257" type="curve" smooth="yes"/>
      <point x="908" y="187"/>
      <point x="1032" y="102"/>
      <point x="1104" y="102" type="curve" smooth="yes"/>
      <point x="1175" y="102"/>
      <point x="1366" y="237"/>
      <point x="1428" y="338" type="curve"/>
      <point x="1380" y="379" type="line"/>
      <point x="1322" y="303"/>
      <point x="1243" y="247"/>
      <point x="1171" y="218" type="curve" smooth="yes"/>
      <point x="1143" y="219"/>
      <point x="1101" y="248"/>
      <point x="1107" y="280" type="curve" smooth="yes"/>
      <point x="1174" y="335"/>
      <point x="1331" y="427"/>
      <point x="1331" y="512" type="curve" smooth="yes"/>
      <point x="1331" y="561"/>
      <point x="1251" y="625"/>
      <point x="1153" y="625" type="curve" smooth="yes"/>
      <point x="1099" y="625"/>
      <point x="1015" y="606"/>
    </contour>
  </outline>
</glyph>
<glyph name="dvL" format="1">
  <advance width="464"/>
  <outline>
    <contour>
      <point x="373" y="306" type="line"/>
      <point x="390" y="324"/>
      <point x="407" y="343"/>
      <point x="423" y="361" type="curve" smooth="yes"/>
      <point x="418" y="420"/>
      <point x="389" y="463"/>
      <point x="327" y="483" type="curve"/>
      <point x="296" y="490"/>
      <point x="251" y="492"/>
      <point x="206" y="487" type="curve"/>
      <point x="103" y="444"/>
      <point x="-6" y="344"/>
      <point x="-6" y="257" type="curve" smooth="yes"/>
      <point x="-6" y="180"/>
      <point x="87" y="57"/>
      <point x="192" y="-1" type="curve"/>
      <point x="286" y="16"/>
      <point x="320" y="83"/>
      <point x="299" y="124" type="curve"/>
      <point x="212" y="166"/>
      <point x="176" y="211"/>
      <point x="158" y="266" type="curve" smooth="yes"/>
      <point x="161" y="318"/>
      <point x="209" y="381"/>
      <point x="244" y="390" type="curve"/>
      <point x="275" y="386"/>
      <point x="294" y="364"/>
      <point x="300" y="340" type="curve" smooth="yes"/>
      <point x="287" y="325"/>
      <point x="269" y="308"/>
      <point x="249" y="292" type="curve"/>
      <point x="245" y="250"/>
      <point x="292" y="202"/>
      <point x="380" y="189" type="curve"/>
      <point x="458" y="252"/>
      <point x="546" y="332"/>
      <point x="607" y="396" type="curve"/>
      <point x="568" y="459" type="line"/>
      <point x="513" y="400"/>
      <point x="447" y="344"/>
      <point x="382" y="300" type="curve"/>
    </contour>
    <contour>
      <point x="657" y="567" type="line"/>
      <point x="673" y="578"/>
      <point x="681" y="595"/>
      <point x="685" y="611" type="curve"/>
      <point x="673" y="625" type="line"/>
      <point x="12" y="625" type="line"/>
      <point x="-4" y="614"/>
      <point x="-14" y="597"/>
      <point x="-21" y="584" type="curve"/>
      <point x="-4" y="567" type="line"/>
    </contour>
  </outline>
</glyph>
<glyph name="dvL_BA" format="1">
  <advance width="1083"/>
  <outline>
    <contour>
      <point x="657" y="567" type="line"/>
      <point x="673" y="578"/>
      <point x="681" y="595"/>
      <point x="685" y="611" type="curve"/>
      <point x="673" y="625" type="line"/>
      <point x="12" y="625" type="line"/>
      <point x="-4" y="614"/>
      <point x="-14" y="597"/>
      <point x="-21" y="584" type="curve"/>
      <point x="-4" y="567" type="line"/>
    </contour>
    <contour>
      <point x="544" y="435" type="line"/>
      <point x="487" y="378"/>
      <point x="446" y="345"/>
      <point x="382" y="300" type="curve"/>
      <point x="373" y="306" type="line"/>
      <point x="390" y="324"/>
      <point x="407" y="343"/>
      <point x="423" y="361" type="curve" smooth="yes"/>
      <point x="418" y="420"/>
      <point x="389" y="463"/>
      <point x="327" y="483" type="curve"/>
      <point x="296" y="490"/>
      <point x="251" y="492"/>
      <point x="206" y="487" type="curve"/>
      <point x="103" y="444"/>
      <point x="-6" y="344"/>
      <point x="-6" y="257" type="curve" smooth="yes"/>
      <point x="-6" y="180"/>
      <point x="87" y="57"/>
      <point x="192" y="-1" type="curve"/>
      <point x="286" y="16"/>
      <point x="320" y="83"/>
      <point x="299" y="124" type="curve"/>
      <point x="212" y="166"/>
      <point x="176" y="211"/>
      <point x="158" y="266" type="curve" smooth="yes"/>
      <point x="161" y="318"/>
      <point x="209" y="381"/>
      <point x="244" y="390" type="curve"/>
      <point x="275" y="386"/>
      <point x="294" y="364"/>
      <point x="300" y="340" type="curve" smooth="yes"/>
      <point x="287" y="325"/>
      <point x="269" y="308"/>
      <point x="249" y="292" type="curve"/>
      <point x="245" y="250"/>
      <point x="292" y="202"/>
      <point x="380" y="189" type="curve"/>
      <point x="458" y="252"/>
      <point x="531" y="315"/>
      <point x="591" y="379" type="curve"/>
    </contour>
    <contour>
      <point x="673" y="178" type="curve"/>
      <point x="649" y="193"/>
      <point x="634" y="219"/>
      <point x="634" y="256" type="curve" smooth="yes"/>
      <point x="634" y="332"/>
      <point x="699" y="412"/>
      <point x="760" y="431" type="curve" smooth="yes"/>
      <point x="791" y="417"/>
      <point x="824" y="379"/>
      <point x="846" y="345" type="curve"/>
      <point x="841" y="320" type="line"/>
      <point x="798" y="279"/>
      <point x="733" y="226"/>
    </contour>
    <contour>
      <point x="1211" y="567" type="line"/>
      <point x="1227" y="578"/>
      <point x="1235" y="595"/>
      <point x="1239" y="611" type="curve"/>
      <point x="1227" y="625" type="line"/>
      <point x="444" y="625" type="line"/>
      <point x="428" y="614"/>
      <point x="418" y="597"/>
      <point x="411" y="584" type="curve"/>
      <point x="428" y="567" type="line"/>
    </contour>
    <contour>
      <point x="863" y="423" type="line"/>
      <point x="832" y="461"/>
      <point x="797" y="504"/>
      <point x="744" y="522" type="curve" smooth="yes"/>
      <point x="601" y="522"/>
      <point x="459" y="383"/>
      <point x="459" y="250" type="curve" smooth="yes"/>
      <point x="459" y="142"/>
      <point x="553" y="85"/>
      <point x="677" y="83" type="curve"/>
      <point x="738" y="145"/>
      <point x="799" y="204"/>
      <point x="839" y="247" type="curve"/>
      <point x="849" y="236" type="line"/>
      <point x="798" y="164" type="line"/>
      <point x="771" y="52" type="line"/>
      <point x="839" y="-2"/>
      <point x="940" y="-13"/>
      <point x="980" y="18" type="curve"/>
      <point x="1005" y="426" type="line"/>
      <point x="1097" y="604" type="line"/>
      <point x="1071" y="648"/>
      <point x="1023" y="666"/>
      <point x="906" y="655" type="curve"/>
      <point x="868" y="426" type="line"/>
    </contour>
    <contour>
      <point x="797" y="229" type="curve"/>
      <point x="832" y="265" type="line"/>
      <point x="774" y="313"/>
      <point x="721" y="369"/>
      <point x="683" y="415" type="curve"/>
      <point x="654" y="361" type="line"/>
      <point x="686" y="319"/>
      <point x="760" y="256"/>
    </contour>
  </outline>
</glyph>
<glyph name="dvL_BHA" format="1">
  <advance width="1233"/>
  <outline>
    <contour>
      <point x="645" y="567" type="line"/>
      <point x="661" y="578"/>
      <point x="669" y="595"/>
      <point x="673" y="611" type="curve"/>
      <point x="661" y="625" type="line"/>
      <point x="12" y="625" type="line"/>
      <point x="-4" y="614"/>
      <point x="-14" y="597"/>
      <point x="-21" y="584" type="curve"/>
      <point x="-4" y="567" type="line"/>
    </contour>
    <contour>
      <point x="583" y="472" type="line"/>
      <point x="522" y="410"/>
      <point x="435" y="339"/>
      <point x="377" y="299" type="curve"/>
      <point x="369" y="305" type="line"/>
      <point x="392" y="333"/>
      <point x="404" y="373"/>
      <point x="403" y="397" type="curve"/>
      <point x="395" y="441"/>
      <point x="368" y="471"/>
      <point x="312" y="483" type="curve" smooth="yes"/>
      <point x="283" y="489"/>
      <point x="247" y="491"/>
      <point x="206" y="487" type="curve"/>
      <point x="103" y="444"/>
      <point x="-6" y="344"/>
      <point x="-6" y="257" type="curve" smooth="yes"/>
      <point x="-6" y="180"/>
      <point x="87" y="57"/>
      <point x="192" y="-1" type="curve"/>
      <point x="286" y="16"/>
      <point x="320" y="83"/>
      <point x="299" y="124" type="curve"/>
      <point x="212" y="166"/>
      <point x="176" y="211"/>
      <point x="158" y="266" type="curve" smooth="yes"/>
      <point x="161" y="318"/>
      <point x="209" y="381"/>
      <point x="244" y="390" type="curve"/>
      <point x="275" y="386"/>
      <point x="294" y="364"/>
      <point x="300" y="340" type="curve" smooth="yes"/>
      <point x="287" y="325"/>
      <point x="269" y="312"/>
      <point x="249" y="296" type="curve"/>
      <point x="244" y="254"/>
      <point x="292" y="206"/>
      <point x="380" y="195" type="curve"/>
      <point x="458" y="256"/>
      <point x="568" y="355"/>
      <point x="625" y="417" type="curve"/>
    </contour>
    <contour>
      <point x="1227" y="469" type="line"/>
      <point x="1200" y="514"/>
      <point x="1150" y="533"/>
      <point x="1036" y="523" type="curve"/>
      <point x="1009" y="440" type="line"/>
      <point x="1019" y="434" type="line"/>
      <point x="932" y="52" type="line"/>
      <point x="999" y="-2"/>
      <point x="1100" y="-13"/>
      <point x="1140" y="18" type="curve"/>
      <point x="1151" y="356" type="line"/>
    </contour>
    <contour>
      <point x="1361" y="567" type="line"/>
      <point x="1377" y="578"/>
      <point x="1385" y="595"/>
      <point x="1389" y="611" type="curve"/>
      <point x="1377" y="625" type="line"/>
      <point x="1016" y="625" type="line"/>
      <point x="1000" y="614"/>
      <point x="990" y="597"/>
      <point x="983" y="584" type="curve"/>
      <point x="1000" y="567" type="line"/>
    </contour>
    <contour>
      <point x="783" y="608" type="line"/>
      <point x="781" y="571"/>
      <point x="774" y="523"/>
      <point x="767" y="478" type="curve"/>
      <point x="783" y="452" type="line"/>
      <point x="757" y="420" type="line"/>
      <point x="741" y="343"/>
      <point x="721" y="278"/>
      <point x="694" y="201" type="curve"/>
      <point x="683" y="195" type="line"/>
      <point x="649" y="211"/>
      <point x="624" y="230"/>
      <point x="604" y="270" type="curve"/>
      <point x="585" y="235" type="line"/>
      <point x="752" y="308"/>
      <point x="904" y="382"/>
      <point x="1060" y="467" type="curve"/>
      <point x="1036" y="523" type="line"/>
      <point x="903" y="447"/>
      <point x="698" y="353"/>
      <point x="547" y="302" type="curve"/>
      <point x="512" y="289"/>
      <point x="500" y="244"/>
      <point x="499" y="214" type="curve"/>
      <point x="528" y="162"/>
      <point x="589" y="114"/>
      <point x="651" y="99" type="curve"/>
      <point x="702" y="93"/>
      <point x="779" y="111"/>
      <point x="820" y="150" type="curve"/>
      <point x="879" y="299"/>
      <point x="925" y="536"/>
      <point x="928" y="677" type="curve"/>
      <point x="904" y="718"/>
      <point x="858" y="740"/>
      <point x="793" y="739" type="curve"/>
      <point x="742" y="689"/>
      <point x="629" y="624"/>
      <point x="562" y="596" type="curve"/>
      <point x="540" y="581"/>
      <point x="529" y="547"/>
      <point x="526" y="518" type="curve" smooth="yes"/>
      <point x="544" y="475"/>
      <point x="593" y="432"/>
      <point x="662" y="411" type="curve"/>
      <point x="806" y="471" type="line"/>
      <point x="786" y="511" type="line"/>
      <point x="679" y="485" type="line"/>
      <point x="664" y="489"/>
      <point x="646" y="514"/>
      <point x="641" y="527" type="curve"/>
      <point x="686" y="554"/>
      <point x="736" y="588"/>
      <point x="772" y="613" type="curve"/>
    </contour>
  </outline>
</glyph>
<glyph name="dvL_DA" format="1">
  <advance width="1022"/>
  <outline>
    <contour>
      <point x="697" y="-85" type="move" name="blwm"/>
    </contour>
    <contour>
      <point x="650" y="634" type="move" name="abvm_Ekaar"/>
    </contour>
    <contour>
      <point x="657" y="567" type="line"/>
      <point x="673" y="578"/>
      <point x="681" y="595"/>
      <point x="685" y="611" type="curve"/>
      <point x="673" y="625" type="line"/>
      <point x="12" y="625" type="line"/>
      <point x="-4" y="614"/>
      <point x="-14" y="597"/>
      <point x="-21" y="584" type="curve"/>
      <point x="-4" y="567" type="line"/>
    </contour>
    <contour>
      <point x="564" y="371" type="line"/>
      <point x="506" y="341"/>
      <point x="454" y="320"/>
      <point x="380" y="295" type="curve"/>
      <point x="372" y="301" type="line"/>
      <point x="390" y="320"/>
      <point x="407" y="343"/>
      <point x="423" y="361" type="curve" smooth="yes"/>
      <point x="418" y="420"/>
      <point x="389" y="463"/>
      <point x="327" y="483" type="curve"/>
      <point x="296" y="490"/>
      <point x="251" y="492"/>
      <point x="206" y="487" type="curve"/>
      <point x="103" y="444"/>
      <point x="-6" y="344"/>
      <point x="-6" y="257" type="curve" smooth="yes"/>
      <point x="-6" y="180"/>
      <point x="87" y="57"/>
      <point x="192" y="-1" type="curve"/>
      <point x="286" y="16"/>
      <point x="320" y="83"/>
      <point x="299" y="124" type="curve"/>
      <point x="212" y="166"/>
      <point x="176" y="211"/>
      <point x="158" y="266" type="curve" smooth="yes"/>
      <point x="161" y="318"/>
      <point x="209" y="381"/>
      <point x="244" y="390" type="curve"/>
      <point x="275" y="386"/>
      <point x="294" y="364"/>
      <point x="300" y="340" type="curve" smooth="yes"/>
      <point x="287" y="325"/>
      <point x="269" y="308"/>
      <point x="249" y="292" type="curve"/>
      <point x="242" y="250"/>
      <point x="289" y="202"/>
      <point x="381" y="189" type="curve"/>
      <point x="453" y="221"/>
      <point x="536" y="261"/>
      <point x="604" y="318" type="curve"/>
    </contour>
    <contour>
      <point x="1136" y="567" type="line"/>
      <point x="1152" y="578"/>
      <point x="1160" y="595"/>
      <point x="1164" y="611" type="curve"/>
      <point x="1152" y="625" type="line"/>
      <point x="451" y="625" type="line"/>
      <point x="435" y="614"/>
      <point x="425" y="597"/>
      <point x="418" y="584" type="curve"/>
      <point x="435" y="567" type="line"/>
    </contour>
    <contour>
      <point x="734" y="617" type="curve"/>
      <point x="689" y="581" type="line"/>
      <point x="740" y="557"/>
      <point x="784" y="527"/>
      <point x="805" y="501" type="curve"/>
      <point x="801" y="492" type="line"/>
      <point x="690" y="385"/>
      <point x="449" y="382"/>
      <point x="449" y="240" type="curve" smooth="yes"/>
      <point x="449" y="133"/>
      <point x="563" y="40"/>
      <point x="718" y="26" type="curve"/>
      <point x="762" y="80"/>
      <point x="794" y="128"/>
      <point x="831" y="166" type="curve"/>
      <point x="842" y="159" type="line"/>
      <point x="806" y="94"/>
      <point x="761" y="-9"/>
      <point x="721" y="-109" type="curve"/>
      <point x="730" y="-154"/>
      <point x="792" y="-187"/>
      <point x="879" y="-182" type="curve"/>
      <point x="909" y="-47"/>
      <point x="943" y="80"/>
      <point x="988" y="195" type="curve"/>
      <point x="950" y="267"/>
      <point x="874" y="287"/>
      <point x="828" y="270" type="curve"/>
      <point x="789" y="232"/>
      <point x="738" y="173"/>
      <point x="679" y="115" type="curve"/>
      <point x="728" y="133" type="line"/>
      <point x="676" y="137"/>
      <point x="619" y="188"/>
      <point x="613" y="237" type="curve"/>
      <point x="688" y="287"/>
      <point x="809" y="344"/>
      <point x="866" y="386" type="curve"/>
      <point x="909" y="423"/>
      <point x="932" y="481"/>
      <point x="914" y="521" type="curve"/>
      <point x="869" y="563"/>
      <point x="804" y="598"/>
    </contour>
  </outline>
</glyph>
<glyph name="dvL_DDA" format="1">
  <advance width="971"/>
  <outline>
    <contour>
      <point x="732" y="6" type="move" name="blwm"/>
    </contour>
    <contour>
      <point x="618" y="634" type="move" name="abvm_Ekaar"/>
    </contour>
    <contour>
      <point x="657" y="567" type="line"/>
      <point x="673" y="578"/>
      <point x="681" y="595"/>
      <point x="685" y="611" type="curve"/>
      <point x="673" y="625" type="line"/>
      <point x="12" y="625" type="line"/>
      <point x="-4" y="614"/>
      <point x="-14" y="597"/>
      <point x="-21" y="584" type="curve"/>
      <point x="-4" y="567" type="line"/>
    </contour>
    <contour>
      <point x="539" y="408" type="line"/>
      <point x="487" y="362"/>
      <point x="436" y="330"/>
      <point x="380" y="295" type="curve"/>
      <point x="372" y="301" type="line"/>
      <point x="390" y="320"/>
      <point x="407" y="343"/>
      <point x="423" y="361" type="curve" smooth="yes"/>
      <point x="418" y="420"/>
      <point x="389" y="463"/>
      <point x="327" y="483" type="curve"/>
      <point x="296" y="490"/>
      <point x="251" y="492"/>
      <point x="206" y="487" type="curve"/>
      <point x="103" y="444"/>
      <point x="-6" y="344"/>
      <point x="-6" y="257" type="curve" smooth="yes"/>
      <point x="-6" y="180"/>
      <point x="87" y="57"/>
      <point x="192" y="-1" type="curve"/>
      <point x="286" y="16"/>
      <point x="320" y="83"/>
      <point x="299" y="124" type="curve"/>
      <point x="212" y="166"/>
      <point x="176" y="211"/>
      <point x="158" y="266" type="curve" smooth="yes"/>
      <point x="161" y="318"/>
      <point x="209" y="381"/>
      <point x="244" y="390" type="curve"/>
      <point x="275" y="386"/>
      <point x="294" y="364"/>
      <point x="300" y="340" type="curve" smooth="yes"/>
      <point x="287" y="325"/>
      <point x="269" y="308"/>
      <point x="249" y="292" type="curve"/>
      <point x="243" y="250"/>
      <point x="290" y="202"/>
      <point x="380" y="189" type="curve"/>
      <point x="452" y="245"/>
      <point x="522" y="297"/>
      <point x="580" y="354" type="curve"/>
    </contour>
    <contour>
      <point x="1097" y="567" type="line"/>
      <point x="1113" y="578"/>
      <point x="1121" y="595"/>
      <point x="1125" y="611" type="curve"/>
      <point x="1113" y="625" type="line"/>
      <point x="442" y="625" type="line"/>
      <point x="426" y="614"/>
      <point x="416" y="597"/>
      <point x="409" y="584" type="curve"/>
      <point x="426" y="567" type="line"/>
    </contour>
    <contour>
      <point x="733" y="616" type="curve"/>
      <point x="689" y="578" type="line"/>
      <point x="733" y="559"/>
      <point x="779" y="543"/>
      <point x="805" y="516" type="curve"/>
      <point x="801" y="507" type="line"/>
      <point x="738" y="482"/>
      <point x="664" y="470"/>
      <point x="576" y="458" type="curve"/>
      <point x="502" y="414"/>
      <point x="474" y="337"/>
      <point x="504" y="285" type="curve"/>
      <point x="592" y="252"/>
      <point x="691" y="240"/>
      <point x="776" y="211" type="curve"/>
      <point x="778" y="202" type="line"/>
      <point x="707" y="161"/>
      <point x="567" y="144"/>
      <point x="458" y="149" type="curve"/>
      <point x="422" y="117"/>
      <point x="430" y="54"/>
      <point x="489" y="5" type="curve"/>
      <point x="633" y="9"/>
      <point x="809" y="54"/>
      <point x="880" y="99" type="curve"/>
      <point x="925" y="175"/>
      <point x="926" y="235"/>
      <point x="885" y="266" type="curve"/>
      <point x="809" y="289"/>
      <point x="703" y="303"/>
      <point x="633" y="327" type="curve"/>
      <point x="638" y="342" type="line"/>
      <point x="714" y="355"/>
      <point x="796" y="371"/>
      <point x="857" y="397" type="curve"/>
      <point x="899" y="433"/>
      <point x="920" y="498"/>
      <point x="906" y="536" type="curve"/>
      <point x="857" y="580"/>
      <point x="803" y="599"/>
    </contour>
  </outline>
</glyph>
<glyph name="dvL_DDHA" format="1">
  <advance width="1107"/>
  <outline>
    <contour>
      <point x="855" y="6" type="move" name="blwm"/>
    </contour>
    <contour>
      <point x="679" y="634" type="move" name="abvm_Ekaar"/>
    </contour>
    <contour>
      <point x="657" y="567" type="line"/>
      <point x="673" y="578"/>
      <point x="681" y="595"/>
      <point x="685" y="611" type="curve"/>
      <point x="673" y="625" type="line"/>
      <point x="12" y="625" type="line"/>
      <point x="-4" y="614"/>
      <point x="-14" y="597"/>
      <point x="-21" y="584" type="curve"/>
      <point x="-4" y="567" type="line"/>
    </contour>
    <contour>
      <point x="584" y="368" type="line"/>
      <point x="520" y="342"/>
      <point x="451" y="318"/>
      <point x="380" y="295" type="curve"/>
      <point x="372" y="301" type="line"/>
      <point x="390" y="320"/>
      <point x="407" y="343"/>
      <point x="423" y="361" type="curve" smooth="yes"/>
      <point x="418" y="420"/>
      <point x="389" y="463"/>
      <point x="327" y="483" type="curve"/>
      <point x="296" y="490"/>
      <point x="251" y="492"/>
      <point x="206" y="487" type="curve"/>
      <point x="103" y="444"/>
      <point x="-6" y="344"/>
      <point x="-6" y="257" type="curve" smooth="yes"/>
      <point x="-6" y="180"/>
      <point x="87" y="57"/>
      <point x="192" y="-1" type="curve"/>
      <point x="286" y="16"/>
      <point x="320" y="83"/>
      <point x="299" y="124" type="curve"/>
      <point x="212" y="166"/>
      <point x="176" y="211"/>
      <point x="158" y="266" type="curve" smooth="yes"/>
      <point x="161" y="318"/>
      <point x="209" y="381"/>
      <point x="244" y="390" type="curve"/>
      <point x="275" y="386"/>
      <point x="294" y="364"/>
      <point x="300" y="340" type="curve" smooth="yes"/>
      <point x="287" y="325"/>
      <point x="269" y="308"/>
      <point x="252" y="292" type="curve"/>
      <point x="243" y="250"/>
      <point x="290" y="202"/>
      <point x="380" y="189" type="curve"/>
      <point x="458" y="223"/>
      <point x="544" y="274"/>
      <point x="627" y="317" type="curve"/>
    </contour>
    <contour>
      <point x="1230" y="567" type="line"/>
      <point x="1246" y="578"/>
      <point x="1254" y="595"/>
      <point x="1258" y="611" type="curve"/>
      <point x="1246" y="625" type="line"/>
      <point x="468" y="625" type="line"/>
      <point x="453" y="614"/>
      <point x="442" y="597"/>
      <point x="435" y="584" type="curve"/>
      <point x="453" y="567" type="line"/>
    </contour>
    <contour>
      <point x="783" y="614" type="curve"/>
      <point x="732" y="570" type="line"/>
      <point x="776" y="546"/>
      <point x="812" y="525"/>
      <point x="838" y="490" type="curve"/>
      <point x="835" y="481" type="line"/>
      <point x="754" y="432"/>
      <point x="627" y="385"/>
      <point x="523" y="336" type="curve"/>
      <point x="491" y="311"/>
      <point x="471" y="265"/>
      <point x="471" y="213" type="curve"/>
      <point x="515" y="102"/>
      <point x="639" y="19"/>
      <point x="767" y="13" type="curve" smooth="yes"/>
      <point x="865" y="13"/>
      <point x="1066" y="105"/>
      <point x="1066" y="192" type="curve" smooth="yes"/>
      <point x="1066" y="240"/>
      <point x="986" y="309"/>
      <point x="869" y="306" type="curve"/>
      <point x="809" y="261"/>
      <point x="713" y="195"/>
      <point x="634" y="141" type="curve"/>
      <point x="676" y="95" type="line"/>
      <point x="741" y="136"/>
      <point x="813" y="183"/>
      <point x="860" y="209" type="curve"/>
      <point x="882" y="203"/>
      <point x="901" y="193"/>
      <point x="913" y="180" type="curve"/>
      <point x="897" y="139"/>
      <point x="841" y="100"/>
      <point x="768" y="89" type="curve"/>
      <point x="696" y="119"/>
      <point x="642" y="177"/>
      <point x="642" y="221" type="curve" smooth="yes"/>
      <point x="642" y="273"/>
      <point x="837" y="334"/>
      <point x="929" y="399" type="curve"/>
      <point x="962" y="436"/>
      <point x="981" y="477"/>
      <point x="965" y="517" type="curve"/>
      <point x="912" y="558"/>
      <point x="849" y="584"/>
    </contour>
  </outline>
</glyph>
<glyph name="dvL_D_RA" format="1">
  <advance width="1022"/>
  <outline>
    <contour>
      <point x="750" y="-278" type="move" name="blwm"/>
    </contour>
    <contour>
      <point x="622" y="634" type="move" name="abvm_Ekaar"/>
    </contour>
    <contour>
      <point x="657" y="567" type="line"/>
      <point x="673" y="578"/>
      <point x="681" y="595"/>
      <point x="685" y="611" type="curve"/>
      <point x="673" y="625" type="line"/>
      <point x="12" y="625" type="line"/>
      <point x="-4" y="614"/>
      <point x="-14" y="597"/>
      <point x="-21" y="584" type="curve"/>
      <point x="-4" y="567" type="line"/>
    </contour>
    <contour>
      <point x="564" y="371" type="line"/>
      <point x="506" y="341"/>
      <point x="454" y="320"/>
      <point x="380" y="295" type="curve"/>
      <point x="372" y="301" type="line"/>
      <point x="390" y="320"/>
      <point x="407" y="343"/>
      <point x="423" y="361" type="curve" smooth="yes"/>
      <point x="418" y="420"/>
      <point x="389" y="463"/>
      <point x="327" y="483" type="curve"/>
      <point x="296" y="490"/>
      <point x="251" y="492"/>
      <point x="206" y="487" type="curve"/>
      <point x="103" y="444"/>
      <point x="-6" y="344"/>
      <point x="-6" y="257" type="curve" smooth="yes"/>
      <point x="-6" y="180"/>
      <point x="87" y="57"/>
      <point x="192" y="-1" type="curve"/>
      <point x="286" y="16"/>
      <point x="320" y="83"/>
      <point x="299" y="124" type="curve"/>
      <point x="212" y="166"/>
      <point x="176" y="211"/>
      <point x="158" y="266" type="curve" smooth="yes"/>
      <point x="161" y="318"/>
      <point x="209" y="381"/>
      <point x="244" y="390" type="curve"/>
      <point x="275" y="386"/>
      <point x="294" y="364"/>
      <point x="300" y="340" type="curve" smooth="yes"/>
      <point x="287" y="325"/>
      <point x="269" y="308"/>
      <point x="249" y="292" type="curve"/>
      <point x="242" y="250"/>
      <point x="289" y="202"/>
      <point x="381" y="189" type="curve"/>
      <point x="453" y="221"/>
      <point x="536" y="261"/>
      <point x="604" y="318" type="curve"/>
    </contour>
    <contour>
      <point x="1136" y="567" type="line"/>
      <point x="1152" y="578"/>
      <point x="1160" y="595"/>
      <point x="1164" y="611" type="curve"/>
      <point x="1152" y="625" type="line"/>
      <point x="451" y="625" type="line"/>
      <point x="435" y="614"/>
      <point x="425" y="597"/>
      <point x="418" y="584" type="curve"/>
      <point x="435" y="567" type="line"/>
    </contour>
    <contour>
      <point x="734" y="617" type="curve"/>
      <point x="689" y="581" type="line"/>
      <point x="740" y="557"/>
      <point x="784" y="527"/>
      <point x="805" y="501" type="curve"/>
      <point x="801" y="492" type="line"/>
      <point x="690" y="385"/>
      <point x="449" y="382"/>
      <point x="449" y="240" type="curve" smooth="yes"/>
      <point x="449" y="133"/>
      <point x="569" y="46"/>
      <point x="718" y="35" type="curve"/>
      <point x="755" y="84"/>
      <point x="789" y="130"/>
      <point x="825" y="169" type="curve"/>
      <point x="837" y="163" type="line"/>
      <point x="812" y="84"/>
      <point x="744" y="-130"/>
      <point x="707" y="-235" type="curve"/>
      <point x="718" y="-280"/>
      <point x="781" y="-310"/>
      <point x="867" y="-301" type="curve"/>
      <point x="890" y="-151"/>
      <point x="935" y="73"/>
      <point x="981" y="206" type="curve"/>
      <point x="937" y="274"/>
      <point x="860" y="291"/>
      <point x="818" y="274" type="curve"/>
      <point x="787" y="237"/>
      <point x="733" y="173"/>
      <point x="685" y="127" type="curve"/>
      <point x="735" y="144" type="line"/>
      <point x="679" y="141"/>
      <point x="619" y="182"/>
      <point x="613" y="237" type="curve"/>
      <point x="688" y="287"/>
      <point x="809" y="344"/>
      <point x="866" y="386" type="curve"/>
      <point x="909" y="423"/>
      <point x="932" y="481"/>
      <point x="914" y="521" type="curve"/>
      <point x="869" y="563"/>
      <point x="804" y="598"/>
    </contour>
    <contour>
      <point x="800" y="25" type="line"/>
      <point x="681" y="-20"/>
      <point x="531" y="-111"/>
      <point x="442" y="-173" type="curve"/>
      <point x="429" y="-217"/>
      <point x="454" y="-256"/>
      <point x="528" y="-271" type="curve"/>
      <point x="595" y="-191"/>
      <point x="749" y="-89"/>
      <point x="825" y="-55" type="curve"/>
    </contour>
  </outline>
</glyph>
<glyph name="dvL_GA" format="1">
  <advance width="1244"/>
  <outline>
    <contour>
      <point x="657" y="567" type="line"/>
      <point x="673" y="578"/>
      <point x="681" y="595"/>
      <point x="685" y="611" type="curve"/>
      <point x="673" y="625" type="line"/>
      <point x="12" y="625" type="line"/>
      <point x="-4" y="614"/>
      <point x="-14" y="597"/>
      <point x="-21" y="584" type="curve"/>
      <point x="-4" y="567" type="line"/>
    </contour>
    <contour>
      <point x="517" y="408" type="line"/>
      <point x="473" y="368"/>
      <point x="432" y="335"/>
      <point x="382" y="300" type="curve"/>
      <point x="373" y="306" type="line"/>
      <point x="390" y="324"/>
      <point x="407" y="343"/>
      <point x="423" y="361" type="curve" smooth="yes"/>
      <point x="418" y="420"/>
      <point x="389" y="463"/>
      <point x="327" y="483" type="curve"/>
      <point x="296" y="490"/>
      <point x="251" y="492"/>
      <point x="206" y="487" type="curve"/>
      <point x="103" y="444"/>
      <point x="-6" y="344"/>
      <point x="-6" y="257" type="curve" smooth="yes"/>
      <point x="-6" y="180"/>
      <point x="87" y="57"/>
      <point x="192" y="-1" type="curve"/>
      <point x="286" y="16"/>
      <point x="320" y="83"/>
      <point x="299" y="124" type="curve"/>
      <point x="212" y="166"/>
      <point x="176" y="211"/>
      <point x="158" y="266" type="curve" smooth="yes"/>
      <point x="161" y="318"/>
      <point x="209" y="381"/>
      <point x="244" y="390" type="curve"/>
      <point x="275" y="386"/>
      <point x="294" y="364"/>
      <point x="300" y="340" type="curve" smooth="yes"/>
      <point x="287" y="325"/>
      <point x="269" y="308"/>
      <point x="249" y="292" type="curve"/>
      <point x="245" y="250"/>
      <point x="292" y="202"/>
      <point x="380" y="189" type="curve"/>
      <point x="448" y="243"/>
      <point x="506" y="297"/>
      <point x="561" y="354" type="curve"/>
    </contour>
    <contour>
      <point x="1260" y="604" type="line"/>
      <point x="1234" y="648"/>
      <point x="1186" y="666"/>
      <point x="1068" y="655" type="curve"/>
      <point x="934" y="52" type="line"/>
      <point x="1001" y="-2"/>
      <point x="1102" y="-13"/>
      <point x="1142" y="18" type="curve"/>
      <point x="1166" y="426" type="line"/>
    </contour>
    <contour>
      <point x="1372" y="567" type="line"/>
      <point x="1388" y="578"/>
      <point x="1396" y="595"/>
      <point x="1400" y="611" type="curve"/>
      <point x="1388" y="625" type="line"/>
      <point x="511" y="625" type="line"/>
      <point x="495" y="614"/>
      <point x="484" y="597"/>
      <point x="477" y="584" type="curve"/>
      <point x="495" y="567" type="line"/>
    </contour>
    <contour>
      <point x="579" y="244" type="line"/>
      <point x="658" y="275"/>
      <point x="742" y="310"/>
      <point x="824" y="347" type="curve"/>
      <point x="800" y="409" type="line"/>
      <point x="715" y="372"/>
      <point x="626" y="339"/>
      <point x="538" y="312" type="curve"/>
      <point x="511" y="293"/>
      <point x="496" y="256"/>
      <point x="493" y="219" type="curve"/>
      <point x="522" y="155"/>
      <point x="585" y="109"/>
      <point x="656" y="92" type="curve"/>
      <point x="721" y="95"/>
      <point x="789" y="112"/>
      <point x="827" y="157" type="curve"/>
      <point x="874" y="266"/>
      <point x="912" y="473"/>
      <point x="910" y="613" type="curve"/>
      <point x="720" y="587" type="line"/>
      <point x="754" y="482" type="line"/>
      <point x="756" y="382"/>
      <point x="735" y="279"/>
      <point x="698" y="201" type="curve"/>
      <point x="688" y="196" type="line"/>
      <point x="654" y="212"/>
      <point x="626" y="235"/>
      <point x="606" y="274" type="curve"/>
    </contour>
  </outline>
</glyph>
<glyph name="dvL_HA" format="1">
  <advance width="970"/>
  <outline>
    <contour>
      <point x="705" y="6" type="move" name="blwm"/>
    </contour>
    <contour>
      <point x="629" y="634" type="move" name="abvm_Ekaar"/>
    </contour>
    <contour>
      <point x="373" y="306" type="line"/>
      <point x="390" y="324"/>
      <point x="407" y="343"/>
      <point x="423" y="361" type="curve" smooth="yes"/>
      <point x="418" y="420"/>
      <point x="389" y="463"/>
      <point x="327" y="483" type="curve"/>
      <point x="296" y="490"/>
      <point x="251" y="492"/>
      <point x="206" y="487" type="curve"/>
      <point x="103" y="444"/>
      <point x="-6" y="344"/>
      <point x="-6" y="257" type="curve" smooth="yes"/>
      <point x="-6" y="180"/>
      <point x="87" y="57"/>
      <point x="192" y="-1" type="curve"/>
      <point x="286" y="16"/>
      <point x="320" y="83"/>
      <point x="299" y="124" type="curve"/>
      <point x="212" y="166"/>
      <point x="176" y="211"/>
      <point x="158" y="266" type="curve" smooth="yes"/>
      <point x="161" y="318"/>
      <point x="209" y="381"/>
      <point x="244" y="390" type="curve"/>
      <point x="275" y="386"/>
      <point x="294" y="364"/>
      <point x="300" y="340" type="curve" smooth="yes"/>
      <point x="287" y="325"/>
      <point x="269" y="308"/>
      <point x="249" y="292" type="curve"/>
      <point x="245" y="250"/>
      <point x="292" y="202"/>
      <point x="380" y="189" type="curve"/>
      <point x="458" y="252"/>
      <point x="546" y="332"/>
      <point x="607" y="396" type="curve"/>
      <point x="562" y="454" type="line"/>
      <point x="505" y="392"/>
      <point x="445" y="341"/>
      <point x="382" y="300" type="curve"/>
    </contour>
    <contour>
      <point x="657" y="567" type="line"/>
      <point x="673" y="578"/>
      <point x="681" y="595"/>
      <point x="685" y="611" type="curve"/>
      <point x="673" y="625" type="line"/>
      <point x="12" y="625" type="line"/>
      <point x="-4" y="614"/>
      <point x="-14" y="597"/>
      <point x="-21" y="584" type="curve"/>
      <point x="-4" y="567" type="line"/>
    </contour>
    <contour>
      <point x="1086" y="567" type="line"/>
      <point x="1102" y="578"/>
      <point x="1110" y="595"/>
      <point x="1114" y="611" type="curve"/>
      <point x="1102" y="625" type="line"/>
      <point x="459" y="625" type="line"/>
      <point x="443" y="614"/>
      <point x="433" y="597"/>
      <point x="426" y="584" type="curve"/>
      <point x="443" y="567" type="line"/>
    </contour>
    <contour>
      <point x="792" y="604" type="curve"/>
      <point x="747" y="569" type="line"/>
      <point x="781" y="553"/>
      <point x="799" y="542"/>
      <point x="822" y="520" type="curve"/>
      <point x="818" y="511" type="line"/>
      <point x="763" y="488"/>
      <point x="678" y="466"/>
      <point x="567" y="458" type="curve"/>
      <point x="546" y="436"/>
      <point x="528" y="383"/>
      <point x="550" y="347" type="curve"/>
      <point x="571" y="327"/>
      <point x="610" y="303"/>
      <point x="646" y="291" type="curve"/>
      <point x="644" y="283" type="line"/>
      <point x="523" y="277"/>
      <point x="417" y="199"/>
      <point x="417" y="114" type="curve" smooth="yes"/>
      <point x="417" y="23"/>
      <point x="529" y="-66"/>
      <point x="641" y="-86" type="curve"/>
      <point x="742" y="-84"/>
      <point x="823" y="-52"/>
      <point x="878" y="0" type="curve"/>
      <point x="877" y="49"/>
      <point x="842" y="82"/>
      <point x="796" y="86" type="curve"/>
      <point x="756" y="43"/>
      <point x="709" y="18"/>
      <point x="656" y="4" type="curve"/>
      <point x="582" y="35"/>
      <point x="553" y="75"/>
      <point x="553" y="118" type="curve"/>
      <point x="575" y="174"/>
      <point x="636" y="213"/>
      <point x="681" y="222" type="curve" smooth="yes"/>
      <point x="694" y="219"/>
      <point x="702" y="212"/>
      <point x="705" y="201" type="curve" smooth="yes"/>
      <point x="695" y="190"/>
      <point x="681" y="178"/>
      <point x="667" y="168" type="curve"/>
      <point x="668" y="141"/>
      <point x="720" y="112"/>
      <point x="783" y="126" type="curve"/>
      <point x="816" y="163"/>
      <point x="833" y="208"/>
      <point x="833" y="246" type="curve" smooth="yes"/>
      <point x="833" y="296"/>
      <point x="758" y="322"/>
      <point x="671" y="344" type="curve"/>
      <point x="673" y="351" type="line"/>
      <point x="750" y="358"/>
      <point x="804" y="372"/>
      <point x="868" y="399" type="curve"/>
      <point x="910" y="434"/>
      <point x="933" y="496"/>
      <point x="919" y="538" type="curve"/>
      <point x="892" y="571"/>
      <point x="849" y="587"/>
    </contour>
  </outline>
</glyph>
<glyph name="dvL_JxA" format="1">
  <advance width="1285"/>
  <outline>
    <contour>
      <point x="657" y="567" type="line"/>
      <point x="673" y="578"/>
      <point x="681" y="595"/>
      <point x="685" y="611" type="curve"/>
      <point x="673" y="625" type="line"/>
      <point x="12" y="625" type="line"/>
      <point x="-4" y="614"/>
      <point x="-14" y="597"/>
      <point x="-21" y="584" type="curve"/>
      <point x="-4" y="567" type="line"/>
    </contour>
    <contour>
      <point x="574" y="446" type="line"/>
      <point x="516" y="390"/>
      <point x="436" y="336"/>
      <point x="382" y="300" type="curve"/>
      <point x="373" y="306" type="line"/>
      <point x="390" y="324"/>
      <point x="407" y="343"/>
      <point x="423" y="361" type="curve" smooth="yes"/>
      <point x="418" y="420"/>
      <point x="389" y="463"/>
      <point x="327" y="483" type="curve"/>
      <point x="296" y="490"/>
      <point x="251" y="492"/>
      <point x="206" y="487" type="curve"/>
      <point x="103" y="444"/>
      <point x="-6" y="344"/>
      <point x="-6" y="257" type="curve" smooth="yes"/>
      <point x="-6" y="180"/>
      <point x="87" y="57"/>
      <point x="192" y="-1" type="curve"/>
      <point x="286" y="16"/>
      <point x="320" y="83"/>
      <point x="299" y="124" type="curve"/>
      <point x="212" y="166"/>
      <point x="176" y="211"/>
      <point x="158" y="266" type="curve" smooth="yes"/>
      <point x="161" y="318"/>
      <point x="209" y="381"/>
      <point x="244" y="390" type="curve"/>
      <point x="275" y="386"/>
      <point x="294" y="364"/>
      <point x="300" y="340" type="curve" smooth="yes"/>
      <point x="287" y="325"/>
      <point x="269" y="308"/>
      <point x="249" y="292" type="curve"/>
      <point x="245" y="250"/>
      <point x="292" y="202"/>
      <point x="380" y="189" type="curve"/>
      <point x="458" y="252"/>
      <point x="558" y="329"/>
      <point x="619" y="393" type="curve"/>
    </contour>
    <contour>
      <point x="1300" y="604" type="line"/>
      <point x="1274" y="648"/>
      <point x="1226" y="666"/>
      <point x="1108" y="655" type="curve"/>
      <point x="1043" y="357" type="line"/>
      <point x="1065" y="334" type="line"/>
      <point x="1024" y="271" type="line"/>
      <point x="974" y="52" type="line"/>
      <point x="1041" y="-2"/>
      <point x="1142" y="-13"/>
      <point x="1182" y="18" type="curve"/>
      <point x="1207" y="426" type="line"/>
    </contour>
    <contour>
      <point x="1413" y="567" type="line"/>
      <point x="1429" y="578"/>
      <point x="1437" y="595"/>
      <point x="1441" y="611" type="curve"/>
      <point x="1429" y="625" type="line"/>
      <point x="489" y="625" type="line"/>
      <point x="473" y="614"/>
      <point x="462" y="597"/>
      <point x="455" y="584" type="curve"/>
      <point x="473" y="567" type="line"/>
    </contour>
    <contour>
      <point x="641" y="510" type="curve"/>
      <point x="568" y="461"/>
      <point x="518" y="374"/>
      <point x="507" y="310" type="curve" smooth="yes"/>
      <point x="507" y="204"/>
      <point x="590" y="114"/>
      <point x="677" y="91" type="curve" smooth="yes"/>
      <point x="770" y="85"/>
      <point x="916" y="166"/>
      <point x="921" y="261" type="curve"/>
      <point x="911" y="293" type="line"/>
      <point x="916" y="299" type="line"/>
      <point x="945" y="297" type="line"/>
      <point x="1008" y="301"/>
      <point x="1072" y="340"/>
      <point x="1111" y="395" type="curve"/>
      <point x="1062" y="442" type="line"/>
      <point x="1034" y="411"/>
      <point x="987" y="382"/>
      <point x="945" y="380" type="curve"/>
      <point x="930" y="383"/>
      <point x="907" y="408"/>
      <point x="891" y="429" type="curve"/>
      <point x="833" y="434"/>
      <point x="789" y="391"/>
      <point x="772" y="315" type="curve"/>
      <point x="785" y="308"/>
      <point x="801" y="299"/>
      <point x="807" y="287" type="curve" smooth="yes"/>
      <point x="803" y="249"/>
      <point x="749" y="197"/>
      <point x="695" y="187" type="curve"/>
      <point x="671" y="211"/>
      <point x="661" y="251"/>
      <point x="665" y="291" type="curve" smooth="yes"/>
      <point x="671" y="342"/>
      <point x="713" y="388"/>
      <point x="758" y="422" type="curve"/>
      <point x="761" y="475"/>
      <point x="716" y="511"/>
    </contour>
    <contour>
      <point x="647" y="-104" type="curve" smooth="yes"/>
      <point x="686" y="-104"/>
      <point x="718" y="-72"/>
      <point x="718" y="-33" type="curve" smooth="yes"/>
      <point x="718" y="6"/>
      <point x="686" y="38"/>
      <point x="647" y="38" type="curve" smooth="yes"/>
      <point x="606" y="38"/>
      <point x="575" y="6"/>
      <point x="575" y="-33" type="curve" smooth="yes"/>
      <point x="575" y="-72"/>
      <point x="606" y="-104"/>
    </contour>
  </outline>
</glyph>
<glyph name="dvL_KA" format="1">
  <advance width="1321"/>
  <outline>
    <contour>
      <point x="942" y="6" type="move" name="blwm"/>
    </contour>
    <contour>
      <point x="870" y="634" type="move" name="abvm_Ekaar"/>
    </contour>
    <contour>
      <point x="657" y="567" type="line"/>
      <point x="673" y="578"/>
      <point x="681" y="595"/>
      <point x="685" y="611" type="curve"/>
      <point x="673" y="625" type="line"/>
      <point x="12" y="625" type="line"/>
      <point x="-4" y="614"/>
      <point x="-14" y="597"/>
      <point x="-21" y="584" type="curve"/>
      <point x="-4" y="567" type="line"/>
    </contour>
    <contour>
      <point x="547" y="438" type="line"/>
      <point x="489" y="380"/>
      <point x="445" y="344"/>
      <point x="382" y="300" type="curve"/>
      <point x="373" y="306" type="line"/>
      <point x="390" y="324"/>
      <point x="407" y="343"/>
      <point x="423" y="361" type="curve" smooth="yes"/>
      <point x="418" y="420"/>
      <point x="389" y="463"/>
      <point x="327" y="483" type="curve"/>
      <point x="296" y="490"/>
      <point x="251" y="492"/>
      <point x="206" y="487" type="curve"/>
      <point x="103" y="444"/>
      <point x="-6" y="344"/>
      <point x="-6" y="257" type="curve" smooth="yes"/>
      <point x="-6" y="180"/>
      <point x="87" y="57"/>
      <point x="192" y="-1" type="curve"/>
      <point x="286" y="16"/>
      <point x="320" y="83"/>
      <point x="299" y="124" type="curve"/>
      <point x="212" y="166"/>
      <point x="176" y="211"/>
      <point x="158" y="266" type="curve" smooth="yes"/>
      <point x="161" y="318"/>
      <point x="209" y="381"/>
      <point x="244" y="390" type="curve"/>
      <point x="275" y="386"/>
      <point x="294" y="364"/>
      <point x="300" y="340" type="curve" smooth="yes"/>
      <point x="287" y="325"/>
      <point x="269" y="308"/>
      <point x="249" y="292" type="curve"/>
      <point x="245" y="250"/>
      <point x="292" y="202"/>
      <point x="380" y="189" type="curve"/>
      <point x="458" y="252"/>
      <point x="530" y="317"/>
      <point x="591" y="380" type="curve"/>
    </contour>
    <contour>
      <point x="846" y="427" type="line"/>
      <point x="841" y="423" type="line"/>
      <point x="808" y="463"/>
      <point x="763" y="519"/>
      <point x="735" y="519" type="curve"/>
      <point x="596" y="519"/>
      <point x="456" y="377"/>
      <point x="456" y="250" type="curve" smooth="yes"/>
      <point x="456" y="146"/>
      <point x="552" y="93"/>
      <point x="670" y="92" type="curve"/>
      <point x="721" y="148"/>
      <point x="761" y="188"/>
      <point x="805" y="232" type="curve"/>
      <point x="816" y="220" type="line"/>
      <point x="774" y="153" type="line"/>
      <point x="749" y="52" type="line"/>
      <point x="817" y="-2"/>
      <point x="918" y="-13"/>
      <point x="958" y="18" type="curve"/>
      <point x="975" y="319" type="line"/>
      <point x="985" y="358" type="line"/>
      <point x="948" y="387" type="line"/>
      <point x="992" y="460"/>
      <point x="1035" y="529"/>
      <point x="1075" y="604" type="curve"/>
      <point x="1049" y="648"/>
      <point x="1001" y="666"/>
      <point x="884" y="655" type="curve"/>
    </contour>
    <contour>
      <point x="1449" y="567" type="line"/>
      <point x="1465" y="578"/>
      <point x="1473" y="595"/>
      <point x="1477" y="611" type="curve"/>
      <point x="1465" y="625" type="line"/>
      <point x="439" y="625" type="line"/>
      <point x="423" y="614"/>
      <point x="412" y="597"/>
      <point x="405" y="584" type="curve"/>
      <point x="423" y="567" type="line"/>
    </contour>
    <contour>
      <point x="667" y="186" type="curve"/>
      <point x="645" y="197"/>
      <point x="632" y="218"/>
      <point x="632" y="256" type="curve" smooth="yes"/>
      <point x="632" y="323"/>
      <point x="688" y="403"/>
      <point x="748" y="424" type="curve" smooth="yes"/>
      <point x="775" y="410"/>
      <point x="799" y="379"/>
      <point x="824" y="345" type="curve"/>
      <point x="818" y="319" type="line"/>
      <point x="771" y="275"/>
      <point x="712" y="223"/>
    </contour>
    <contour>
      <point x="940" y="283" type="line"/>
      <point x="989" y="325"/>
      <point x="1053" y="376"/>
      <point x="1090" y="404" type="curve"/>
      <point x="1134" y="398"/>
      <point x="1159" y="372"/>
      <point x="1159" y="333" type="curve" smooth="yes"/>
      <point x="1159" y="273"/>
      <point x="1132" y="222"/>
      <point x="1033" y="152" type="curve"/>
      <point x="1023" y="127"/>
      <point x="1037" y="110"/>
      <point x="1077" y="94" type="curve"/>
      <point x="1210" y="175"/>
      <point x="1315" y="248"/>
      <point x="1315" y="371" type="curve" smooth="yes"/>
      <point x="1315" y="470"/>
      <point x="1218" y="531"/>
      <point x="1091" y="505" type="curve"/>
      <point x="1029" y="445"/>
      <point x="962" y="379"/>
      <point x="902" y="325" type="curve"/>
    </contour>
  </outline>
</glyph>
<glyph name="dvL_KHA" format="1">
  <advance width="1411"/>
  <outline>
    <contour>
      <point x="657" y="567" type="line"/>
      <point x="673" y="578"/>
      <point x="681" y="595"/>
      <point x="685" y="611" type="curve"/>
      <point x="673" y="625" type="line"/>
      <point x="12" y="625" type="line"/>
      <point x="-4" y="614"/>
      <point x="-14" y="597"/>
      <point x="-21" y="584" type="curve"/>
      <point x="-4" y="567" type="line"/>
    </contour>
    <contour>
      <point x="530" y="410" type="line"/>
      <point x="478" y="358"/>
      <point x="442" y="331"/>
      <point x="389" y="300" type="curve"/>
      <point x="380" y="306" type="line"/>
      <point x="397" y="324"/>
      <point x="414" y="343"/>
      <point x="430" y="361" type="curve" smooth="yes"/>
      <point x="425" y="420"/>
      <point x="396" y="463"/>
      <point x="334" y="483" type="curve"/>
      <point x="303" y="490"/>
      <point x="258" y="492"/>
      <point x="213" y="487" type="curve"/>
      <point x="110" y="444"/>
      <point x="1" y="344"/>
      <point x="1" y="257" type="curve" smooth="yes"/>
      <point x="1" y="180"/>
      <point x="94" y="57"/>
      <point x="199" y="-1" type="curve"/>
      <point x="293" y="16"/>
      <point x="327" y="83"/>
      <point x="306" y="124" type="curve"/>
      <point x="219" y="166"/>
      <point x="183" y="211"/>
      <point x="165" y="266" type="curve" smooth="yes"/>
      <point x="168" y="318"/>
      <point x="216" y="381"/>
      <point x="251" y="390" type="curve"/>
      <point x="282" y="386"/>
      <point x="301" y="364"/>
      <point x="307" y="340" type="curve" smooth="yes"/>
      <point x="294" y="325"/>
      <point x="276" y="308"/>
      <point x="256" y="292" type="curve"/>
      <point x="252" y="250"/>
      <point x="299" y="202"/>
      <point x="387" y="189" type="curve"/>
      <point x="466" y="251"/>
      <point x="520" y="294"/>
      <point x="574" y="357" type="curve"/>
    </contour>
    <contour>
      <point x="1539" y="567" type="line"/>
      <point x="1555" y="578"/>
      <point x="1563" y="595"/>
      <point x="1567" y="611" type="curve"/>
      <point x="1555" y="625" type="line"/>
      <point x="452" y="625" type="line"/>
      <point x="436" y="614"/>
      <point x="425" y="597"/>
      <point x="418" y="584" type="curve"/>
      <point x="436" y="567" type="line"/>
    </contour>
    <contour>
      <point x="1069" y="244" type="curve"/>
      <point x="1045" y="244"/>
      <point x="1027" y="263"/>
      <point x="1027" y="294" type="curve" smooth="yes"/>
      <point x="1027" y="341"/>
      <point x="1067" y="411"/>
      <point x="1120" y="428" type="curve" smooth="yes"/>
      <point x="1145" y="416"/>
      <point x="1162" y="386"/>
      <point x="1170" y="353" type="curve"/>
      <point x="1167" y="333" type="line"/>
      <point x="1148" y="289"/>
      <point x="1105" y="244"/>
    </contour>
    <contour>
      <point x="758" y="31" type="curve"/>
      <point x="883" y="46"/>
      <point x="1062" y="140"/>
      <point x="1140" y="204" type="curve"/>
      <point x="1150" y="192" type="line"/>
      <point x="1123" y="158" type="line"/>
      <point x="1097" y="52" type="line"/>
      <point x="1164" y="-2"/>
      <point x="1265" y="-13"/>
      <point x="1305" y="18" type="curve"/>
      <point x="1330" y="426" type="line"/>
      <point x="1423" y="604" type="line"/>
      <point x="1397" y="648"/>
      <point x="1349" y="666"/>
      <point x="1231" y="655" type="curve"/>
      <point x="1195" y="431" type="line"/>
      <point x="1189" y="428" type="line"/>
      <point x="1175" y="474"/>
      <point x="1146" y="518"/>
      <point x="1105" y="518" type="curve" smooth="yes"/>
      <point x="991" y="518"/>
      <point x="886" y="378"/>
      <point x="886" y="288" type="curve" smooth="yes"/>
      <point x="886" y="242"/>
      <point x="917" y="205"/>
      <point x="982" y="200" type="curve"/>
      <point x="986" y="195" type="line"/>
      <point x="932" y="175"/>
      <point x="858" y="147"/>
      <point x="794" y="143" type="curve" smooth="yes"/>
      <point x="729" y="163"/>
      <point x="672" y="214"/>
      <point x="630" y="262" type="curve"/>
      <point x="634" y="270" type="line"/>
      <point x="779" y="289"/>
      <point x="928" y="385"/>
      <point x="928" y="500" type="curve" smooth="yes"/>
      <point x="928" y="548"/>
      <point x="829" y="625"/>
      <point x="754" y="625" type="curve" smooth="yes"/>
      <point x="675" y="625"/>
      <point x="599" y="594"/>
      <point x="568" y="563" type="curve"/>
      <point x="548" y="524"/>
      <point x="584" y="477"/>
      <point x="651" y="456" type="curve"/>
      <point x="683" y="486"/>
      <point x="727" y="507"/>
      <point x="761" y="507" type="curve" smooth="yes"/>
      <point x="776" y="507"/>
      <point x="789" y="494"/>
      <point x="794" y="483" type="curve" smooth="yes"/>
      <point x="792" y="411"/>
      <point x="713" y="349"/>
      <point x="600" y="326" type="curve"/>
      <point x="570" y="362" type="line"/>
      <point x="509" y="361"/>
      <point x="458" y="307"/>
      <point x="451" y="240" type="curve"/>
      <point x="514" y="143"/>
      <point x="638" y="53"/>
    </contour>
  </outline>
</glyph>
<glyph name="dvL_K_YA" format="1">
  <advance width="1870"/>
  <outline>
    <contour>
      <point x="657" y="567" type="line"/>
      <point x="673" y="578"/>
      <point x="681" y="595"/>
      <point x="685" y="611" type="curve"/>
      <point x="673" y="625" type="line"/>
      <point x="12" y="625" type="line"/>
      <point x="-4" y="614"/>
      <point x="-14" y="597"/>
      <point x="-21" y="584" type="curve"/>
      <point x="-4" y="567" type="line"/>
    </contour>
    <contour>
      <point x="547" y="438" type="line"/>
      <point x="489" y="380"/>
      <point x="445" y="344"/>
      <point x="382" y="300" type="curve"/>
      <point x="373" y="306" type="line"/>
      <point x="390" y="324"/>
      <point x="407" y="343"/>
      <point x="423" y="361" type="curve" smooth="yes"/>
      <point x="418" y="420"/>
      <point x="389" y="463"/>
      <point x="327" y="483" type="curve"/>
      <point x="296" y="490"/>
      <point x="251" y="492"/>
      <point x="206" y="487" type="curve"/>
      <point x="103" y="444"/>
      <point x="-6" y="344"/>
      <point x="-6" y="257" type="curve" smooth="yes"/>
      <point x="-6" y="180"/>
      <point x="87" y="57"/>
      <point x="192" y="-1" type="curve"/>
      <point x="286" y="16"/>
      <point x="320" y="83"/>
      <point x="299" y="124" type="curve"/>
      <point x="212" y="166"/>
      <point x="176" y="211"/>
      <point x="158" y="266" type="curve" smooth="yes"/>
      <point x="161" y="318"/>
      <point x="209" y="381"/>
      <point x="244" y="390" type="curve"/>
      <point x="275" y="386"/>
      <point x="294" y="364"/>
      <point x="300" y="340" type="curve" smooth="yes"/>
      <point x="287" y="325"/>
      <point x="269" y="308"/>
      <point x="249" y="292" type="curve"/>
      <point x="245" y="250"/>
      <point x="292" y="202"/>
      <point x="380" y="189" type="curve"/>
      <point x="458" y="252"/>
      <point x="530" y="317"/>
      <point x="591" y="380" type="curve"/>
    </contour>
    <contour>
      <point x="846" y="427" type="line"/>
      <point x="841" y="423" type="line"/>
      <point x="808" y="463"/>
      <point x="763" y="519"/>
      <point x="735" y="519" type="curve"/>
      <point x="596" y="519"/>
      <point x="456" y="377"/>
      <point x="456" y="250" type="curve" smooth="yes"/>
      <point x="456" y="146"/>
      <point x="552" y="93"/>
      <point x="670" y="92" type="curve"/>
      <point x="721" y="148"/>
      <point x="761" y="188"/>
      <point x="805" y="232" type="curve"/>
      <point x="816" y="220" type="line"/>
      <point x="774" y="153" type="line"/>
      <point x="749" y="52" type="line"/>
      <point x="817" y="-2"/>
      <point x="918" y="-13"/>
      <point x="958" y="18" type="curve"/>
      <point x="975" y="319" type="line"/>
      <point x="985" y="358" type="line"/>
      <point x="948" y="387" type="line"/>
      <point x="992" y="460"/>
      <point x="1035" y="529"/>
      <point x="1075" y="604" type="curve"/>
      <point x="1049" y="648"/>
      <point x="1001" y="666"/>
      <point x="884" y="655" type="curve"/>
    </contour>
    <contour>
      <point x="1280" y="567" type="line"/>
      <point x="1296" y="578"/>
      <point x="1304" y="595"/>
      <point x="1308" y="611" type="curve"/>
      <point x="1296" y="625" type="line"/>
      <point x="439" y="625" type="line"/>
      <point x="423" y="614"/>
      <point x="412" y="597"/>
      <point x="405" y="584" type="curve"/>
      <point x="423" y="567" type="line"/>
    </contour>
    <contour>
      <point x="667" y="186" type="curve"/>
      <point x="645" y="197"/>
      <point x="632" y="218"/>
      <point x="632" y="256" type="curve" smooth="yes"/>
      <point x="632" y="323"/>
      <point x="688" y="403"/>
      <point x="748" y="424" type="curve" smooth="yes"/>
      <point x="775" y="410"/>
      <point x="799" y="379"/>
      <point x="824" y="345" type="curve"/>
      <point x="818" y="319" type="line"/>
      <point x="771" y="275"/>
      <point x="712" y="223"/>
    </contour>
    <contour>
      <point x="1289" y="345" type="line"/>
      <point x="1274" y="435"/>
      <point x="1214" y="511"/>
      <point x="1091" y="505" type="curve"/>
      <point x="1029" y="445"/>
      <point x="962" y="379"/>
      <point x="902" y="325" type="curve"/>
      <point x="940" y="283" type="line"/>
      <point x="989" y="325"/>
      <point x="1053" y="376"/>
      <point x="1090" y="404" type="curve"/>
      <point x="1136" y="401"/>
      <point x="1178" y="355"/>
      <point x="1178" y="283" type="curve"/>
    </contour>
    <contour>
      <point x="1884" y="604" type="line"/>
      <point x="1858" y="648"/>
      <point x="1810" y="666"/>
      <point x="1693" y="655" type="curve"/>
      <point x="1610" y="282" type="line"/>
      <point x="1636" y="256" type="line"/>
      <point x="1591" y="192" type="line"/>
      <point x="1559" y="52" type="line"/>
      <point x="1626" y="-2"/>
      <point x="1727" y="-13"/>
      <point x="1767" y="18" type="curve"/>
      <point x="1791" y="426" type="line"/>
    </contour>
    <contour>
      <point x="1998" y="567" type="line"/>
      <point x="2013" y="578"/>
      <point x="2021" y="595"/>
      <point x="2025" y="611" type="curve"/>
      <point x="2013" y="625" type="line"/>
      <point x="1141" y="625" type="line"/>
      <point x="1125" y="614"/>
      <point x="1113" y="597"/>
      <point x="1107" y="584" type="curve"/>
      <point x="1125" y="567" type="line"/>
    </contour>
    <contour>
      <point x="1219" y="570" type="curve"/>
      <point x="1196" y="527"/>
      <point x="1234" y="481"/>
      <point x="1307" y="463" type="curve"/>
      <point x="1331" y="479"/>
      <point x="1357" y="492"/>
      <point x="1384" y="496" type="curve" smooth="yes"/>
      <point x="1405" y="499"/>
      <point x="1428" y="497"/>
      <point x="1443" y="487" type="curve" smooth="yes"/>
      <point x="1429" y="373"/>
      <point x="1160" y="329"/>
      <point x="1160" y="257" type="curve" smooth="yes"/>
      <point x="1160" y="187"/>
      <point x="1285" y="102"/>
      <point x="1356" y="102" type="curve" smooth="yes"/>
      <point x="1427" y="102"/>
      <point x="1619" y="237"/>
      <point x="1680" y="338" type="curve"/>
      <point x="1632" y="379" type="line"/>
      <point x="1574" y="303"/>
      <point x="1495" y="247"/>
      <point x="1423" y="218" type="curve" smooth="yes"/>
      <point x="1395" y="219"/>
      <point x="1353" y="248"/>
      <point x="1359" y="280" type="curve" smooth="yes"/>
      <point x="1427" y="335"/>
      <point x="1583" y="427"/>
      <point x="1583" y="512" type="curve" smooth="yes"/>
      <point x="1583" y="561"/>
      <point x="1503" y="625"/>
      <point x="1405" y="625" type="curve" smooth="yes"/>
      <point x="1351" y="625"/>
      <point x="1267" y="606"/>
    </contour>
  </outline>
</glyph>
<glyph name="dvL_LA" format="1">
  <advance width="1240"/>
  <outline>
    <contour>
      <point x="657" y="567" type="line"/>
      <point x="673" y="578"/>
      <point x="681" y="595"/>
      <point x="685" y="611" type="curve"/>
      <point x="673" y="625" type="line"/>
      <point x="12" y="625" type="line"/>
      <point x="-4" y="614"/>
      <point x="-14" y="597"/>
      <point x="-21" y="584" type="curve"/>
      <point x="-4" y="567" type="line"/>
    </contour>
    <contour>
      <point x="540" y="413" type="line"/>
      <point x="491" y="372"/>
      <point x="437" y="335"/>
      <point x="381" y="298" type="curve"/>
      <point x="373" y="304" type="line"/>
      <point x="390" y="322"/>
      <point x="407" y="343"/>
      <point x="423" y="361" type="curve" smooth="yes"/>
      <point x="418" y="420"/>
      <point x="389" y="463"/>
      <point x="327" y="483" type="curve"/>
      <point x="296" y="490"/>
      <point x="251" y="492"/>
      <point x="206" y="487" type="curve"/>
      <point x="103" y="444"/>
      <point x="-6" y="344"/>
      <point x="-6" y="257" type="curve" smooth="yes"/>
      <point x="-6" y="180"/>
      <point x="87" y="57"/>
      <point x="192" y="-1" type="curve"/>
      <point x="286" y="16"/>
      <point x="320" y="83"/>
      <point x="299" y="124" type="curve"/>
      <point x="212" y="166"/>
      <point x="176" y="211"/>
      <point x="158" y="266" type="curve" smooth="yes"/>
      <point x="161" y="318"/>
      <point x="209" y="381"/>
      <point x="244" y="390" type="curve"/>
      <point x="275" y="386"/>
      <point x="294" y="364"/>
      <point x="300" y="340" type="curve" smooth="yes"/>
      <point x="287" y="325"/>
      <point x="269" y="308"/>
      <point x="249" y="292" type="curve"/>
      <point x="245" y="250"/>
      <point x="292" y="202"/>
      <point x="380" y="189" type="curve"/>
      <point x="453" y="248"/>
      <point x="524" y="304"/>
      <point x="581" y="360" type="curve"/>
    </contour>
    <contour>
      <point x="1255" y="604" type="line"/>
      <point x="1229" y="648"/>
      <point x="1181" y="666"/>
      <point x="1064" y="655" type="curve"/>
      <point x="997" y="357" type="line"/>
      <point x="1016" y="336" type="line"/>
      <point x="979" y="277" type="line"/>
      <point x="929" y="52" type="line"/>
      <point x="996" y="-2"/>
      <point x="1097" y="-13"/>
      <point x="1138" y="18" type="curve"/>
      <point x="1162" y="426" type="line"/>
    </contour>
    <contour>
      <point x="1368" y="567" type="line"/>
      <point x="1384" y="578"/>
      <point x="1392" y="595"/>
      <point x="1396" y="611" type="curve"/>
      <point x="1384" y="625" type="line"/>
      <point x="465" y="625" type="line"/>
      <point x="449" y="614"/>
      <point x="438" y="597"/>
      <point x="432" y="584" type="curve"/>
      <point x="449" y="567" type="line"/>
    </contour>
    <contour>
      <point x="821" y="298" type="line"/>
      <point x="839" y="317"/>
      <point x="858" y="338"/>
      <point x="875" y="358" type="curve"/>
      <point x="869" y="418"/>
      <point x="841" y="462"/>
      <point x="778" y="483" type="curve"/>
      <point x="749" y="490"/>
      <point x="705" y="492"/>
      <point x="661" y="488" type="curve"/>
      <point x="557" y="445"/>
      <point x="447" y="341"/>
      <point x="447" y="256" type="curve" smooth="yes"/>
      <point x="447" y="180"/>
      <point x="538" y="58"/>
      <point x="645" y="0" type="curve"/>
      <point x="742" y="18"/>
      <point x="776" y="84"/>
      <point x="750" y="127" type="curve"/>
      <point x="663" y="164"/>
      <point x="627" y="210"/>
      <point x="606" y="271" type="curve"/>
      <point x="611" y="320"/>
      <point x="664" y="388"/>
      <point x="698" y="393" type="curve"/>
      <point x="729" y="389"/>
      <point x="748" y="363"/>
      <point x="755" y="336" type="curve"/>
      <point x="739" y="322"/>
      <point x="722" y="308"/>
      <point x="703" y="294" type="curve"/>
      <point x="696" y="250"/>
      <point x="740" y="202"/>
      <point x="832" y="189" type="curve"/>
      <point x="914" y="255"/>
      <point x="1002" y="335"/>
      <point x="1059" y="396" type="curve"/>
      <point x="1020" y="457" type="line"/>
      <point x="961" y="393"/>
      <point x="890" y="331"/>
      <point x="829" y="292" type="curve"/>
    </contour>
  </outline>
</glyph>
<glyph name="dvL_L_YA" format="1">
  <advance width="1581"/>
  <outline>
    <contour>
      <point x="657" y="567" type="line"/>
      <point x="673" y="578"/>
      <point x="681" y="595"/>
      <point x="685" y="611" type="curve"/>
      <point x="673" y="625" type="line"/>
      <point x="12" y="625" type="line"/>
      <point x="-4" y="614"/>
      <point x="-14" y="597"/>
      <point x="-21" y="584" type="curve"/>
      <point x="-4" y="567" type="line"/>
    </contour>
    <contour>
      <point x="540" y="413" type="line"/>
      <point x="491" y="372"/>
      <point x="437" y="335"/>
      <point x="381" y="298" type="curve"/>
      <point x="373" y="304" type="line"/>
      <point x="390" y="322"/>
      <point x="407" y="343"/>
      <point x="423" y="361" type="curve" smooth="yes"/>
      <point x="418" y="420"/>
      <point x="389" y="463"/>
      <point x="327" y="483" type="curve"/>
      <point x="296" y="490"/>
      <point x="251" y="492"/>
      <point x="206" y="487" type="curve"/>
      <point x="103" y="444"/>
      <point x="-6" y="344"/>
      <point x="-6" y="257" type="curve" smooth="yes"/>
      <point x="-6" y="180"/>
      <point x="87" y="57"/>
      <point x="192" y="-1" type="curve"/>
      <point x="286" y="16"/>
      <point x="320" y="83"/>
      <point x="299" y="124" type="curve"/>
      <point x="212" y="166"/>
      <point x="176" y="211"/>
      <point x="158" y="266" type="curve" smooth="yes"/>
      <point x="161" y="318"/>
      <point x="209" y="381"/>
      <point x="244" y="390" type="curve"/>
      <point x="275" y="386"/>
      <point x="294" y="364"/>
      <point x="300" y="340" type="curve" smooth="yes"/>
      <point x="287" y="325"/>
      <point x="269" y="308"/>
      <point x="249" y="292" type="curve"/>
      <point x="245" y="250"/>
      <point x="292" y="202"/>
      <point x="380" y="189" type="curve"/>
      <point x="453" y="248"/>
      <point x="524" y="304"/>
      <point x="581" y="360" type="curve"/>
    </contour>
    <contour>
      <point x="1111" y="567" type="line"/>
      <point x="1126" y="578"/>
      <point x="1134" y="595"/>
      <point x="1138" y="611" type="curve"/>
      <point x="1126" y="625" type="line"/>
      <point x="466" y="625" type="line"/>
      <point x="450" y="614"/>
      <point x="440" y="597"/>
      <point x="433" y="584" type="curve"/>
      <point x="450" y="567" type="line"/>
    </contour>
    <contour>
      <point x="1025" y="361" type="line"/>
      <point x="957" y="322"/>
      <point x="893" y="305"/>
      <point x="834" y="295" type="curve"/>
      <point x="825" y="301" type="line"/>
      <point x="844" y="321"/>
      <point x="861" y="343"/>
      <point x="877" y="361" type="curve" smooth="yes"/>
      <point x="872" y="420"/>
      <point x="843" y="463"/>
      <point x="781" y="483" type="curve"/>
      <point x="750" y="490"/>
      <point x="705" y="492"/>
      <point x="660" y="487" type="curve"/>
      <point x="557" y="444"/>
      <point x="448" y="344"/>
      <point x="448" y="257" type="curve" smooth="yes"/>
      <point x="448" y="180"/>
      <point x="541" y="57"/>
      <point x="646" y="-1" type="curve"/>
      <point x="740" y="16"/>
      <point x="774" y="83"/>
      <point x="753" y="124" type="curve"/>
      <point x="666" y="166"/>
      <point x="630" y="211"/>
      <point x="612" y="266" type="curve" smooth="yes"/>
      <point x="615" y="318"/>
      <point x="663" y="381"/>
      <point x="698" y="390" type="curve"/>
      <point x="728" y="386"/>
      <point x="748" y="364"/>
      <point x="754" y="340" type="curve" smooth="yes"/>
      <point x="740" y="325"/>
      <point x="723" y="308"/>
      <point x="703" y="292" type="curve"/>
      <point x="697" y="249"/>
      <point x="744" y="201"/>
      <point x="833" y="189" type="curve"/>
      <point x="923" y="217"/>
      <point x="1001" y="262"/>
      <point x="1063" y="308" type="curve"/>
    </contour>
    <contour>
      <point x="1596" y="604" type="line"/>
      <point x="1570" y="648"/>
      <point x="1522" y="666"/>
      <point x="1404" y="655" type="curve"/>
      <point x="1322" y="282" type="line"/>
      <point x="1347" y="256" type="line"/>
      <point x="1302" y="192" type="line"/>
      <point x="1270" y="52" type="line"/>
      <point x="1337" y="-2"/>
      <point x="1438" y="-13"/>
      <point x="1478" y="18" type="curve"/>
      <point x="1502" y="426" type="line"/>
    </contour>
    <contour>
      <point x="1709" y="567" type="line"/>
      <point x="1725" y="578"/>
      <point x="1733" y="595"/>
      <point x="1737" y="611" type="curve"/>
      <point x="1725" y="625" type="line"/>
      <point x="853" y="625" type="line"/>
      <point x="836" y="614"/>
      <point x="825" y="597"/>
      <point x="818" y="584" type="curve"/>
      <point x="836" y="567" type="line"/>
    </contour>
    <contour>
      <point x="931" y="570" type="curve"/>
      <point x="908" y="527"/>
      <point x="945" y="481"/>
      <point x="1018" y="463" type="curve"/>
      <point x="1043" y="479"/>
      <point x="1068" y="492"/>
      <point x="1096" y="496" type="curve" smooth="yes"/>
      <point x="1116" y="499"/>
      <point x="1139" y="497"/>
      <point x="1154" y="487" type="curve" smooth="yes"/>
      <point x="1140" y="373"/>
      <point x="871" y="329"/>
      <point x="871" y="257" type="curve" smooth="yes"/>
      <point x="871" y="187"/>
      <point x="996" y="102"/>
      <point x="1068" y="102" type="curve" smooth="yes"/>
      <point x="1138" y="102"/>
      <point x="1330" y="237"/>
      <point x="1391" y="338" type="curve"/>
      <point x="1344" y="379" type="line"/>
      <point x="1285" y="303"/>
      <point x="1206" y="247"/>
      <point x="1134" y="218" type="curve" smooth="yes"/>
      <point x="1107" y="219"/>
      <point x="1064" y="248"/>
      <point x="1071" y="280" type="curve" smooth="yes"/>
      <point x="1138" y="335"/>
      <point x="1294" y="427"/>
      <point x="1294" y="512" type="curve" smooth="yes"/>
      <point x="1294" y="561"/>
      <point x="1214" y="625"/>
      <point x="1116" y="625" type="curve" smooth="yes"/>
      <point x="1063" y="625"/>
      <point x="979" y="606"/>
    </contour>
  </outline>
</glyph>
<glyph name="dvL_MA" format="1">
  <advance width="1210"/>
  <outline>
    <contour>
      <point x="657" y="567" type="line"/>
      <point x="672" y="578"/>
      <point x="681" y="594"/>
      <point x="685" y="611" type="curve"/>
      <point x="673" y="625" type="line"/>
      <point x="12" y="625" type="line"/>
      <point x="-3" y="614"/>
      <point x="-14" y="598"/>
      <point x="-21" y="584" type="curve"/>
      <point x="-4" y="567" type="line"/>
    </contour>
    <contour>
      <point x="535" y="332" type="line"/>
      <point x="487" y="317"/>
      <point x="428" y="300"/>
      <point x="379" y="295" type="curve"/>
      <point x="371" y="301" type="line"/>
      <point x="389" y="320"/>
      <point x="407" y="343"/>
      <point x="423" y="361" type="curve" smooth="yes"/>
      <point x="418" y="420"/>
      <point x="389" y="463"/>
      <point x="327" y="483" type="curve"/>
      <point x="296" y="490"/>
      <point x="251" y="492"/>
      <point x="206" y="487" type="curve"/>
      <point x="103" y="444"/>
      <point x="-6" y="344"/>
      <point x="-6" y="257" type="curve" smooth="yes"/>
      <point x="-6" y="180"/>
      <point x="87" y="57"/>
      <point x="192" y="-1" type="curve"/>
      <point x="286" y="16"/>
      <point x="320" y="83"/>
      <point x="299" y="124" type="curve"/>
      <point x="212" y="166"/>
      <point x="176" y="211"/>
      <point x="158" y="266" type="curve" smooth="yes"/>
      <point x="161" y="318"/>
      <point x="209" y="381"/>
      <point x="244" y="390" type="curve"/>
      <point x="275" y="386"/>
      <point x="294" y="364"/>
      <point x="300" y="340" type="curve" smooth="yes"/>
      <point x="287" y="325"/>
      <point x="269" y="308"/>
      <point x="249" y="292" type="curve"/>
      <point x="245" y="250"/>
      <point x="293" y="201"/>
      <point x="380" y="188" type="curve"/>
      <point x="437" y="204"/>
      <point x="508" y="236"/>
      <point x="571" y="280" type="curve"/>
    </contour>
    <contour>
      <point x="1338" y="567" type="line"/>
      <point x="1354" y="578"/>
      <point x="1362" y="595"/>
      <point x="1366" y="611" type="curve"/>
      <point x="1354" y="625" type="line"/>
      <point x="471" y="625" type="line"/>
      <point x="455" y="614"/>
      <point x="445" y="597"/>
      <point x="438" y="584" type="curve"/>
      <point x="455" y="567" type="line"/>
    </contour>
    <contour>
      <point x="647" y="195" type="line"/>
      <point x="612" y="209"/>
      <point x="584" y="233"/>
      <point x="564" y="273" type="curve"/>
      <point x="544" y="248" type="line"/>
      <point x="706" y="312"/>
      <point x="875" y="385"/>
      <point x="1026" y="468" type="curve"/>
      <point x="1000" y="523" type="line"/>
      <point x="872" y="449"/>
      <point x="647" y="360"/>
      <point x="507" y="315" type="curve"/>
      <point x="472" y="296"/>
      <point x="462" y="260"/>
      <point x="462" y="213" type="curve"/>
      <point x="492" y="159"/>
      <point x="554" y="114"/>
      <point x="615" y="99" type="curve"/>
      <point x="673" y="94"/>
      <point x="751" y="112"/>
      <point x="786" y="154" type="curve"/>
      <point x="833" y="260"/>
      <point x="868" y="468"/>
      <point x="870" y="611" type="curve"/>
      <point x="679" y="587" type="line"/>
      <point x="712" y="474" type="line"/>
      <point x="715" y="376"/>
      <point x="690" y="275"/>
      <point x="658" y="201" type="curve"/>
    </contour>
    <contour>
      <point x="1190" y="469" type="line"/>
      <point x="1163" y="514"/>
      <point x="1114" y="533"/>
      <point x="1000" y="523" type="curve"/>
      <point x="972" y="440" type="line"/>
      <point x="983" y="434" type="line"/>
      <point x="895" y="52" type="line"/>
      <point x="962" y="-2"/>
      <point x="1063" y="-13"/>
      <point x="1103" y="18" type="curve"/>
      <point x="1115" y="356" type="line"/>
    </contour>
  </outline>
</glyph>
<glyph name="dvL_PA" format="1">
  <advance width="1130"/>
  <outline>
    <contour>
      <point x="373" y="306" type="line"/>
      <point x="390" y="324"/>
      <point x="407" y="343"/>
      <point x="423" y="361" type="curve" smooth="yes"/>
      <point x="418" y="420"/>
      <point x="389" y="463"/>
      <point x="327" y="483" type="curve"/>
      <point x="296" y="490"/>
      <point x="251" y="492"/>
      <point x="206" y="487" type="curve"/>
      <point x="103" y="444"/>
      <point x="-6" y="344"/>
      <point x="-6" y="257" type="curve" smooth="yes"/>
      <point x="-6" y="180"/>
      <point x="87" y="57"/>
      <point x="192" y="-1" type="curve"/>
      <point x="286" y="16"/>
      <point x="320" y="83"/>
      <point x="299" y="124" type="curve"/>
      <point x="212" y="166"/>
      <point x="176" y="211"/>
      <point x="158" y="266" type="curve" smooth="yes"/>
      <point x="161" y="318"/>
      <point x="209" y="381"/>
      <point x="244" y="390" type="curve"/>
      <point x="275" y="386"/>
      <point x="294" y="364"/>
      <point x="300" y="340" type="curve" smooth="yes"/>
      <point x="287" y="325"/>
      <point x="269" y="308"/>
      <point x="249" y="292" type="curve"/>
      <point x="245" y="250"/>
      <point x="292" y="202"/>
      <point x="380" y="189" type="curve"/>
      <point x="458" y="252"/>
      <point x="546" y="332"/>
      <point x="607" y="396" type="curve"/>
      <point x="568" y="459" type="line"/>
      <point x="513" y="400"/>
      <point x="447" y="344"/>
      <point x="382" y="300" type="curve"/>
    </contour>
    <contour>
      <point x="657" y="567" type="line"/>
      <point x="673" y="578"/>
      <point x="681" y="595"/>
      <point x="685" y="611" type="curve"/>
      <point x="673" y="625" type="line"/>
      <point x="12" y="625" type="line"/>
      <point x="-4" y="614"/>
      <point x="-14" y="597"/>
      <point x="-21" y="584" type="curve"/>
      <point x="-4" y="567" type="line"/>
    </contour>
    <contour>
      <point x="1145" y="604" type="line"/>
      <point x="1119" y="648"/>
      <point x="1071" y="666"/>
      <point x="954" y="655" type="curve"/>
      <point x="883" y="338" type="line"/>
      <point x="900" y="322" type="line"/>
      <point x="868" y="268" type="line"/>
      <point x="819" y="52" type="line"/>
      <point x="886" y="-2"/>
      <point x="987" y="-13"/>
      <point x="1028" y="18" type="curve"/>
      <point x="1052" y="426" type="line"/>
    </contour>
    <contour>
      <point x="1258" y="567" type="line"/>
      <point x="1274" y="578"/>
      <point x="1282" y="595"/>
      <point x="1286" y="611" type="curve"/>
      <point x="1274" y="625" type="line"/>
      <point x="475" y="625" type="line"/>
      <point x="459" y="614"/>
      <point x="449" y="597"/>
      <point x="442" y="584" type="curve"/>
      <point x="459" y="567" type="line"/>
    </contour>
    <contour>
      <point x="595" y="602" type="line"/>
      <point x="549" y="478"/>
      <point x="518" y="372"/>
      <point x="491" y="243" type="curve"/>
      <point x="504" y="175"/>
      <point x="592" y="140"/>
      <point x="676" y="137" type="curve"/>
      <point x="762" y="211"/>
      <point x="862" y="302"/>
      <point x="940" y="375" type="curve"/>
      <point x="902" y="418" type="line"/>
      <point x="834" y="355"/>
      <point x="736" y="288"/>
      <point x="667" y="242" type="curve"/>
      <point x="657" y="247" type="line"/>
      <point x="670" y="330"/>
      <point x="692" y="399"/>
      <point x="714" y="465" type="curve"/>
      <point x="787" y="577" type="line"/>
    </contour>
  </outline>
</glyph>
<glyph name="dvL_PHA" format="1">
  <advance width="1422"/>
  <outline>
    <contour>
      <point x="1005" y="6" type="move" name="blwm"/>
    </contour>
    <contour>
      <point x="933" y="634" type="move" name="abvm_Ekaar"/>
    </contour>
    <contour>
      <point x="373" y="306" type="line"/>
      <point x="390" y="324"/>
      <point x="407" y="343"/>
      <point x="423" y="361" type="curve" smooth="yes"/>
      <point x="418" y="420"/>
      <point x="389" y="463"/>
      <point x="327" y="483" type="curve"/>
      <point x="296" y="490"/>
      <point x="251" y="492"/>
      <point x="206" y="487" type="curve"/>
      <point x="103" y="444"/>
      <point x="-6" y="344"/>
      <point x="-6" y="257" type="curve" smooth="yes"/>
      <point x="-6" y="180"/>
      <point x="87" y="57"/>
      <point x="192" y="-1" type="curve"/>
      <point x="286" y="16"/>
      <point x="320" y="83"/>
      <point x="299" y="124" type="curve"/>
      <point x="212" y="166"/>
      <point x="176" y="211"/>
      <point x="158" y="266" type="curve" smooth="yes"/>
      <point x="161" y="318"/>
      <point x="209" y="381"/>
      <point x="244" y="390" type="curve"/>
      <point x="275" y="386"/>
      <point x="294" y="364"/>
      <point x="300" y="340" type="curve" smooth="yes"/>
      <point x="287" y="325"/>
      <point x="269" y="308"/>
      <point x="249" y="292" type="curve"/>
      <point x="245" y="250"/>
      <point x="292" y="202"/>
      <point x="380" y="189" type="curve"/>
      <point x="458" y="252"/>
      <point x="546" y="332"/>
      <point x="607" y="396" type="curve"/>
      <point x="568" y="459" type="line"/>
      <point x="513" y="400"/>
      <point x="447" y="344"/>
      <point x="382" y="300" type="curve"/>
    </contour>
    <contour>
      <point x="657" y="567" type="line"/>
      <point x="673" y="578"/>
      <point x="681" y="595"/>
      <point x="685" y="611" type="curve"/>
      <point x="673" y="625" type="line"/>
      <point x="12" y="625" type="line"/>
      <point x="-4" y="614"/>
      <point x="-14" y="597"/>
      <point x="-21" y="584" type="curve"/>
      <point x="-4" y="567" type="line"/>
    </contour>
    <contour>
      <point x="1139" y="604" type="line"/>
      <point x="1113" y="648"/>
      <point x="1065" y="666"/>
      <point x="947" y="655" type="curve"/>
      <point x="875" y="330" type="line"/>
      <point x="891" y="314" type="line"/>
      <point x="860" y="261" type="line"/>
      <point x="813" y="52" type="line"/>
      <point x="880" y="-2"/>
      <point x="981" y="-13"/>
      <point x="1021" y="18" type="curve"/>
      <point x="1041" y="347" type="line"/>
      <point x="1012" y="375" type="line"/>
      <point x="1046" y="426" type="line"/>
    </contour>
    <contour>
      <point x="1543" y="567" type="line"/>
      <point x="1559" y="578"/>
      <point x="1567" y="595"/>
      <point x="1571" y="611" type="curve"/>
      <point x="1559" y="625" type="line"/>
      <point x="476" y="625" type="line"/>
      <point x="460" y="614"/>
      <point x="449" y="597"/>
      <point x="443" y="584" type="curve"/>
      <point x="460" y="567" type="line"/>
    </contour>
    <contour>
      <point x="1032" y="297" type="line"/>
      <point x="1084" y="340"/>
      <point x="1147" y="386"/>
      <point x="1192" y="421" type="curve"/>
      <point x="1238" y="412"/>
      <point x="1262" y="385"/>
      <point x="1262" y="345" type="curve" smooth="yes"/>
      <point x="1262" y="280"/>
      <point x="1223" y="232"/>
      <point x="1121" y="164" type="curve"/>
      <point x="1168" y="108" type="line"/>
      <point x="1300" y="188"/>
      <point x="1418" y="253"/>
      <point x="1418" y="385" type="curve" smooth="yes"/>
      <point x="1418" y="482"/>
      <point x="1325" y="546"/>
      <point x="1195" y="523" type="curve"/>
      <point x="1127" y="459"/>
      <point x="1059" y="395"/>
      <point x="993" y="339" type="curve"/>
    </contour>
    <contour>
      <point x="603" y="602" type="line"/>
      <point x="552" y="472"/>
      <point x="522" y="368"/>
      <point x="496" y="239" type="curve"/>
      <point x="506" y="177"/>
      <point x="590" y="142"/>
      <point x="677" y="138" type="curve"/>
      <point x="766" y="214"/>
      <point x="848" y="289"/>
      <point x="933" y="368" type="curve"/>
      <point x="895" y="411" type="line"/>
      <point x="823" y="346"/>
      <point x="737" y="288"/>
      <point x="668" y="243" type="curve"/>
      <point x="658" y="248" type="line"/>
      <point x="672" y="331"/>
      <point x="695" y="400"/>
      <point x="717" y="465" type="curve"/>
      <point x="791" y="577" type="line"/>
    </contour>
  </outline>
</glyph>
<glyph name="dvL_RA" format="1">
  <advance width="788"/>
  <outline>
    <contour>
      <point x="534" y="214" type="line"/>
      <point x="459" y="149"/>
      <point x="403" y="114"/>
      <point x="298" y="63" type="curve"/>
      <point x="281" y="17"/>
      <point x="305" y="-21"/>
      <point x="372" y="-43" type="curve"/>
      <point x="448" y="25"/>
      <point x="486" y="66"/>
      <point x="541" y="128" type="curve"/>
      <point x="552" y="120" type="line"/>
      <point x="514" y="41" type="line"/>
      <point x="575" y="-2"/>
      <point x="665" y="-12"/>
      <point x="706" y="18" type="curve"/>
      <point x="730" y="426" type="line"/>
      <point x="823" y="604" type="line"/>
      <point x="797" y="648"/>
      <point x="749" y="666"/>
      <point x="632" y="655" type="curve"/>
      <point x="566" y="357" type="line"/>
      <point x="584" y="336" type="line"/>
      <point x="548" y="276" type="line"/>
    </contour>
    <contour>
      <point x="937" y="567" type="line"/>
      <point x="952" y="578"/>
      <point x="960" y="595"/>
      <point x="964" y="611" type="curve"/>
      <point x="952" y="625" type="line"/>
      <point x="12" y="625" type="line"/>
      <point x="-4" y="614"/>
      <point x="-14" y="597"/>
      <point x="-21" y="584" type="curve"/>
      <point x="-4" y="567" type="line"/>
    </contour>
    <contour>
      <point x="380" y="306" type="line"/>
      <point x="395" y="324"/>
      <point x="409" y="343"/>
      <point x="423" y="361" type="curve" smooth="yes"/>
      <point x="419" y="414"/>
      <point x="394" y="455"/>
      <point x="344" y="478" type="curve"/>
      <point x="311" y="489"/>
      <point x="261" y="492"/>
      <point x="206" y="487" type="curve"/>
      <point x="103" y="444"/>
      <point x="-6" y="344"/>
      <point x="-6" y="257" type="curve" smooth="yes"/>
      <point x="-6" y="190"/>
      <point x="68" y="75"/>
      <point x="173" y="-1" type="curve"/>
      <point x="267" y="16"/>
      <point x="297" y="83"/>
      <point x="281" y="124" type="curve"/>
      <point x="204" y="174"/>
      <point x="176" y="216"/>
      <point x="158" y="266" type="curve" smooth="yes"/>
      <point x="161" y="318"/>
      <point x="209" y="381"/>
      <point x="244" y="390" type="curve"/>
      <point x="275" y="386"/>
      <point x="294" y="364"/>
      <point x="300" y="340" type="curve" smooth="yes"/>
      <point x="289" y="325"/>
      <point x="274" y="308"/>
      <point x="256" y="292" type="curve"/>
      <point x="252" y="250"/>
      <point x="299" y="202"/>
      <point x="387" y="189" type="curve"/>
      <point x="465" y="252"/>
      <point x="567" y="332"/>
      <point x="628" y="396" type="curve"/>
      <point x="589" y="459" type="line"/>
      <point x="534" y="400"/>
      <point x="454" y="344"/>
      <point x="389" y="300" type="curve"/>
    </contour>
  </outline>
</glyph>
<glyph name="dvL_SA" format="1">
  <advance width="1318"/>
  <outline>
    <contour>
      <point x="657" y="567" type="line"/>
      <point x="673" y="578"/>
      <point x="681" y="595"/>
      <point x="685" y="611" type="curve"/>
      <point x="673" y="625" type="line"/>
      <point x="12" y="625" type="line"/>
      <point x="-4" y="614"/>
      <point x="-14" y="597"/>
      <point x="-21" y="584" type="curve"/>
      <point x="-4" y="567" type="line"/>
    </contour>
    <contour>
      <point x="534" y="406" type="line"/>
      <point x="507" y="387"/>
      <point x="482" y="369"/>
      <point x="460" y="344" type="curve"/>
      <point x="434" y="326"/>
      <point x="408" y="309"/>
      <point x="379" y="295" type="curve"/>
      <point x="370" y="301" type="line"/>
      <point x="389" y="320"/>
      <point x="407" y="343"/>
      <point x="423" y="361" type="curve" smooth="yes"/>
      <point x="418" y="420"/>
      <point x="389" y="463"/>
      <point x="327" y="483" type="curve"/>
      <point x="296" y="490"/>
      <point x="251" y="492"/>
      <point x="206" y="487" type="curve"/>
      <point x="103" y="444"/>
      <point x="-6" y="344"/>
      <point x="-6" y="257" type="curve" smooth="yes"/>
      <point x="-6" y="180"/>
      <point x="87" y="57"/>
      <point x="192" y="-1" type="curve"/>
      <point x="286" y="16"/>
      <point x="320" y="83"/>
      <point x="299" y="124" type="curve"/>
      <point x="212" y="166"/>
      <point x="176" y="211"/>
      <point x="158" y="266" type="curve" smooth="yes"/>
      <point x="161" y="318"/>
      <point x="209" y="381"/>
      <point x="244" y="390" type="curve"/>
      <point x="275" y="386"/>
      <point x="294" y="364"/>
      <point x="300" y="340" type="curve" smooth="yes"/>
      <point x="287" y="325"/>
      <point x="269" y="308"/>
      <point x="249" y="292" type="curve"/>
      <point x="245" y="250"/>
      <point x="292" y="202"/>
      <point x="380" y="189" type="curve"/>
      <point x="457" y="250"/>
      <point x="519" y="293"/>
      <point x="576" y="355" type="curve"/>
    </contour>
    <contour>
      <point x="718" y="298" type="line"/>
      <point x="752" y="281"/>
      <point x="827" y="251"/>
      <point x="865" y="251" type="curve" smooth="yes"/>
      <point x="927" y="251"/>
      <point x="1081" y="313"/>
      <point x="1147" y="379" type="curve"/>
      <point x="1094" y="440" type="line"/>
      <point x="1042" y="381"/>
      <point x="914" y="327"/>
      <point x="871" y="327" type="curve" smooth="yes"/>
      <point x="844" y="327"/>
      <point x="808" y="336"/>
      <point x="784" y="347" type="curve"/>
    </contour>
    <contour>
      <point x="1333" y="604" type="line"/>
      <point x="1307" y="648"/>
      <point x="1259" y="666"/>
      <point x="1141" y="655" type="curve"/>
      <point x="1074" y="350" type="line"/>
      <point x="1098" y="324" type="line"/>
      <point x="1055" y="266" type="line"/>
      <point x="1007" y="52" type="line"/>
      <point x="1074" y="-2"/>
      <point x="1175" y="-13"/>
      <point x="1215" y="18" type="curve"/>
      <point x="1239" y="426" type="line"/>
    </contour>
    <contour>
      <point x="1446" y="567" type="line"/>
      <point x="1462" y="578"/>
      <point x="1470" y="595"/>
      <point x="1474" y="611" type="curve"/>
      <point x="1462" y="625" type="line"/>
      <point x="457" y="625" type="line"/>
      <point x="441" y="614"/>
      <point x="430" y="597"/>
      <point x="423" y="584" type="curve"/>
      <point x="441" y="567" type="line"/>
    </contour>
    <contour>
      <point x="967" y="500" type="curve"/>
      <point x="967" y="548"/>
      <point x="858" y="625"/>
      <point x="769" y="625" type="curve" smooth="yes"/>
      <point x="706" y="625"/>
      <point x="624" y="604"/>
      <point x="567" y="563" type="curve"/>
      <point x="547" y="524"/>
      <point x="584" y="477"/>
      <point x="651" y="456" type="curve"/>
      <point x="694" y="487"/>
      <point x="746" y="510"/>
      <point x="789" y="510" type="curve" smooth="yes"/>
      <point x="808" y="510"/>
      <point x="825" y="496"/>
      <point x="832" y="483" type="curve" smooth="yes"/>
      <point x="825" y="418"/>
      <point x="723" y="346"/>
      <point x="614" y="325" type="curve" smooth="yes"/>
      <point x="598" y="336"/>
      <point x="584" y="348"/>
      <point x="570" y="362" type="curve"/>
      <point x="508" y="361"/>
      <point x="463" y="311"/>
      <point x="457" y="243" type="curve"/>
      <point x="522" y="152"/>
      <point x="671" y="35"/>
      <point x="797" y="-2" type="curve"/>
      <point x="866" y="26"/>
      <point x="904" y="108"/>
      <point x="866" y="151" type="curve"/>
      <point x="777" y="175"/>
      <point x="703" y="217"/>
      <point x="629" y="261" type="curve"/>
      <point x="633" y="269" type="line"/>
      <point x="777" y="268"/>
      <point x="967" y="383"/>
    </contour>
  </outline>
</glyph>
